<svg xmlns="http://www.w3.org/2000/svg" xmlns:xlink="http://www.w3.org/1999/xlink" viewBox="0 0 102.23 96.48"><defs><style>.cls-1{isolation:isolate;}.cls-11,.cls-2,.cls-9{fill:#afdedc;}.cls-10,.cls-11,.cls-12,.cls-2,.cls-8,.cls-9{mix-blend-mode:multiply;}.cls-3{fill:url(#New_Gradient_Swatch_copy_3);}.cls-4{fill:url(#New_Gradient_Swatch_copy_3-2);}.cls-5{opacity:0.25;}.cls-6,.cls-7{fill:none;stroke:#fff;stroke-linecap:round;stroke-linejoin:round;}.cls-6{fill-rule:evenodd;}.cls-9{opacity:0.7;}.cls-10,.cls-11{opacity:0.5;}.cls-12{opacity:0.65;}</style><linearGradient id="New_Gradient_Swatch_copy_3" x1="37.5" y1="19.58" x2="94.04" y2="19.58" gradientUnits="userSpaceOnUse"><stop offset="0" stop-color="#f89b4c"/><stop offset="1" stop-color="#ee2433"/></linearGradient><linearGradient id="New_Gradient_Swatch_copy_3-2" x1="36.1" y1="62.73" x2="102.23" y2="62.73" xlink:href="#New_Gradient_Swatch_copy_3"/></defs><g class="cls-1"><g id="Layer_1" data-name="Layer 1"><polygon class="cls-2" points="36.1 29.54 36.1 65.47 66.67 95.93 102.23 95.93 36.1 29.54"/><polygon class="cls-2" points="55 39.16 94.04 0 58.74 0 37.5 21.33 55 39.16"/><polygon class="cls-2" points="55 39.16 94.04 0 58.74 0 37.5 21.33 55 39.16"/><polygon class="cls-3" points="55 39.16 94.04 0 58.74 0 37.5 21.33 55 39.16"/><polygon class="cls-4" points="36.1 29.54 36.1 65.47 66.67 95.93 102.23 95.93 36.1 29.54"/><g class="cls-5"><path class="cls-6" d="M140,239.83v2.82h7.78v-5.46h-3.2m7.74,5.47h-2m0-2.73h2m0-2.74h-2M140,245.38H152.3M142,236.13v1.06h-6v19.52h18.84V249M136,237.19l3.51-3.51m18,11.71h3m0-2.73h-3m-13.33,16.68v3.35H163v-5.56m-23-6.31h7.5m4.82-2.72H140m20.48,5.47h-3m0-2.72h3m0-2.72h-3" transform="translate(-94.19 -194.8)"/></g><g class="cls-5"><polygon class="cls-7" points="50.67 14.32 57.94 14.32 57.93 4.91 53.85 4.91 50.67 8.11 50.67 14.32"/><path class="cls-7" d="M154.27,213l-1.48-1.48-9.13,7.88h0l4.23,4.23h0l7.88-9.15Z" transform="translate(-94.19 -194.8)"/><path class="cls-7" d="M156.62,210.72A8.92,8.92,0,1,0,154,204.4a8.59,8.59,0,0,0,2.62,6.32Zm1.54-7.82-.6-.32a5.55,5.55,0,0,1,1.12-1.91l.56.36a1.17,1.17,0,0,0,1.17,0l.89-.51a1.15,1.15,0,0,0,.54-1l0-.68a6.21,6.21,0,0,1,2.22,0l0,.67a1.19,1.19,0,0,0,.55,1l.88.5a1.15,1.15,0,0,0,1.17,0l.56-.35a5.4,5.4,0,0,1,1.12,1.91l-.59.33a1.16,1.16,0,0,0-.63,1v1a1.16,1.16,0,0,0,.63,1l.59.33a5.4,5.4,0,0,1-1.12,1.91l-.56-.35a1.17,1.17,0,0,0-1.17,0l-.88.51a1.18,1.18,0,0,0-.55,1l0,.67a6.21,6.21,0,0,1-2.22,0l0-.67a1.15,1.15,0,0,0-.54-1l-.89-.52a1.2,1.2,0,0,0-1.17,0l-.55.35a5.38,5.38,0,0,1-1.13-1.92l.6-.32a1.17,1.17,0,0,0,.62-1v-1A1.17,1.17,0,0,0,158.16,202.9Z" transform="translate(-94.19 -194.8)"/><path class="cls-7" d="M162.93,206.66a2.25,2.25,0,0,0,2.25-2.26,2.19,2.19,0,0,0-.66-1.6,2.25,2.25,0,0,0-3.18,0,2.27,2.27,0,0,0,0,3.2A2.17,2.17,0,0,0,162.93,206.66Z" transform="translate(-94.19 -194.8)"/></g><g class="cls-5"><path class="cls-6" d="M166.75,271.17V266h-.16c-1.6.06-3,1.09-4.2,3.07-.18.3-.36.63-.54,1l-.18.38a17.78,17.78,0,0,0-1.08,3,12.61,12.61,0,0,0,3,1.07m3.14-8.53h.16a13.46,13.46,0,0,1,6.09,1.44m6.17,6.15H166.78a.79.79,0,0,0-.57.25.76.76,0,0,0-.24.57v10h15.2v-9M174,280.11l-1.69,1.69-.55-5.58,4.55,3.28ZM166.91,266c1.6.06,3,1.09,4.2,3.07.18.3.36.63.54,1l.18.38c.12.26.24.52.34.79M153.27,283a14.83,14.83,0,0,1-.35-3.24h0a13.32,13.32,0,0,1,3.68-9.4L157,270a14.06,14.06,0,0,1,1.08-1,13.22,13.22,0,0,1,8.54-3.07m-4.71,19.65a12.26,12.26,0,0,0-1.29.56,17.67,17.67,0,0,0,1.08,3l.18.38c.18.35.36.68.55,1m-4.35-2.73a13.68,13.68,0,0,1,2.54-1.66,24.81,24.81,0,0,1-.76-6.38h-6.91m7.67-6.37a24.73,24.73,0,0,0-.76,6.37h3.78m-7-9.4.37.39a14.06,14.06,0,0,0,1.08,1,13.68,13.68,0,0,0,2.54,1.66M171,290.78l.08-.12a.41.41,0,0,1,.07-.11q.27-.46.54-1l.18-.38c.12-.24.22-.49.33-.74m5.39,0c-.21.25-.43.5-.65.74s-.24.26-.37.38q-.53.53-1.08,1l-.16.13M166,284.4h-2v.24a1.32,1.32,0,0,0,.41,1l0,.06a1.34,1.34,0,0,0,.92.35h16.48a1.38,1.38,0,0,0,1.37-1.38v-.24h-2m-14.42,4v2.15" transform="translate(-94.19 -194.8)"/></g><g class="cls-8"><path class="cls-2" d="M94.45,203.39v1h4.3v-1H97.31v-8.26H96.05l-1.73.66v1.07l1.86-.69v7.22Z" transform="translate(-94.19 -194.8)"/><path class="cls-2" d="M98.89,215.36V210.6a2.21,2.21,0,0,0-.59-1.68,2.26,2.26,0,0,0-1.63-.57h-.26a2.26,2.26,0,0,0-1.63.57,2.21,2.21,0,0,0-.59,1.68v4.76a2,2,0,0,0,2.22,2.25h.26a2,2,0,0,0,2.22-2.25Zm-1.12-5-2.46,3.58v-3.58a.93.93,0,0,1,.31-.71,1.09,1.09,0,0,1,.79-.3h.26a1.09,1.09,0,0,1,.79.3A.93.93,0,0,1,97.77,210.35Zm-2.46,5.26L97.77,212v3.57a.93.93,0,0,1-.31.71,1.09,1.09,0,0,1-.79.3h-.26a1.09,1.09,0,0,1-.79-.3A.93.93,0,0,1,95.31,215.61Z" transform="translate(-94.19 -194.8)"/><path class="cls-2" d="M98.89,228.59v-4.76a2.21,2.21,0,0,0-.59-1.68,2.26,2.26,0,0,0-1.63-.57h-.26a2.26,2.26,0,0,0-1.63.57,2.21,2.21,0,0,0-.59,1.68v4.76a2.2,2.2,0,0,0,.6,1.67,2.26,2.26,0,0,0,1.62.58h.26a2.26,2.26,0,0,0,1.62-.58A2.2,2.2,0,0,0,98.89,228.59Zm-1.12-5-2.46,3.59v-3.59a.93.93,0,0,1,.31-.7,1.09,1.09,0,0,1,.79-.3h.26a1.09,1.09,0,0,1,.79.3A.93.93,0,0,1,97.77,223.57Zm-2.46,5.27,2.46-3.57v3.57a1,1,0,0,1-.31.71,1.09,1.09,0,0,1-.79.29h-.26a1.09,1.09,0,0,1-.79-.29A1,1,0,0,1,95.31,228.84Z" transform="translate(-94.19 -194.8)"/><path class="cls-2" d="M94.45,243.07v1h4.3v-1H97.31v-8.26H96.05l-1.73.66v1.07l1.86-.69v7.22Z" transform="translate(-94.19 -194.8)"/><path class="cls-2" d="M98.89,255.05v-4.76a2.21,2.21,0,0,0-.59-1.68,2.26,2.26,0,0,0-1.63-.57h-.26a2.26,2.26,0,0,0-1.63.57,2.21,2.21,0,0,0-.59,1.68v4.76a2,2,0,0,0,2.22,2.25h.26a2,2,0,0,0,2.22-2.25Zm-1.12-5-2.46,3.58V250a.93.93,0,0,1,.31-.71,1.09,1.09,0,0,1,.79-.3h.26a1.09,1.09,0,0,1,.79.3A.93.93,0,0,1,97.77,250Zm-2.46,5.26,2.46-3.57v3.57a1,1,0,0,1-.31.71,1.09,1.09,0,0,1-.79.3h-.26a1.09,1.09,0,0,1-.79-.3A1,1,0,0,1,95.31,255.3Z" transform="translate(-94.19 -194.8)"/><path class="cls-2" d="M94.46,269.54v1h4.3v-1H97.31v-8.27H96.06l-1.74.66V263l1.87-.68v7.22Z" transform="translate(-94.19 -194.8)"/><path class="cls-2" d="M94.46,282.77v1h4.3v-1H97.31V274.5H96.06l-1.74.66v1.08l1.87-.69v7.22Z" transform="translate(-94.19 -194.8)"/></g><g class="cls-8"><path class="cls-2" d="M118.86,210.3v1h4.3v-1h-1.44V202h-1.26l-1.73.66v1.07l1.86-.69v7.23Z" transform="translate(-94.19 -194.8)"/><path class="cls-2" d="M123.3,222.27V217.5a2.21,2.21,0,0,0-.59-1.68,2.26,2.26,0,0,0-1.63-.57h-.26a2.26,2.26,0,0,0-1.63.57,2.21,2.21,0,0,0-.59,1.68v4.77a2.2,2.2,0,0,0,.6,1.67,2.26,2.26,0,0,0,1.62.57h.26a2.26,2.26,0,0,0,1.62-.57A2.2,2.2,0,0,0,123.3,222.27Zm-1.12-5-2.46,3.59v-3.59a1,1,0,0,1,.31-.71,1.13,1.13,0,0,1,.79-.29h.26a1.13,1.13,0,0,1,.79.29A1,1,0,0,1,122.18,217.25Zm-2.46,5.27,2.46-3.57v3.57a.91.91,0,0,1-.31.7,1.09,1.09,0,0,1-.79.3h-.26a1.09,1.09,0,0,1-.79-.3A.91.91,0,0,1,119.72,222.52Z" transform="translate(-94.19 -194.8)"/><path class="cls-2" d="M123.3,235.49v-4.76a2.21,2.21,0,0,0-.59-1.68,2.26,2.26,0,0,0-1.63-.57h-.26a2.26,2.26,0,0,0-1.63.57,2.21,2.21,0,0,0-.59,1.68v4.76a2,2,0,0,0,2.22,2.25h.26a2,2,0,0,0,2.22-2.25Zm-1.12-5-2.46,3.58v-3.58a1,1,0,0,1,.31-.71,1.09,1.09,0,0,1,.79-.3h.26a1.09,1.09,0,0,1,.79.3A1,1,0,0,1,122.18,230.48Zm-2.46,5.26,2.46-3.57v3.57a.93.93,0,0,1-.31.71,1.09,1.09,0,0,1-.79.3h-.26a1.09,1.09,0,0,1-.79-.3A.93.93,0,0,1,119.72,235.74Z" transform="translate(-94.19 -194.8)"/><path class="cls-2" d="M118.86,250v1h4.3v-1h-1.44v-8.27h-1.26l-1.73.66v1.07l1.86-.68V250Z" transform="translate(-94.19 -194.8)"/><path class="cls-2" d="M123.3,262v-4.76a2.21,2.21,0,0,0-.59-1.68,2.26,2.26,0,0,0-1.63-.57h-.26a2.26,2.26,0,0,0-1.63.57,2.21,2.21,0,0,0-.59,1.68V262a2.23,2.23,0,0,0,.6,1.68,2.26,2.26,0,0,0,1.62.57h.26a2.26,2.26,0,0,0,1.62-.57A2.23,2.23,0,0,0,123.3,262Zm-1.12-5-2.46,3.59v-3.59a1,1,0,0,1,.31-.71,1.09,1.09,0,0,1,.79-.29h.26a1.09,1.09,0,0,1,.79.29A1,1,0,0,1,122.18,256.94Zm-2.46,5.27,2.46-3.58v3.58a.93.93,0,0,1-.31.7,1.09,1.09,0,0,1-.79.3h-.26a1.09,1.09,0,0,1-.79-.3A.93.93,0,0,1,119.72,262.21Z" transform="translate(-94.19 -194.8)"/><path class="cls-2" d="M123.3,275.19v-4.76a2.18,2.18,0,0,0-.59-1.68,2.26,2.26,0,0,0-1.63-.57h-.26a2.26,2.26,0,0,0-1.63.57,2.18,2.18,0,0,0-.59,1.68v4.76a2.2,2.2,0,0,0,.6,1.67,2.26,2.26,0,0,0,1.62.58h.26a2.26,2.26,0,0,0,1.62-.58A2.2,2.2,0,0,0,123.3,275.19Zm-1.12-5-2.46,3.59v-3.59a.91.91,0,0,1,.31-.7,1.09,1.09,0,0,1,.79-.3h.26a1.09,1.09,0,0,1,.79.3A.91.91,0,0,1,122.18,270.17Zm-2.46,5.27,2.46-3.57v3.57a1,1,0,0,1-.31.71,1.13,1.13,0,0,1-.79.29h-.26a1.13,1.13,0,0,1-.79-.29A1,1,0,0,1,119.72,275.44Z" transform="translate(-94.19 -194.8)"/><path class="cls-2" d="M123.3,288.42v-4.76a2.21,2.21,0,0,0-.59-1.68,2.26,2.26,0,0,0-1.63-.57h-.26a2.26,2.26,0,0,0-1.63.57,2.21,2.21,0,0,0-.59,1.68v4.76a2.2,2.2,0,0,0,.6,1.67,2.26,2.26,0,0,0,1.62.58h.26a2.26,2.26,0,0,0,1.62-.58A2.2,2.2,0,0,0,123.3,288.42Zm-1.12-5L119.72,287V283.4a.93.93,0,0,1,.31-.7,1.09,1.09,0,0,1,.79-.3h.26a1.09,1.09,0,0,1,.79.3A.93.93,0,0,1,122.18,283.4Zm-2.46,5.27,2.46-3.57v3.57a1,1,0,0,1-.31.71,1.09,1.09,0,0,1-.79.29h-.26a1.09,1.09,0,0,1-.79-.29A1,1,0,0,1,119.72,288.67Z" transform="translate(-94.19 -194.8)"/></g><path class="cls-9" d="M110.82,202.89v1h4.1v-1h-1.37V195h-1.2l-1.66.63v1l1.78-.66v6.9Z" transform="translate(-94.19 -194.8)"/><path class="cls-9" d="M115.06,214.32v-4.54a1.93,1.93,0,0,0-2.12-2.15h-.25a2.18,2.18,0,0,0-1.56.54,2.14,2.14,0,0,0-.57,1.61v4.54a2,2,0,0,0,2.13,2.15h.25a2.15,2.15,0,0,0,1.55-.55A2.11,2.11,0,0,0,115.06,214.32ZM114,209.54,111.64,213v-3.42a.91.91,0,0,1,.3-.68,1,1,0,0,1,.75-.28h.25a1,1,0,0,1,.75.28A.91.91,0,0,1,114,209.54Zm-2.35,5,2.35-3.41v3.41a.9.9,0,0,1-.3.68,1,1,0,0,1-.75.28h-.25a1,1,0,0,1-.75-.28A.9.9,0,0,1,111.64,214.56Z" transform="translate(-94.19 -194.8)"/><path class="cls-9" d="M110.82,228.15v.95h4.1v-.95h-1.37v-7.89h-1.2l-1.66.63v1l1.78-.65v6.89Z" transform="translate(-94.19 -194.8)"/><path class="cls-9" d="M115.06,239.58V235a2.12,2.12,0,0,0-.57-1.61,2.15,2.15,0,0,0-1.55-.54h-.25a2.18,2.18,0,0,0-1.56.54,2.12,2.12,0,0,0-.57,1.61v4.54a2,2,0,0,0,2.13,2.15h.25a2.15,2.15,0,0,0,1.55-.55A2.11,2.11,0,0,0,115.06,239.58ZM114,234.8l-2.35,3.42V234.8a.91.91,0,0,1,.3-.68,1,1,0,0,1,.75-.28h.25a1,1,0,0,1,.75.28A.91.91,0,0,1,114,234.8Zm-2.35,5,2.35-3.41v3.41a.91.91,0,0,1-.3.68,1,1,0,0,1-.75.28h-.25a1,1,0,0,1-.75-.28A.91.91,0,0,1,111.64,239.82Z" transform="translate(-94.19 -194.8)"/><path class="cls-9" d="M110.82,266.06V267h4.1v-.95h-1.37v-7.89h-1.2l-1.66.63v1l1.78-.65v6.89Z" transform="translate(-94.19 -194.8)"/><path class="cls-9" d="M115.06,252.12v-4.55a1.93,1.93,0,0,0-2.12-2.15h-.25a2.18,2.18,0,0,0-1.56.54,2.14,2.14,0,0,0-.57,1.61v4.55a2.11,2.11,0,0,0,.58,1.59,2.13,2.13,0,0,0,1.55.55h.25a2.15,2.15,0,0,0,1.55-.55A2.1,2.1,0,0,0,115.06,252.12ZM114,247.33l-2.35,3.42v-3.42a.91.91,0,0,1,.3-.68,1,1,0,0,1,.75-.28h.25a1,1,0,0,1,.75.28A.91.91,0,0,1,114,247.33Zm-2.35,5,2.35-3.42v3.42a.89.89,0,0,1-.3.67,1.05,1.05,0,0,1-.75.29h-.25a1,1,0,0,1-.75-.29A.89.89,0,0,1,111.64,252.36Z" transform="translate(-94.19 -194.8)"/><path class="cls-9" d="M110.82,278.69v.94h4.1v-.94h-1.37v-7.9h-1.2l-1.66.63v1l1.78-.66v6.9Z" transform="translate(-94.19 -194.8)"/><g class="cls-10"><path class="cls-11" d="M102.77,214.27v.9h3.92v-.9h-1.31v-7.55h-1.15l-1.58.6v1l1.7-.63v6.6Z" transform="translate(-94.19 -194.8)"/><path class="cls-11" d="M106.83,225.21v-4.35a2,2,0,0,0-.55-1.54,2.07,2.07,0,0,0-1.48-.52h-.24a2.09,2.09,0,0,0-1.49.52,2,2,0,0,0-.54,1.54v4.35a2,2,0,0,0,.55,1.53,2,2,0,0,0,1.48.52h.24a1.86,1.86,0,0,0,2-2Zm-1-4.58-2.25,3.27v-3.27a.87.87,0,0,1,.29-.65,1,1,0,0,1,.72-.27h.24a1,1,0,0,1,.72.27A.86.86,0,0,1,105.8,220.63Zm-2.25,4.81,2.25-3.27v3.27a.84.84,0,0,1-.28.64,1,1,0,0,1-.72.28h-.24a1,1,0,0,1-.72-.28A.85.85,0,0,1,103.55,225.44Z" transform="translate(-94.19 -194.8)"/><path class="cls-11" d="M102.77,262.6v.91h3.92v-.91h-1.31v-7.55h-1.15l-1.58.6v1l1.7-.63v6.6Z" transform="translate(-94.19 -194.8)"/><path class="cls-11" d="M102.77,286.79v.91h3.92v-.91h-1.31v-7.55h-1.15l-1.58.6v1l1.7-.63v6.6Z" transform="translate(-94.19 -194.8)"/><path class="cls-11" d="M102.77,251.12V252h3.92v-.91h-1.31v-7.55h-1.15l-1.58.6v1l1.7-.63v6.6Z" transform="translate(-94.19 -194.8)"/><path class="cls-11" d="M106.83,237.29v-4.35a2,2,0,0,0-.55-1.54,2.07,2.07,0,0,0-1.48-.52h-.24a2.09,2.09,0,0,0-1.49.52,2,2,0,0,0-.54,1.54v4.35a2,2,0,0,0,.55,1.53,2,2,0,0,0,1.48.52h.24a1.86,1.86,0,0,0,2-2.05Zm-1-4.58L103.55,236v-3.27a.87.87,0,0,1,.29-.65,1,1,0,0,1,.72-.27h.24a1,1,0,0,1,.72.27A.86.86,0,0,1,105.8,232.71Zm-2.25,4.81,2.25-3.27v3.27a.84.84,0,0,1-.28.64,1,1,0,0,1-.72.27h-.24a1,1,0,0,1-.72-.27A.85.85,0,0,1,103.55,237.52Z" transform="translate(-94.19 -194.8)"/><path class="cls-11" d="M102.77,274.25v.91h3.92v-.91h-1.31V266.7h-1.15l-1.58.6v1l1.7-.63v6.6Z" transform="translate(-94.19 -194.8)"/></g><g class="cls-10"><path class="cls-11" d="M102.77,214.27v.9h3.92v-.9h-1.31v-7.55h-1.15l-1.58.6v1l1.7-.63v6.6Z" transform="translate(-94.19 -194.8)"/><path class="cls-11" d="M106.83,225.21v-4.35a2,2,0,0,0-.55-1.54,2.07,2.07,0,0,0-1.48-.52h-.24a2.09,2.09,0,0,0-1.49.52,2,2,0,0,0-.54,1.54v4.35a2,2,0,0,0,.55,1.53,2,2,0,0,0,1.48.52h.24a1.86,1.86,0,0,0,2-2Zm-1-4.58-2.25,3.27v-3.27a.87.87,0,0,1,.29-.65,1,1,0,0,1,.72-.27h.24a1,1,0,0,1,.72.27A.86.86,0,0,1,105.8,220.63Zm-2.25,4.81,2.25-3.27v3.27a.84.84,0,0,1-.28.64,1,1,0,0,1-.72.28h-.24a1,1,0,0,1-.72-.28A.85.85,0,0,1,103.55,225.44Z" transform="translate(-94.19 -194.8)"/><path class="cls-11" d="M102.77,262.6v.91h3.92v-.91h-1.31v-7.55h-1.15l-1.58.6v1l1.7-.63v6.6Z" transform="translate(-94.19 -194.8)"/><path class="cls-11" d="M102.77,286.79v.91h3.92v-.91h-1.31v-7.55h-1.15l-1.58.6v1l1.7-.63v6.6Z" transform="translate(-94.19 -194.8)"/><path class="cls-11" d="M102.77,251.12V252h3.92v-.91h-1.31v-7.55h-1.15l-1.58.6v1l1.7-.63v6.6Z" transform="translate(-94.19 -194.8)"/><path class="cls-11" d="M106.83,237.29v-4.35a2,2,0,0,0-.55-1.54,2.07,2.07,0,0,0-1.48-.52h-.24a2.09,2.09,0,0,0-1.49.52,2,2,0,0,0-.54,1.54v4.35a2,2,0,0,0,.55,1.53,2,2,0,0,0,1.48.52h.24a1.86,1.86,0,0,0,2-2.05Zm-1-4.58L103.55,236v-3.27a.87.87,0,0,1,.29-.65,1,1,0,0,1,.72-.27h.24a1,1,0,0,1,.72.27A.86.86,0,0,1,105.8,232.71Zm-2.25,4.81,2.25-3.27v3.27a.84.84,0,0,1-.28.64,1,1,0,0,1-.72.27h-.24a1,1,0,0,1-.72-.27A.85.85,0,0,1,103.55,237.52Z" transform="translate(-94.19 -194.8)"/><path class="cls-11" d="M102.77,274.25v.91h3.92v-.91h-1.31V266.7h-1.15l-1.58.6v1l1.7-.63v6.6Z" transform="translate(-94.19 -194.8)"/></g><g class="cls-10"><path class="cls-11" d="M102.77,214.27v.9h3.92v-.9h-1.31v-7.55h-1.15l-1.58.6v1l1.7-.63v6.6Z" transform="translate(-94.19 -194.8)"/><path class="cls-11" d="M106.83,225.21v-4.35a2,2,0,0,0-.55-1.54,2.07,2.07,0,0,0-1.48-.52h-.24a2.09,2.09,0,0,0-1.49.52,2,2,0,0,0-.54,1.54v4.35a2,2,0,0,0,.55,1.53,2,2,0,0,0,1.48.52h.24a1.86,1.86,0,0,0,2-2Zm-1-4.58-2.25,3.27v-3.27a.87.87,0,0,1,.29-.65,1,1,0,0,1,.72-.27h.24a1,1,0,0,1,.72.27A.86.86,0,0,1,105.8,220.63Zm-2.25,4.81,2.25-3.27v3.27a.84.84,0,0,1-.28.64,1,1,0,0,1-.72.28h-.24a1,1,0,0,1-.72-.28A.85.85,0,0,1,103.55,225.44Z" transform="translate(-94.19 -194.8)"/><path class="cls-11" d="M102.77,262.6v.91h3.92v-.91h-1.31v-7.55h-1.15l-1.58.6v1l1.7-.63v6.6Z" transform="translate(-94.19 -194.8)"/><path class="cls-11" d="M102.77,286.79v.91h3.92v-.91h-1.31v-7.55h-1.15l-1.58.6v1l1.7-.63v6.6Z" transform="translate(-94.19 -194.8)"/><path class="cls-11" d="M102.77,251.12V252h3.92v-.91h-1.31v-7.55h-1.15l-1.58.6v1l1.7-.63v6.6Z" transform="translate(-94.19 -194.8)"/><path class="cls-11" d="M106.83,237.29v-4.35a2,2,0,0,0-.55-1.54,2.07,2.07,0,0,0-1.48-.52h-.24a2.09,2.09,0,0,0-1.49.52,2,2,0,0,0-.54,1.54v4.35a2,2,0,0,0,.55,1.53,2,2,0,0,0,1.48.52h.24a1.86,1.86,0,0,0,2-2.05Zm-1-4.58L103.55,236v-3.27a.87.87,0,0,1,.29-.65,1,1,0,0,1,.72-.27h.24a1,1,0,0,1,.72.27A.86.86,0,0,1,105.8,232.71Zm-2.25,4.81,2.25-3.27v3.27a.84.84,0,0,1-.28.64,1,1,0,0,1-.72.27h-.24a1,1,0,0,1-.72-.27A.85.85,0,0,1,103.55,237.52Z" transform="translate(-94.19 -194.8)"/><path class="cls-11" d="M102.77,274.25v.91h3.92v-.91h-1.31V266.7h-1.15l-1.58.6v1l1.7-.63v6.6Z" transform="translate(-94.19 -194.8)"/></g><g class="cls-10"><path class="cls-11" d="M102.77,214.27v.9h3.92v-.9h-1.31v-7.55h-1.15l-1.58.6v1l1.7-.63v6.6Z" transform="translate(-94.19 -194.8)"/><path class="cls-11" d="M106.83,225.21v-4.35a2,2,0,0,0-.55-1.54,2.07,2.07,0,0,0-1.48-.52h-.24a2.09,2.09,0,0,0-1.49.52,2,2,0,0,0-.54,1.54v4.35a2,2,0,0,0,.55,1.53,2,2,0,0,0,1.48.52h.24a1.86,1.86,0,0,0,2-2Zm-1-4.58-2.25,3.27v-3.27a.87.87,0,0,1,.29-.65,1,1,0,0,1,.72-.27h.24a1,1,0,0,1,.72.27A.86.86,0,0,1,105.8,220.63Zm-2.25,4.81,2.25-3.27v3.27a.84.84,0,0,1-.28.64,1,1,0,0,1-.72.28h-.24a1,1,0,0,1-.72-.28A.85.85,0,0,1,103.55,225.44Z" transform="translate(-94.19 -194.8)"/><path class="cls-11" d="M102.77,262.6v.91h3.92v-.91h-1.31v-7.55h-1.15l-1.58.6v1l1.7-.63v6.6Z" transform="translate(-94.19 -194.8)"/><path class="cls-11" d="M102.77,286.79v.91h3.92v-.91h-1.31v-7.55h-1.15l-1.58.6v1l1.7-.63v6.6Z" transform="translate(-94.19 -194.8)"/><path class="cls-11" d="M102.77,251.12V252h3.92v-.91h-1.31v-7.55h-1.15l-1.58.6v1l1.7-.63v6.6Z" transform="translate(-94.19 -194.8)"/><path class="cls-11" d="M106.83,237.29v-4.35a2,2,0,0,0-.55-1.54,2.07,2.07,0,0,0-1.48-.52h-.24a2.09,2.09,0,0,0-1.49.52,2,2,0,0,0-.54,1.54v4.35a2,2,0,0,0,.55,1.53,2,2,0,0,0,1.48.52h.24a1.86,1.86,0,0,0,2-2.05Zm-1-4.58L103.55,236v-3.27a.87.87,0,0,1,.29-.65,1,1,0,0,1,.72-.27h.24a1,1,0,0,1,.72.27A.86.86,0,0,1,105.8,232.71Zm-2.25,4.81,2.25-3.27v3.27a.84.84,0,0,1-.28.64,1,1,0,0,1-.72.27h-.24a1,1,0,0,1-.72-.27A.85.85,0,0,1,103.55,237.52Z" transform="translate(-94.19 -194.8)"/><path class="cls-11" d="M102.77,274.25v.91h3.92v-.91h-1.31V266.7h-1.15l-1.58.6v1l1.7-.63v6.6Z" transform="translate(-94.19 -194.8)"/></g><g class="cls-8"><path class="cls-2" d="M118.86,210.3v1h4.3v-1h-1.44V202h-1.26l-1.73.66v1.07l1.86-.69v7.23Z" transform="translate(-94.19 -194.8)"/><path class="cls-2" d="M123.3,222.27V217.5a2.21,2.21,0,0,0-.59-1.68,2.26,2.26,0,0,0-1.63-.57h-.26a2.26,2.26,0,0,0-1.63.57,2.21,2.21,0,0,0-.59,1.68v4.77a2.2,2.2,0,0,0,.6,1.67,2.26,2.26,0,0,0,1.62.57h.26a2.26,2.26,0,0,0,1.62-.57A2.2,2.2,0,0,0,123.3,222.27Zm-1.12-5-2.46,3.59v-3.59a1,1,0,0,1,.31-.71,1.13,1.13,0,0,1,.79-.29h.26a1.13,1.13,0,0,1,.79.29A1,1,0,0,1,122.18,217.25Zm-2.46,5.27,2.46-3.57v3.57a.91.91,0,0,1-.31.7,1.09,1.09,0,0,1-.79.3h-.26a1.09,1.09,0,0,1-.79-.3A.91.91,0,0,1,119.72,222.52Z" transform="translate(-94.19 -194.8)"/><path class="cls-2" d="M123.3,235.49v-4.76a2.21,2.21,0,0,0-.59-1.68,2.26,2.26,0,0,0-1.63-.57h-.26a2.26,2.26,0,0,0-1.63.57,2.21,2.21,0,0,0-.59,1.68v4.76a2,2,0,0,0,2.22,2.25h.26a2,2,0,0,0,2.22-2.25Zm-1.12-5-2.46,3.58v-3.58a1,1,0,0,1,.31-.71,1.09,1.09,0,0,1,.79-.3h.26a1.09,1.09,0,0,1,.79.3A1,1,0,0,1,122.18,230.48Zm-2.46,5.26,2.46-3.57v3.57a.93.93,0,0,1-.31.71,1.09,1.09,0,0,1-.79.3h-.26a1.09,1.09,0,0,1-.79-.3A.93.93,0,0,1,119.72,235.74Z" transform="translate(-94.19 -194.8)"/><path class="cls-2" d="M118.86,250v1h4.3v-1h-1.44v-8.27h-1.26l-1.73.66v1.07l1.86-.68V250Z" transform="translate(-94.19 -194.8)"/><path class="cls-2" d="M123.3,262v-4.76a2.21,2.21,0,0,0-.59-1.68,2.26,2.26,0,0,0-1.63-.57h-.26a2.26,2.26,0,0,0-1.63.57,2.21,2.21,0,0,0-.59,1.68V262a2.23,2.23,0,0,0,.6,1.68,2.26,2.26,0,0,0,1.62.57h.26a2.26,2.26,0,0,0,1.62-.57A2.23,2.23,0,0,0,123.3,262Zm-1.12-5-2.46,3.59v-3.59a1,1,0,0,1,.31-.71,1.09,1.09,0,0,1,.79-.29h.26a1.09,1.09,0,0,1,.79.29A1,1,0,0,1,122.18,256.94Zm-2.46,5.27,2.46-3.58v3.58a.93.93,0,0,1-.31.7,1.09,1.09,0,0,1-.79.3h-.26a1.09,1.09,0,0,1-.79-.3A.93.93,0,0,1,119.72,262.21Z" transform="translate(-94.19 -194.8)"/><path class="cls-2" d="M123.3,275.19v-4.76a2.18,2.18,0,0,0-.59-1.68,2.26,2.26,0,0,0-1.63-.57h-.26a2.26,2.26,0,0,0-1.63.57,2.18,2.18,0,0,0-.59,1.68v4.76a2.2,2.2,0,0,0,.6,1.67,2.26,2.26,0,0,0,1.62.58h.26a2.26,2.26,0,0,0,1.62-.58A2.2,2.2,0,0,0,123.3,275.19Zm-1.12-5-2.46,3.59v-3.59a.91.91,0,0,1,.31-.7,1.09,1.09,0,0,1,.79-.3h.26a1.09,1.09,0,0,1,.79.3A.91.91,0,0,1,122.18,270.17Zm-2.46,5.27,2.46-3.57v3.57a1,1,0,0,1-.31.71,1.13,1.13,0,0,1-.79.29h-.26a1.13,1.13,0,0,1-.79-.29A1,1,0,0,1,119.72,275.44Z" transform="translate(-94.19 -194.8)"/><path class="cls-2" d="M123.3,288.42v-4.76a2.21,2.21,0,0,0-.59-1.68,2.26,2.26,0,0,0-1.63-.57h-.26a2.26,2.26,0,0,0-1.63.57,2.21,2.21,0,0,0-.59,1.68v4.76a2.2,2.2,0,0,0,.6,1.67,2.26,2.26,0,0,0,1.62.58h.26a2.26,2.26,0,0,0,1.62-.58A2.2,2.2,0,0,0,123.3,288.42Zm-1.12-5L119.72,287V283.4a.93.93,0,0,1,.31-.7,1.09,1.09,0,0,1,.79-.3h.26a1.09,1.09,0,0,1,.79.3A.93.93,0,0,1,122.18,283.4Zm-2.46,5.27,2.46-3.57v3.57a1,1,0,0,1-.31.71,1.09,1.09,0,0,1-.79.29h-.26a1.09,1.09,0,0,1-.79-.29A1,1,0,0,1,119.72,288.67Z" transform="translate(-94.19 -194.8)"/></g><g class="cls-12"><path class="cls-2" d="M94.45,203.39v1h4.3v-1H97.31v-8.26H96.05l-1.73.66v1.07l1.86-.69v7.22Z" transform="translate(-94.19 -194.8)"/><path class="cls-2" d="M98.89,215.36V210.6a2.21,2.21,0,0,0-.59-1.68,2.26,2.26,0,0,0-1.63-.57h-.26a2.26,2.26,0,0,0-1.63.57,2.21,2.21,0,0,0-.59,1.68v4.76a2,2,0,0,0,2.22,2.25h.26a2,2,0,0,0,2.22-2.25Zm-1.12-5-2.46,3.58v-3.58a.93.93,0,0,1,.31-.71,1.09,1.09,0,0,1,.79-.3h.26a1.09,1.09,0,0,1,.79.3A.93.93,0,0,1,97.77,210.35Zm-2.46,5.26L97.77,212v3.57a.93.93,0,0,1-.31.71,1.09,1.09,0,0,1-.79.3h-.26a1.09,1.09,0,0,1-.79-.3A.93.93,0,0,1,95.31,215.61Z" transform="translate(-94.19 -194.8)"/><path class="cls-2" d="M98.89,228.59v-4.76a2.21,2.21,0,0,0-.59-1.68,2.26,2.26,0,0,0-1.63-.57h-.26a2.26,2.26,0,0,0-1.63.57,2.21,2.21,0,0,0-.59,1.68v4.76a2.2,2.2,0,0,0,.6,1.67,2.26,2.26,0,0,0,1.62.58h.26a2.26,2.26,0,0,0,1.62-.58A2.2,2.2,0,0,0,98.89,228.59Zm-1.12-5-2.46,3.59v-3.59a.93.93,0,0,1,.31-.7,1.09,1.09,0,0,1,.79-.3h.26a1.09,1.09,0,0,1,.79.3A.93.93,0,0,1,97.77,223.57Zm-2.46,5.27,2.46-3.57v3.57a1,1,0,0,1-.31.71,1.09,1.09,0,0,1-.79.29h-.26a1.09,1.09,0,0,1-.79-.29A1,1,0,0,1,95.31,228.84Z" transform="translate(-94.19 -194.8)"/><path class="cls-2" d="M94.45,243.07v1h4.3v-1H97.31v-8.26H96.05l-1.73.66v1.07l1.86-.69v7.22Z" transform="translate(-94.19 -194.8)"/><path class="cls-2" d="M98.89,255.05v-4.76a2.21,2.21,0,0,0-.59-1.68,2.26,2.26,0,0,0-1.63-.57h-.26a2.26,2.26,0,0,0-1.63.57,2.21,2.21,0,0,0-.59,1.68v4.76a2,2,0,0,0,2.22,2.25h.26a2,2,0,0,0,2.22-2.25Zm-1.12-5-2.46,3.58V250a.93.93,0,0,1,.31-.71,1.09,1.09,0,0,1,.79-.3h.26a1.09,1.09,0,0,1,.79.3A.93.93,0,0,1,97.77,250Zm-2.46,5.26,2.46-3.57v3.57a1,1,0,0,1-.31.71,1.09,1.09,0,0,1-.79.3h-.26a1.09,1.09,0,0,1-.79-.3A1,1,0,0,1,95.31,255.3Z" transform="translate(-94.19 -194.8)"/><path class="cls-2" d="M94.46,269.54v1h4.3v-1H97.31v-8.27H96.06l-1.74.66V263l1.87-.68v7.22Z" transform="translate(-94.19 -194.8)"/><path class="cls-2" d="M94.46,282.77v1h4.3v-1H97.31V274.5H96.06l-1.74.66v1.08l1.87-.69v7.22Z" transform="translate(-94.19 -194.8)"/></g></g></g></svg>