<svg xmlns="http://www.w3.org/2000/svg" viewBox="0 0 103.22 96.65"><defs><style>.cls-1{isolation:isolate;}.cls-2,.cls-3,.cls-4,.cls-6{fill:#010101;}.cls-2,.cls-3,.cls-4,.cls-5{mix-blend-mode:multiply;}.cls-3{opacity:0.7;}.cls-4{opacity:0.5;}.cls-5{fill:#afdedc;}.cls-7{opacity:0.25;}.cls-8,.cls-9{fill:none;stroke:#fff;stroke-linecap:round;stroke-linejoin:round;}.cls-8{fill-rule:evenodd;}</style></defs><g class="cls-1"><g id="Layer_1" data-name="Layer 1"><path class="cls-2" d="M74.82,150.59v1h4.31v-1H77.69v-8.3H76.43l-1.74.67V144l1.87-.69v7.25Z" transform="translate(-74.55 -142.16)"/><path class="cls-2" d="M79.28,162.61v-4.78a2.22,2.22,0,0,0-.6-1.69,2.26,2.26,0,0,0-1.63-.57h-.27a2.26,2.26,0,0,0-1.63.57,2.22,2.22,0,0,0-.6,1.69v4.78a2.21,2.21,0,0,0,.61,1.68,2.26,2.26,0,0,0,1.62.58h.27a2.3,2.3,0,0,0,1.63-.58A2.24,2.24,0,0,0,79.28,162.61Zm-1.13-5-2.47,3.6v-3.6a1,1,0,0,1,.31-.71,1.09,1.09,0,0,1,.79-.3h.27a1.09,1.09,0,0,1,.79.3A.93.93,0,0,1,78.15,157.58Zm-2.47,5.28,2.47-3.58v3.58a.93.93,0,0,1-.31.71,1.09,1.09,0,0,1-.79.3h-.27a1.09,1.09,0,0,1-.79-.3A1,1,0,0,1,75.68,162.86Z" transform="translate(-74.55 -142.16)"/><path class="cls-2" d="M79.28,175.89v-4.78a2.22,2.22,0,0,0-.6-1.69,2.26,2.26,0,0,0-1.63-.57h-.27a2.26,2.26,0,0,0-1.63.57,2.22,2.22,0,0,0-.6,1.69v4.78a2.21,2.21,0,0,0,.61,1.68,2.26,2.26,0,0,0,1.62.58h.27a2.3,2.3,0,0,0,1.63-.58A2.24,2.24,0,0,0,79.28,175.89Zm-1.13-5-2.47,3.6v-3.6a1,1,0,0,1,.31-.71,1.09,1.09,0,0,1,.79-.3h.27a1.09,1.09,0,0,1,.79.3A.92.92,0,0,1,78.15,170.86Zm-2.47,5.28,2.47-3.58v3.58a.93.93,0,0,1-.31.71,1.09,1.09,0,0,1-.79.3h-.27a1.09,1.09,0,0,1-.79-.3A1,1,0,0,1,75.68,176.14Z" transform="translate(-74.55 -142.16)"/><path class="cls-2" d="M74.82,190.43v1h4.31v-1H77.69v-8.3H76.43l-1.74.67v1.07l1.87-.69v7.25Z" transform="translate(-74.55 -142.16)"/><path class="cls-2" d="M79.28,202.46v-4.78a2.22,2.22,0,0,0-.6-1.69,2.26,2.26,0,0,0-1.63-.57h-.27a2.26,2.26,0,0,0-1.63.57,2.22,2.22,0,0,0-.6,1.69v4.78a2.21,2.21,0,0,0,.61,1.68,2.26,2.26,0,0,0,1.62.58h.27a2.3,2.3,0,0,0,1.63-.58A2.24,2.24,0,0,0,79.28,202.46Zm-1.13-5L75.68,201v-3.6a1,1,0,0,1,.31-.71,1.09,1.09,0,0,1,.79-.3h.27a1.09,1.09,0,0,1,.79.3A1,1,0,0,1,78.15,197.42Zm-2.47,5.29,2.47-3.59v3.59a1,1,0,0,1-.31.71,1.09,1.09,0,0,1-.79.3h-.27a1.09,1.09,0,0,1-.79-.3A1,1,0,0,1,75.68,202.71Z" transform="translate(-74.55 -142.16)"/><path class="cls-2" d="M74.82,217v1h4.32v-1H77.69V208.7H76.43l-1.74.67v1.07l1.87-.69V217Z" transform="translate(-74.55 -142.16)"/><path class="cls-2" d="M74.82,230.29v1h4.32v-1H77.69V222H76.43l-1.74.66v1.08l1.87-.69v7.25Z" transform="translate(-74.55 -142.16)"/><path class="cls-2" d="M99.33,157.53v1h4.31v-1h-1.45v-8.31h-1.26l-1.74.67V151l1.88-.69v7.26Z" transform="translate(-74.55 -142.16)"/><path class="cls-2" d="M103.79,169.54v-4.78a2.23,2.23,0,0,0-.6-1.69,2.26,2.26,0,0,0-1.63-.57h-.27a2.26,2.26,0,0,0-1.63.57,2.23,2.23,0,0,0-.6,1.69v4.78a2.21,2.21,0,0,0,.6,1.68,2.26,2.26,0,0,0,1.63.58h.27a2.22,2.22,0,0,0,1.62-.58A2.18,2.18,0,0,0,103.79,169.54Zm-1.13-5-2.47,3.6v-3.6a.93.93,0,0,1,.31-.71,1.09,1.09,0,0,1,.79-.3h.27a1.09,1.09,0,0,1,.79.3A1,1,0,0,1,102.66,164.51Zm-2.47,5.28,2.47-3.58v3.58a1,1,0,0,1-.31.71,1.09,1.09,0,0,1-.79.3h-.27a1.09,1.09,0,0,1-.79-.3A.92.92,0,0,1,100.19,169.79Z" transform="translate(-74.55 -142.16)"/><path class="cls-2" d="M103.79,182.82V178a2.23,2.23,0,0,0-.6-1.69,2.26,2.26,0,0,0-1.63-.57h-.27a2.26,2.26,0,0,0-1.63.57,2.23,2.23,0,0,0-.6,1.69v4.78a2.21,2.21,0,0,0,.6,1.68,2.26,2.26,0,0,0,1.63.58h.27a2.22,2.22,0,0,0,1.62-.58A2.18,2.18,0,0,0,103.79,182.82Zm-1.13-5-2.47,3.6v-3.6a.93.93,0,0,1,.31-.71,1.09,1.09,0,0,1,.79-.3h.27a1.09,1.09,0,0,1,.79.3A1,1,0,0,1,102.66,177.79Zm-2.47,5.28,2.47-3.58v3.58a1,1,0,0,1-.31.71,1.09,1.09,0,0,1-.79.3h-.27a1.09,1.09,0,0,1-.79-.3A.92.92,0,0,1,100.19,183.07Z" transform="translate(-74.55 -142.16)"/><path class="cls-2" d="M99.33,197.37v1h4.31v-1h-1.45v-8.3h-1.26l-1.74.66v1.08l1.88-.69v7.25Z" transform="translate(-74.55 -142.16)"/><path class="cls-2" d="M103.79,209.39v-4.78a2.22,2.22,0,0,0-.6-1.69,2.26,2.26,0,0,0-1.63-.57h-.27a2.26,2.26,0,0,0-1.63.57,2.22,2.22,0,0,0-.6,1.69v4.78a2.24,2.24,0,0,0,.6,1.68,2.3,2.3,0,0,0,1.63.58h.27a2.26,2.26,0,0,0,1.62-.58A2.21,2.21,0,0,0,103.79,209.39Zm-1.13-5-2.47,3.6v-3.6a.92.92,0,0,1,.31-.71,1.09,1.09,0,0,1,.79-.3h.27a1.09,1.09,0,0,1,.79.3A1,1,0,0,1,102.66,204.36Zm-2.47,5.28,2.47-3.58v3.58a1,1,0,0,1-.31.71,1.09,1.09,0,0,1-.79.3h-.27a1.09,1.09,0,0,1-.79-.3A.93.93,0,0,1,100.19,209.64Z" transform="translate(-74.55 -142.16)"/><path class="cls-2" d="M103.79,222.68v-4.79a2.21,2.21,0,0,0-.6-1.68,2.26,2.26,0,0,0-1.63-.57h-.27a2.26,2.26,0,0,0-1.63.57,2.21,2.21,0,0,0-.6,1.68v4.79a2.24,2.24,0,0,0,.6,1.68,2.3,2.3,0,0,0,1.63.57h.27a2.26,2.26,0,0,0,1.62-.57A2.21,2.21,0,0,0,103.79,222.68Zm-1.13-5-2.47,3.6v-3.6a1,1,0,0,1,.31-.71,1.09,1.09,0,0,1,.79-.3h.27a1.09,1.09,0,0,1,.79.3A1,1,0,0,1,102.66,217.64Zm-2.47,5.29,2.47-3.59v3.59a1,1,0,0,1-.31.71,1.09,1.09,0,0,1-.79.3h-.27a1.09,1.09,0,0,1-.79-.3A1,1,0,0,1,100.19,222.93Z" transform="translate(-74.55 -142.16)"/><path class="cls-2" d="M103.79,236v-4.78a2.23,2.23,0,0,0-.6-1.69,2.26,2.26,0,0,0-1.63-.57h-.27a2.26,2.26,0,0,0-1.63.57,2.23,2.23,0,0,0-.6,1.69V236a2.24,2.24,0,0,0,.6,1.68,2.3,2.3,0,0,0,1.63.58h.27a2.26,2.26,0,0,0,1.62-.58A2.21,2.21,0,0,0,103.79,236Zm-1.13-5-2.47,3.6v-3.6a.93.93,0,0,1,.31-.71,1.09,1.09,0,0,1,.79-.3h.27a1.09,1.09,0,0,1,.79.3A1,1,0,0,1,102.66,230.93Zm-2.47,5.28,2.47-3.58v3.58a1,1,0,0,1-.31.71,1.09,1.09,0,0,1-.79.3h-.27a1.09,1.09,0,0,1-.79-.3A.93.93,0,0,1,100.19,236.21Z" transform="translate(-74.55 -142.16)"/><path class="cls-3" d="M91.25,150.09V151h4.12v-.95H94v-7.93h-1.2l-1.67.63v1l1.79-.66v6.93Z" transform="translate(-74.55 -142.16)"/><path class="cls-3" d="M95.51,161.57V157a2.14,2.14,0,0,0-.57-1.61,2.18,2.18,0,0,0-1.56-.54h-.25a2.18,2.18,0,0,0-1.56.54A2.14,2.14,0,0,0,91,157v4.57a2.11,2.11,0,0,0,.57,1.6,2.17,2.17,0,0,0,1.56.55h.25a2.17,2.17,0,0,0,1.56-.55A2.11,2.11,0,0,0,95.51,161.57Zm-1.08-4.81-2.35,3.44v-3.44a.9.9,0,0,1,.29-.68,1.05,1.05,0,0,1,.76-.28h.25a1.05,1.05,0,0,1,.76.28A.94.94,0,0,1,94.43,156.76Zm-2.35,5.05,2.35-3.42v3.42a.94.94,0,0,1-.29.68,1.05,1.05,0,0,1-.76.28h-.25a1.05,1.05,0,0,1-.76-.28A.9.9,0,0,1,92.08,161.81Z" transform="translate(-74.55 -142.16)"/><path class="cls-3" d="M91.25,175.45v1h4.12v-1H94v-7.92h-1.2l-1.67.63v1l1.79-.66v6.92Z" transform="translate(-74.55 -142.16)"/><path class="cls-3" d="M95.51,186.93v-4.57a2.14,2.14,0,0,0-.57-1.61,2.18,2.18,0,0,0-1.56-.54h-.25a2.18,2.18,0,0,0-1.56.54,2.14,2.14,0,0,0-.57,1.61v4.57a2.11,2.11,0,0,0,.57,1.6,2.18,2.18,0,0,0,1.56.56h.25a2.18,2.18,0,0,0,1.56-.56A2.11,2.11,0,0,0,95.51,186.93Zm-1.08-4.81-2.35,3.44v-3.44a.9.9,0,0,1,.29-.68,1.05,1.05,0,0,1,.76-.28h.25a1.05,1.05,0,0,1,.76.28A.94.94,0,0,1,94.43,182.12Zm-2.35,5,2.35-3.42v3.42a.94.94,0,0,1-.29.68,1.05,1.05,0,0,1-.76.28h-.25a1.05,1.05,0,0,1-.76-.28A.9.9,0,0,1,92.08,187.17Z" transform="translate(-74.55 -142.16)"/><path class="cls-3" d="M91.25,213.52v.95h4.12v-.95H94v-7.93h-1.2l-1.67.63v1l1.79-.66v6.93Z" transform="translate(-74.55 -142.16)"/><path class="cls-3" d="M95.51,199.51V195a1.95,1.95,0,0,0-2.13-2.16h-.25A1.95,1.95,0,0,0,91,195v4.56a2.15,2.15,0,0,0,.57,1.61,2.21,2.21,0,0,0,1.56.55h.25a2.21,2.21,0,0,0,1.56-.55A2.15,2.15,0,0,0,95.51,199.51Zm-1.08-4.81-2.35,3.44V194.7a.88.88,0,0,1,.29-.67,1.06,1.06,0,0,1,.76-.29h.25a1.06,1.06,0,0,1,.76.29A.92.92,0,0,1,94.43,194.7Zm-2.35,5.05,2.35-3.42v3.42a.94.94,0,0,1-.29.68,1.06,1.06,0,0,1-.76.29h-.25a1.06,1.06,0,0,1-.76-.29A.9.9,0,0,1,92.08,199.75Z" transform="translate(-74.55 -142.16)"/><path class="cls-3" d="M91.25,226.19v.95h4.12v-.95H94v-7.93h-1.2l-1.67.64v1l1.79-.66v6.92Z" transform="translate(-74.55 -142.16)"/><path class="cls-4" d="M83.17,161.51v.91h3.94v-.91H85.79v-7.58H84.64l-1.59.61v1l1.71-.63v6.62Z" transform="translate(-74.55 -142.16)"/><path class="cls-4" d="M87.24,172.5v-4.37a1.85,1.85,0,0,0-2-2.06H85a1.85,1.85,0,0,0-2,2.06v4.37a2,2,0,0,0,.55,1.53,2.06,2.06,0,0,0,1.48.53h.25a2.06,2.06,0,0,0,1.48-.53A2,2,0,0,0,87.24,172.5Zm-1-4.6L84,171.19V167.9a.86.86,0,0,1,.28-.65A1,1,0,0,1,85,167h.25a1,1,0,0,1,.72.27A.86.86,0,0,1,86.21,167.9ZM84,172.73l2.25-3.28v3.28a.88.88,0,0,1-.28.65,1,1,0,0,1-.72.27H85a1,1,0,0,1-.72-.27A.88.88,0,0,1,84,172.73Z" transform="translate(-74.55 -142.16)"/><path class="cls-4" d="M83.17,210V211h3.94V210H85.79v-7.58H84.64l-1.59.6v1l1.71-.63V210Z" transform="translate(-74.55 -142.16)"/><path class="cls-4" d="M83.17,234.32v.91h3.94v-.91H85.79v-7.58H84.64l-1.59.61v1l1.71-.63v6.62Z" transform="translate(-74.55 -142.16)"/><path class="cls-4" d="M83.17,198.51v.91h3.94v-.91H85.79v-7.58H84.64l-1.59.61v1l1.71-.63v6.62Z" transform="translate(-74.55 -142.16)"/><path class="cls-4" d="M87.24,184.62v-4.36a2,2,0,0,0-.54-1.54,2.07,2.07,0,0,0-1.49-.53H85a2.07,2.07,0,0,0-1.49.53,2,2,0,0,0-.54,1.54v4.36a2,2,0,0,0,.55,1.54,2.06,2.06,0,0,0,1.48.53h.25a2.06,2.06,0,0,0,1.48-.53A2,2,0,0,0,87.24,184.62Zm-1-4.59L84,183.31V180a.86.86,0,0,1,.28-.65,1,1,0,0,1,.72-.28h.25a1,1,0,0,1,.72.28A.86.86,0,0,1,86.21,180ZM84,184.85l2.25-3.27v3.27a.85.85,0,0,1-.28.65,1,1,0,0,1-.72.28H85a1,1,0,0,1-.72-.28A.85.85,0,0,1,84,184.85Z" transform="translate(-74.55 -142.16)"/><path class="cls-4" d="M83.17,221.74v.91h3.94v-.91H85.79v-7.59H84.64l-1.59.61v1l1.71-.63v6.63Z" transform="translate(-74.55 -142.16)"/><polygon class="cls-5" points="37.09 29.71 37.09 65.64 67.67 96.1 103.22 96.1 37.09 29.71"/><polygon class="cls-5" points="55.99 39.33 95.04 0.17 59.74 0.17 38.49 21.5 55.99 39.33"/><polygon class="cls-5" points="55.99 39.33 95.04 0.17 59.74 0.17 38.49 21.5 55.99 39.33"/><polygon class="cls-6" points="55.99 39.33 95.04 0.17 59.74 0.17 38.49 21.5 55.99 39.33"/><polygon class="cls-6" points="37.09 29.71 37.09 65.64 67.67 96.1 103.22 96.1 37.09 29.71"/><g class="cls-7"><path class="cls-8" d="M121.34,187.36v2.82h7.78v-5.46h-3.2m7.74,5.47h-2m0-2.74h2m0-2.73h-2m-10.32,8.19h12.32m-10.3-9.26v1.07h-6v19.52h18.84v-7.67m-18.84-11.85,3.51-3.51m18,11.71h2.95m0-2.73h-2.95m-13.33,16.67v3.36h18.84v-5.56m-23-6.31h7.5m4.82-2.72H121.34m20.48,5.46h-2.95m0-2.72h2.95m0-2.72h-2.95" transform="translate(-74.55 -142.16)"/></g><g class="cls-7"><polygon class="cls-9" points="51.66 14.49 58.93 14.49 58.92 5.08 54.85 5.08 51.66 8.28 51.66 14.49"/><path class="cls-9" d="M135.63,160.56l-1.48-1.47L125,167h0l4.23,4.24h0l7.88-9.15Z" transform="translate(-74.55 -142.16)"/><path class="cls-9" d="M138,158.24a8.93,8.93,0,1,0-2.61-6.31,8.6,8.6,0,0,0,2.61,6.31Zm1.55-7.81-.6-.32A5.46,5.46,0,0,1,140,148.2l.56.35a1.17,1.17,0,0,0,1.17,0l.89-.51a1.17,1.17,0,0,0,.54-1l0-.68a6.89,6.89,0,0,1,2.22,0l0,.67a1.18,1.18,0,0,0,.55,1l.88.51a1.17,1.17,0,0,0,1.17,0l.56-.36a5.35,5.35,0,0,1,1.12,1.92l-.59.32a1.19,1.19,0,0,0-.63,1v1a1.16,1.16,0,0,0,.63,1l.59.32a5.35,5.35,0,0,1-1.12,1.92l-.56-.36a1.17,1.17,0,0,0-1.17,0l-.88.51a1.16,1.16,0,0,0-.55,1l0,.68a6.89,6.89,0,0,1-2.22,0l0-.67a1.17,1.17,0,0,0-.54-1l-.89-.51a1.17,1.17,0,0,0-1.17,0l-.55.35a5.38,5.38,0,0,1-1.13-1.92l.6-.32a1.17,1.17,0,0,0,.62-1v-1A1.17,1.17,0,0,0,139.52,150.43Z" transform="translate(-74.55 -142.16)"/><path class="cls-9" d="M144.29,154.19a2.25,2.25,0,1,0-1.59-.66A2.17,2.17,0,0,0,144.29,154.19Z" transform="translate(-74.55 -142.16)"/></g><g class="cls-7"><path class="cls-8" d="M148.11,218.7v-5.22H148q-2.4.09-4.2,3.06-.27.47-.54,1l-.18.38a17.48,17.48,0,0,0-1.08,3,12.61,12.61,0,0,0,3,1.07m3.14-8.53h.16a13.46,13.46,0,0,1,6.09,1.44m6.17,6.15H148.14a.83.83,0,0,0-.77.56.69.69,0,0,0,0,.25v10h15.2v-9m-7.21,4.69-1.69,1.69-.55-5.59,4.55,3.28Zm-7-14.16q2.4.09,4.2,3.06.27.47.54,1l.18.38c.12.26.24.52.34.79m-18.9,11.84a14.67,14.67,0,0,1-.35-3.23h0a13.3,13.3,0,0,1,3.68-9.4c.12-.13.24-.26.37-.38q.53-.53,1.08-1a13.22,13.22,0,0,1,8.54-3.06m-4.71,19.64q-.66.25-1.29.57a17.67,17.67,0,0,0,1.08,3l.18.38c.18.35.36.68.55,1m-4.35-2.72a13.19,13.19,0,0,1,2.54-1.66,24.81,24.81,0,0,1-.76-6.38h-6.91m7.67-6.37a24.67,24.67,0,0,0-.76,6.37H145m-7-9.4c.12.13.24.26.37.38q.53.53,1.08,1a13.68,13.68,0,0,0,2.54,1.66m10.37,17.37.08-.13.06-.11c.19-.3.37-.63.55-1l.18-.38c.12-.24.22-.49.33-.74m5.39,0c-.21.25-.43.5-.65.74l-.37.38a14.06,14.06,0,0,1-1.08,1l-.16.13m-9.32-6.28h-2v.25a1.32,1.32,0,0,0,.41,1l.05.05a1.29,1.29,0,0,0,.92.35h16.48a1.37,1.37,0,0,0,1.37-1.37v-.25h-2M148.11,236v2.15" transform="translate(-74.55 -142.16)"/></g></g></g></svg>