<svg xmlns="http://www.w3.org/2000/svg" viewBox="0 0 249.28 96.65"><defs><style>.cls-1{isolation:isolate;}.cls-2,.cls-3,.cls-4,.cls-6{fill:#010101;}.cls-2,.cls-3,.cls-4,.cls-5{mix-blend-mode:multiply;}.cls-3{opacity:0.7;}.cls-4{opacity:0.5;}.cls-5{fill:#afdedc;}.cls-7{opacity:0.25;}.cls-8,.cls-9{fill:none;stroke:#fff;stroke-linecap:round;stroke-linejoin:round;}.cls-8{fill-rule:evenodd;}</style></defs><g class="cls-1"><g id="Layer_1" data-name="Layer 1"><path class="cls-2" d="M74.82,294.74v1h4.31v-1H77.69v-8.3H76.43l-1.74.67v1.07l1.87-.69v7.25Z" transform="translate(-74.55 -286.31)"/><path class="cls-2" d="M79.28,306.76V302a2.22,2.22,0,0,0-.6-1.69,2.26,2.26,0,0,0-1.63-.57h-.27a2.26,2.26,0,0,0-1.63.57,2.22,2.22,0,0,0-.6,1.69v4.78a2.21,2.21,0,0,0,.61,1.68,2.26,2.26,0,0,0,1.62.58h.27a2.3,2.3,0,0,0,1.63-.58A2.24,2.24,0,0,0,79.28,306.76Zm-1.13-5-2.47,3.59v-3.59A1,1,0,0,1,76,301a1.13,1.13,0,0,1,.79-.29h.27a1.13,1.13,0,0,1,.79.29A1,1,0,0,1,78.15,301.73ZM75.68,307l2.47-3.58V307a.93.93,0,0,1-.31.71,1.09,1.09,0,0,1-.79.3h-.27a1.09,1.09,0,0,1-.79-.3A1,1,0,0,1,75.68,307Z" transform="translate(-74.55 -286.31)"/><path class="cls-2" d="M79.28,320v-4.78a2.22,2.22,0,0,0-.6-1.69,2.26,2.26,0,0,0-1.63-.57h-.27a2.26,2.26,0,0,0-1.63.57,2.22,2.22,0,0,0-.6,1.69V320a2.21,2.21,0,0,0,.61,1.68,2.26,2.26,0,0,0,1.62.58h.27a2.3,2.3,0,0,0,1.63-.58A2.24,2.24,0,0,0,79.28,320Zm-1.13-5-2.47,3.59V315a1,1,0,0,1,.31-.72,1.13,1.13,0,0,1,.79-.29h.27a1.13,1.13,0,0,1,.79.29A1,1,0,0,1,78.15,315Zm-2.47,5.28,2.47-3.58v3.58a.93.93,0,0,1-.31.71,1.09,1.09,0,0,1-.79.3h-.27A1.09,1.09,0,0,1,76,321,1,1,0,0,1,75.68,320.29Z" transform="translate(-74.55 -286.31)"/><path class="cls-2" d="M74.82,334.58v1h4.31v-1H77.69v-8.3H76.43l-1.74.67V328l1.87-.69v7.25Z" transform="translate(-74.55 -286.31)"/><path class="cls-2" d="M79.28,346.61v-4.78a2.22,2.22,0,0,0-.6-1.69,2.26,2.26,0,0,0-1.63-.57h-.27a2.26,2.26,0,0,0-1.63.57,2.22,2.22,0,0,0-.6,1.69v4.78a2.21,2.21,0,0,0,.61,1.68,2.26,2.26,0,0,0,1.62.57h.27a2.3,2.3,0,0,0,1.63-.57A2.24,2.24,0,0,0,79.28,346.61Zm-1.13-5-2.47,3.6v-3.6a1,1,0,0,1,.31-.71,1.09,1.09,0,0,1,.79-.3h.27a1.09,1.09,0,0,1,.79.3A1,1,0,0,1,78.15,341.57Zm-2.47,5.29,2.47-3.59v3.59a1,1,0,0,1-.31.71,1.09,1.09,0,0,1-.79.3h-.27a1.09,1.09,0,0,1-.79-.3A1,1,0,0,1,75.68,346.86Z" transform="translate(-74.55 -286.31)"/><path class="cls-2" d="M74.82,361.15v1h4.32v-1H77.69v-8.3H76.43l-1.74.67v1.07l1.87-.69v7.25Z" transform="translate(-74.55 -286.31)"/><path class="cls-2" d="M74.82,374.44v1h4.32v-1H77.69v-8.3H76.43l-1.74.66v1.08l1.87-.69v7.25Z" transform="translate(-74.55 -286.31)"/><path class="cls-2" d="M99.33,301.67v1h4.31v-1h-1.45v-8.3h-1.26l-1.74.67v1.07l1.88-.69v7.25Z" transform="translate(-74.55 -286.31)"/><path class="cls-2" d="M103.79,313.69v-4.78a2.23,2.23,0,0,0-.6-1.69,2.26,2.26,0,0,0-1.63-.57h-.27a2.26,2.26,0,0,0-1.63.57,2.23,2.23,0,0,0-.6,1.69v4.78a2.21,2.21,0,0,0,.6,1.68,2.26,2.26,0,0,0,1.63.58h.27a2.22,2.22,0,0,0,1.62-.58A2.18,2.18,0,0,0,103.79,313.69Zm-1.13-5-2.47,3.6v-3.6a.93.93,0,0,1,.31-.71,1.09,1.09,0,0,1,.79-.3h.27a1.09,1.09,0,0,1,.79.3A1,1,0,0,1,102.66,308.66Zm-2.47,5.28,2.47-3.58v3.58a1,1,0,0,1-.31.71,1.09,1.09,0,0,1-.79.3h-.27a1.09,1.09,0,0,1-.79-.3A.93.93,0,0,1,100.19,313.94Z" transform="translate(-74.55 -286.31)"/><path class="cls-2" d="M103.79,327v-4.78a2.23,2.23,0,0,0-.6-1.69,2.26,2.26,0,0,0-1.63-.57h-.27a2.26,2.26,0,0,0-1.63.57,2.23,2.23,0,0,0-.6,1.69V327a2.21,2.21,0,0,0,.6,1.68,2.26,2.26,0,0,0,1.63.58h.27a2.22,2.22,0,0,0,1.62-.58A2.18,2.18,0,0,0,103.79,327Zm-1.13-5-2.47,3.6v-3.6a.93.93,0,0,1,.31-.71,1.09,1.09,0,0,1,.79-.3h.27a1.09,1.09,0,0,1,.79.3A1,1,0,0,1,102.66,321.94Zm-2.47,5.28,2.47-3.58v3.58a1,1,0,0,1-.31.71,1.09,1.09,0,0,1-.79.3h-.27a1.09,1.09,0,0,1-.79-.3A.93.93,0,0,1,100.19,327.22Z" transform="translate(-74.55 -286.31)"/><path class="cls-2" d="M99.33,341.52v1h4.31v-1h-1.45v-8.3h-1.26l-1.74.66V335l1.88-.69v7.26Z" transform="translate(-74.55 -286.31)"/><path class="cls-2" d="M103.79,353.54v-4.78a2.22,2.22,0,0,0-.6-1.69,2.26,2.26,0,0,0-1.63-.57h-.27a2.26,2.26,0,0,0-1.63.57,2.22,2.22,0,0,0-.6,1.69v4.78a2.24,2.24,0,0,0,.6,1.68,2.3,2.3,0,0,0,1.63.58h.27a2.26,2.26,0,0,0,1.62-.58A2.21,2.21,0,0,0,103.79,353.54Zm-1.13-5-2.47,3.6v-3.6a1,1,0,0,1,.31-.71,1.13,1.13,0,0,1,.79-.29h.27a1.13,1.13,0,0,1,.79.29A1,1,0,0,1,102.66,348.5Zm-2.47,5.29,2.47-3.58v3.58a1,1,0,0,1-.31.71,1.09,1.09,0,0,1-.79.3h-.27a1.09,1.09,0,0,1-.79-.3A.93.93,0,0,1,100.19,353.79Z" transform="translate(-74.55 -286.31)"/><path class="cls-2" d="M103.79,366.82V362a2.21,2.21,0,0,0-.6-1.68,2.26,2.26,0,0,0-1.63-.57h-.27a2.26,2.26,0,0,0-1.63.57,2.21,2.21,0,0,0-.6,1.68v4.78a2.21,2.21,0,0,0,.6,1.68,2.26,2.26,0,0,0,1.63.58h.27a2.22,2.22,0,0,0,1.62-.58A2.18,2.18,0,0,0,103.79,366.82Zm-1.13-5-2.47,3.6v-3.6a1,1,0,0,1,.31-.71,1.09,1.09,0,0,1,.79-.3h.27a1.09,1.09,0,0,1,.79.3A1,1,0,0,1,102.66,361.79Zm-2.47,5.29,2.47-3.59v3.59a1,1,0,0,1-.31.71,1.09,1.09,0,0,1-.79.3h-.27a1.09,1.09,0,0,1-.79-.3A1,1,0,0,1,100.19,367.08Z" transform="translate(-74.55 -286.31)"/><path class="cls-2" d="M103.79,380.11v-4.78a2.22,2.22,0,0,0-.6-1.69,2.26,2.26,0,0,0-1.63-.57h-.27a2.26,2.26,0,0,0-1.63.57,2.22,2.22,0,0,0-.6,1.69v4.78a2.24,2.24,0,0,0,.6,1.68,2.3,2.3,0,0,0,1.63.58h.27a2.26,2.26,0,0,0,1.62-.58A2.21,2.21,0,0,0,103.79,380.11Zm-1.13-5-2.47,3.59v-3.59a1,1,0,0,1,.31-.72,1.13,1.13,0,0,1,.79-.29h.27a1.13,1.13,0,0,1,.79.29A1,1,0,0,1,102.66,375.08Zm-2.47,5.28,2.47-3.58v3.58a1,1,0,0,1-.31.71,1.09,1.09,0,0,1-.79.3h-.27a1.09,1.09,0,0,1-.79-.3A.93.93,0,0,1,100.19,380.36Z" transform="translate(-74.55 -286.31)"/><path class="cls-3" d="M91.25,294.24v.95h4.12v-.95H94v-7.93h-1.2l-1.67.63v1l1.79-.66v6.93Z" transform="translate(-74.55 -286.31)"/><path class="cls-3" d="M95.51,305.72v-4.57a2.14,2.14,0,0,0-.57-1.61,2.18,2.18,0,0,0-1.56-.54h-.25a2.18,2.18,0,0,0-1.56.54,2.14,2.14,0,0,0-.57,1.61v4.57a2.13,2.13,0,0,0,.57,1.6,2.17,2.17,0,0,0,1.56.55h.25a2.17,2.17,0,0,0,1.56-.55A2.13,2.13,0,0,0,95.51,305.72Zm-1.08-4.81-2.35,3.44v-3.44a.9.9,0,0,1,.29-.68,1.05,1.05,0,0,1,.76-.28h.25a1.05,1.05,0,0,1,.76.28A.94.94,0,0,1,94.43,300.91Zm-2.35,5,2.35-3.43V306a.94.94,0,0,1-.29.68,1.05,1.05,0,0,1-.76.28h-.25a1.05,1.05,0,0,1-.76-.28A.9.9,0,0,1,92.08,306Z" transform="translate(-74.55 -286.31)"/><path class="cls-3" d="M91.25,319.6v.95h4.12v-.95H94v-7.92h-1.2l-1.67.63v1l1.79-.66v6.92Z" transform="translate(-74.55 -286.31)"/><path class="cls-3" d="M95.51,331.08v-4.57a2.14,2.14,0,0,0-.57-1.61,2.18,2.18,0,0,0-1.56-.54h-.25a2.18,2.18,0,0,0-1.56.54,2.14,2.14,0,0,0-.57,1.61v4.57a2.11,2.11,0,0,0,.57,1.6,2.17,2.17,0,0,0,1.56.55h.25a2.17,2.17,0,0,0,1.56-.55A2.11,2.11,0,0,0,95.51,331.08Zm-1.08-4.81-2.35,3.44v-3.44a.9.9,0,0,1,.29-.68,1.05,1.05,0,0,1,.76-.28h.25a1.05,1.05,0,0,1,.76.28A.94.94,0,0,1,94.43,326.27Zm-2.35,5.05,2.35-3.42v3.42a.94.94,0,0,1-.29.68,1.05,1.05,0,0,1-.76.28h-.25a1.05,1.05,0,0,1-.76-.28A.9.9,0,0,1,92.08,331.32Z" transform="translate(-74.55 -286.31)"/><path class="cls-3" d="M91.25,357.66v1h4.12v-1H94v-7.92h-1.2l-1.67.63v1l1.79-.66v6.92Z" transform="translate(-74.55 -286.31)"/><path class="cls-3" d="M95.51,343.66V339.1a2.15,2.15,0,0,0-.57-1.62,2.18,2.18,0,0,0-1.56-.54h-.25a2.18,2.18,0,0,0-1.56.54A2.15,2.15,0,0,0,91,339.1v4.56a2.11,2.11,0,0,0,.57,1.6,2.18,2.18,0,0,0,1.56.56h.25a2.18,2.18,0,0,0,1.56-.56A2.11,2.11,0,0,0,95.51,343.66Zm-1.08-4.81-2.35,3.44v-3.44a.88.88,0,0,1,.29-.67,1.06,1.06,0,0,1,.76-.29h.25a1.06,1.06,0,0,1,.76.29A.92.92,0,0,1,94.43,338.85Zm-2.35,5,2.35-3.42v3.42a.94.94,0,0,1-.29.68,1.06,1.06,0,0,1-.76.29h-.25a1.06,1.06,0,0,1-.76-.29A.9.9,0,0,1,92.08,343.9Z" transform="translate(-74.55 -286.31)"/><path class="cls-3" d="M91.25,370.34v1h4.12v-1H94v-7.93h-1.2l-1.67.64v1l1.79-.66v6.93Z" transform="translate(-74.55 -286.31)"/><path class="cls-4" d="M83.17,305.66v.91h3.94v-.91H85.79v-7.58H84.64l-1.59.61v1l1.71-.63v6.62Z" transform="translate(-74.55 -286.31)"/><path class="cls-4" d="M87.24,316.64v-4.36a2,2,0,0,0-.54-1.54,2.07,2.07,0,0,0-1.49-.52H85a2.07,2.07,0,0,0-1.49.52,2,2,0,0,0-.54,1.54v4.36a2,2,0,0,0,.55,1.54,2.06,2.06,0,0,0,1.48.53h.25a2.06,2.06,0,0,0,1.48-.53A2,2,0,0,0,87.24,316.64Zm-1-4.59L84,315.33v-3.28a.86.86,0,0,1,.28-.65,1,1,0,0,1,.72-.27h.25a1,1,0,0,1,.72.27A.86.86,0,0,1,86.21,312.05ZM84,316.88l2.25-3.28v3.28a.84.84,0,0,1-.28.64,1,1,0,0,1-.72.28H85a1,1,0,0,1-.72-.28A.84.84,0,0,1,84,316.88Z" transform="translate(-74.55 -286.31)"/><path class="cls-4" d="M83.17,354.19v.91h3.94v-.91H85.79v-7.58H84.64l-1.59.6v1l1.71-.64v6.63Z" transform="translate(-74.55 -286.31)"/><path class="cls-4" d="M83.17,378.47v.91h3.94v-.91H85.79v-7.58H84.64l-1.59.61v1l1.71-.63v6.62Z" transform="translate(-74.55 -286.31)"/><path class="cls-4" d="M83.17,342.66v.91h3.94v-.91H85.79v-7.58H84.64l-1.59.61v1l1.71-.63v6.62Z" transform="translate(-74.55 -286.31)"/><path class="cls-4" d="M87.24,328.77v-4.36a2,2,0,0,0-.54-1.54,2.07,2.07,0,0,0-1.49-.53H85a2.07,2.07,0,0,0-1.49.53,2,2,0,0,0-.54,1.54v4.36a2,2,0,0,0,.55,1.54,2.06,2.06,0,0,0,1.48.53h.25a2.06,2.06,0,0,0,1.48-.53A2,2,0,0,0,87.24,328.77Zm-1-4.59L84,327.46v-3.28a.85.85,0,0,1,.28-.65,1,1,0,0,1,.72-.28h.25a1,1,0,0,1,.72.28A.85.85,0,0,1,86.21,324.18ZM84,329l2.25-3.27V329a.86.86,0,0,1-.28.65,1,1,0,0,1-.72.28H85a1,1,0,0,1-.72-.28A.86.86,0,0,1,84,329Z" transform="translate(-74.55 -286.31)"/><path class="cls-4" d="M83.17,365.89v.91h3.94v-.91H85.79V358.3H84.64l-1.59.61v1l1.71-.63v6.63Z" transform="translate(-74.55 -286.31)"/><polygon class="cls-5" points="37.09 29.71 37.09 65.64 67.67 96.1 103.22 96.1 37.09 29.71"/><polygon class="cls-5" points="55.99 39.33 95.04 0.17 59.74 0.17 38.49 21.5 55.99 39.33"/><polygon class="cls-5" points="55.99 39.33 95.04 0.17 59.74 0.17 38.49 21.5 55.99 39.33"/><polygon class="cls-6" points="55.99 39.33 95.04 0.17 59.74 0.17 38.49 21.5 55.99 39.33"/><polygon class="cls-6" points="37.09 29.71 37.09 65.64 67.67 96.1 103.22 96.1 37.09 29.71"/><g class="cls-7"><path class="cls-8" d="M121.34,331.51v2.82h7.78v-5.46h-3.2m7.74,5.46h-2m0-2.73h2m0-2.73h-2m-10.32,8.19h12.32m-10.3-9.26v1.07h-6v19.51h18.84v-7.67m-18.84-11.84,3.51-3.51m18,11.71h2.95m0-2.74h-2.95M125.54,351v3.35h18.84v-5.55m-23-6.31h7.5m4.82-2.72H121.34m20.48,5.46h-2.95m0-2.72h2.95m0-2.72h-2.95" transform="translate(-74.55 -286.31)"/></g><g class="cls-7"><polygon class="cls-9" points="51.66 14.49 58.93 14.49 58.92 5.08 54.85 5.08 51.66 8.28 51.66 14.49"/><path class="cls-9" d="M135.63,304.71l-1.48-1.47L125,311.11h0l4.23,4.23h0l7.88-9.15Z" transform="translate(-74.55 -286.31)"/><path class="cls-9" d="M138,302.39a8.93,8.93,0,1,0-2.61-6.31,8.6,8.6,0,0,0,2.61,6.31Zm1.55-7.81-.6-.32a5.46,5.46,0,0,1,1.12-1.91l.56.35a1.15,1.15,0,0,0,1.17,0l.89-.5a1.17,1.17,0,0,0,.54-1l0-.68a6.21,6.21,0,0,1,2.22,0l0,.67a1.18,1.18,0,0,0,.55,1l.88.51a1.17,1.17,0,0,0,1.17,0l.56-.36a5.35,5.35,0,0,1,1.12,1.92l-.59.32a1.16,1.16,0,0,0-.63,1v1a1.19,1.19,0,0,0,.63,1l.59.32a5.23,5.23,0,0,1-1.12,1.91l-.56-.35a1.17,1.17,0,0,0-1.17,0l-.88.51a1.16,1.16,0,0,0-.55,1l0,.68a6.89,6.89,0,0,1-2.22,0l0-.67a1.17,1.17,0,0,0-.54-1l-.89-.51a1.17,1.17,0,0,0-1.17.05l-.55.34a5.43,5.43,0,0,1-1.13-1.91l.6-.32a1.2,1.2,0,0,0,.62-1v-1A1.17,1.17,0,0,0,139.52,294.58Z" transform="translate(-74.55 -286.31)"/><path class="cls-9" d="M144.29,298.34a2.25,2.25,0,1,0-1.59-.66A2.17,2.17,0,0,0,144.29,298.34Z" transform="translate(-74.55 -286.31)"/></g><g class="cls-7"><path class="cls-8" d="M148.11,362.85v-5.23H148q-2.4.11-4.2,3.07-.27.46-.54,1l-.18.38a17.67,17.67,0,0,0-1.08,3,12.64,12.64,0,0,0,3,1.08m3.14-8.54h.16a13.6,13.6,0,0,1,6.09,1.45m6.17,6.15H148.14a.83.83,0,0,0-.77.56.69.69,0,0,0,0,.25v10h15.2v-9m-7.21,4.69-1.69,1.69-.55-5.59,4.55,3.28Zm-7-14.17q2.4.11,4.2,3.07.27.46.54,1l.18.38c.12.26.24.52.34.79m-18.9,11.84a14.74,14.74,0,0,1-.35-3.23h0a13.28,13.28,0,0,1,3.68-9.39c.12-.13.24-.26.37-.38q.53-.53,1.08-1a13.28,13.28,0,0,1,8.54-3.07m-4.71,19.65a12.33,12.33,0,0,0-1.29.57,17.67,17.67,0,0,0,1.08,3l.18.38c.18.35.36.68.55,1m-4.35-2.73a13.14,13.14,0,0,1,2.54-1.65,24.86,24.86,0,0,1-.76-6.38h-6.91m7.67-6.38a24.78,24.78,0,0,0-.76,6.37H145m-7-9.4c.12.13.24.26.37.38q.53.53,1.08,1a13.14,13.14,0,0,0,2.54,1.65m10.37,17.38.08-.13.06-.11c.19-.3.37-.63.55-1l.18-.38c.12-.24.22-.49.33-.74m5.39,0c-.21.25-.43.5-.65.74l-.37.38a14.06,14.06,0,0,1-1.08,1l-.16.13m-9.32-6.28h-2v.24a1.34,1.34,0,0,0,.41,1l.05,0a1.29,1.29,0,0,0,.92.35h16.48a1.31,1.31,0,0,0,1-.4,1.34,1.34,0,0,0,.4-1v-.24h-2m-14.42,4.05v2.15" transform="translate(-74.55 -286.31)"/></g><path class="cls-6" d="M204.93,328.53a26.82,26.82,0,1,1-26.74,26.89A26.77,26.77,0,0,1,204.93,328.53Zm0,46.19a19.37,19.37,0,1,0-19.29-19.3A19.37,19.37,0,0,0,204.93,374.72Z" transform="translate(-74.55 -286.31)"/><path class="cls-6" d="M239.05,373.9c.67-1,1.27-2.09,1.94-3.06a1.67,1.67,0,0,1,2.53-.59c.45.37,6.18,5.14,11.92,5.14,5.14,0,8.42-3.13,8.42-6.93,0-4.47-3.88-7.3-11.25-10.36-7.6-3.2-13.56-7.15-13.56-15.79,0-5.81,4.47-13.78,16.31-13.78a25.24,25.24,0,0,1,13.78,4.39,1.77,1.77,0,0,1,.45,2.54c-.59.89-1.26,1.93-1.86,2.83a1.76,1.76,0,0,1-2.61.74c-.52-.29-5.73-3.72-10.05-3.72-6.26,0-8.42,3.95-8.42,6.7,0,4.25,3.28,6.86,9.46,9.39,8.64,3.5,16,7.6,16,16.69,0,7.74-6.92,14.07-16.61,14.07a24.08,24.08,0,0,1-16-5.88C238.83,375.68,238.3,375.16,239.05,373.9Z" transform="translate(-74.55 -286.31)"/><path class="cls-6" d="M281.07,330.69a1.47,1.47,0,0,1,1.42-1.42h4.91a1.43,1.43,0,0,1,1.42,1.42v20.78h27.26V330.69a1.43,1.43,0,0,1,1.42-1.42h4.91a1.47,1.47,0,0,1,1.42,1.42V380a1.47,1.47,0,0,1-1.42,1.42H317.5a1.42,1.42,0,0,1-1.42-1.42V358.48H288.82V380a1.42,1.42,0,0,1-1.42,1.42h-4.91a1.47,1.47,0,0,1-1.42-1.42Z" transform="translate(-74.55 -286.31)"/><path class="cls-6" d="M299.28,375.29l-.89.43c-.11,0-.22,0-.25-.08l-.14-.39a.2.2,0,0,1,0-.22l1.59-1.45h.54a.21.21,0,0,1,.21.22V381a.21.21,0,0,1-.21.21h-.68a.21.21,0,0,1-.21-.21Z" transform="translate(-74.55 -286.31)"/><path class="cls-6" d="M302.76,379.75a.78.78,0,1,1-.77.78A.77.77,0,0,1,302.76,379.75Z" transform="translate(-74.55 -286.31)"/><path class="cls-6" d="M304.63,377.39c0-2.45,1-3.92,2.77-3.92s2.76,1.47,2.76,3.92-1,3.91-2.76,3.91S304.63,379.84,304.63,377.39Zm4.41,0c0-1.84-.6-2.89-1.64-2.89s-1.64,1.05-1.64,2.89.59,2.89,1.64,2.89S309,379.24,309,377.39Z" transform="translate(-74.55 -286.31)"/></g></g></svg>