<svg xmlns="http://www.w3.org/2000/svg" viewBox="0 0 249.28 96.1"><defs><style>.cls-1{isolation:isolate;}.cls-2,.cls-3,.cls-4,.cls-6{fill:#010101;}.cls-2,.cls-3,.cls-4,.cls-5{mix-blend-mode:multiply;}.cls-3{opacity:0.7;}.cls-4{opacity:0.5;}.cls-5{fill:#afdedc;}</style></defs><g class="cls-1"><g id="Layer_1" data-name="Layer 1"><path class="cls-2" d="M467.12,294.8v1h4.32v-1H470v-8.3h-1.26l-1.74.66v1.08l1.87-.69v7.25Z" transform="translate(-466.86 -286.36)"/><path class="cls-2" d="M471.58,306.81V302a2,2,0,0,0-2.23-2.26h-.26a2.25,2.25,0,0,0-1.64.58,2.21,2.21,0,0,0-.59,1.68v4.78a2,2,0,0,0,2.23,2.26h.26a2.24,2.24,0,0,0,1.63-.58A2.21,2.21,0,0,0,471.58,306.81Zm-1.13-5-2.47,3.6v-3.6a1,1,0,0,1,.32-.71,1.08,1.08,0,0,1,.79-.3h.26a1.09,1.09,0,0,1,.79.3A1,1,0,0,1,470.45,301.78ZM468,307.07l2.47-3.59v3.59a1,1,0,0,1-.31.71,1.13,1.13,0,0,1-.79.29h-.26a1.11,1.11,0,0,1-.79-.29A1,1,0,0,1,468,307.07Z" transform="translate(-466.86 -286.36)"/><path class="cls-2" d="M471.58,320.09v-4.78a2,2,0,0,0-2.23-2.26h-.26a2.29,2.29,0,0,0-1.64.57,2.25,2.25,0,0,0-.59,1.69v4.78a2,2,0,0,0,2.23,2.26h.26a2.24,2.24,0,0,0,1.63-.58A2.21,2.21,0,0,0,471.58,320.09Zm-1.13-5-2.47,3.6v-3.6a.94.94,0,0,1,.32-.71,1.08,1.08,0,0,1,.79-.3h.26a1.09,1.09,0,0,1,.79.3A.93.93,0,0,1,470.45,315.06ZM468,320.35l2.47-3.59v3.59a1,1,0,0,1-.31.71,1.13,1.13,0,0,1-.79.29h-.26a1.11,1.11,0,0,1-.79-.29A1,1,0,0,1,468,320.35Z" transform="translate(-466.86 -286.36)"/><path class="cls-2" d="M467.12,334.64v1h4.32v-1H470v-8.3h-1.26L467,327v1.08l1.87-.69v7.25Z" transform="translate(-466.86 -286.36)"/><path class="cls-2" d="M471.58,346.66v-4.78a2,2,0,0,0-2.23-2.26h-.26a2.29,2.29,0,0,0-1.64.57,2.23,2.23,0,0,0-.59,1.69v4.78a2,2,0,0,0,2.23,2.26h.26a2.24,2.24,0,0,0,1.63-.58A2.21,2.21,0,0,0,471.58,346.66Zm-1.13-5-2.47,3.6v-3.6a.94.94,0,0,1,.32-.71,1.08,1.08,0,0,1,.79-.3h.26a1.09,1.09,0,0,1,.79.3A.93.93,0,0,1,470.45,341.63ZM468,346.91l2.47-3.58v3.58a.93.93,0,0,1-.31.71,1.09,1.09,0,0,1-.79.3h-.26a1.08,1.08,0,0,1-.79-.3A.94.94,0,0,1,468,346.91Z" transform="translate(-466.86 -286.36)"/><path class="cls-2" d="M467.13,361.21v1h4.31v-1H470v-8.3h-1.27l-1.74.66v1.08l1.88-.69v7.25Z" transform="translate(-466.86 -286.36)"/><path class="cls-2" d="M467.13,374.49v1h4.31v-1H470v-8.3h-1.27l-1.74.67v1.07l1.88-.69v7.25Z" transform="translate(-466.86 -286.36)"/><path class="cls-2" d="M491.63,301.73v1h4.31v-1H494.5v-8.3h-1.26l-1.74.66v1.08l1.87-.69v7.25Z" transform="translate(-466.86 -286.36)"/><path class="cls-2" d="M496.09,313.74V309a2.21,2.21,0,0,0-.6-1.68,2.26,2.26,0,0,0-1.63-.57h-.27a2.26,2.26,0,0,0-1.63.57,2.21,2.21,0,0,0-.6,1.68v4.78a2.18,2.18,0,0,0,.61,1.68,2.22,2.22,0,0,0,1.62.58h.27a2.26,2.26,0,0,0,1.63-.58A2.21,2.21,0,0,0,496.09,313.74Zm-1.13-5-2.47,3.6v-3.6a1,1,0,0,1,.31-.71,1.11,1.11,0,0,1,.79-.3h.27a1.09,1.09,0,0,1,.79.3A1,1,0,0,1,495,308.71ZM492.49,314l2.47-3.59V314a1,1,0,0,1-.31.71,1.09,1.09,0,0,1-.79.3h-.27a1.11,1.11,0,0,1-.79-.3A1,1,0,0,1,492.49,314Z" transform="translate(-466.86 -286.36)"/><path class="cls-2" d="M496.09,327v-4.78a2.21,2.21,0,0,0-.6-1.68,2.26,2.26,0,0,0-1.63-.57h-.27a2.26,2.26,0,0,0-1.63.57,2.21,2.21,0,0,0-.6,1.68V327a2.18,2.18,0,0,0,.61,1.68,2.22,2.22,0,0,0,1.62.58h.27a2.26,2.26,0,0,0,1.63-.58A2.21,2.21,0,0,0,496.09,327ZM495,322l-2.47,3.6V322a1,1,0,0,1,.31-.71,1.11,1.11,0,0,1,.79-.3h.27a1.09,1.09,0,0,1,.79.3A1,1,0,0,1,495,322Zm-2.47,5.29,2.47-3.59v3.59a1,1,0,0,1-.31.71,1.09,1.09,0,0,1-.79.3h-.27a1.11,1.11,0,0,1-.79-.3A1,1,0,0,1,492.49,327.28Z" transform="translate(-466.86 -286.36)"/><path class="cls-2" d="M491.63,341.57v1h4.31v-1H494.5v-8.3h-1.26l-1.74.66V335l1.87-.69v7.25Z" transform="translate(-466.86 -286.36)"/><path class="cls-2" d="M496.09,353.59v-4.78a2,2,0,0,0-2.23-2.26h-.27a2,2,0,0,0-2.23,2.26v4.78a2.18,2.18,0,0,0,.61,1.68,2.22,2.22,0,0,0,1.62.58h.27a2.26,2.26,0,0,0,1.63-.58A2.21,2.21,0,0,0,496.09,353.59Zm-1.13-5-2.47,3.6v-3.6a1,1,0,0,1,.31-.71,1.11,1.11,0,0,1,.79-.3h.27a1.09,1.09,0,0,1,.79.3A.93.93,0,0,1,495,348.56Zm-2.47,5.28,2.47-3.58v3.58a1,1,0,0,1-.31.72,1.13,1.13,0,0,1-.79.29h-.27a1.15,1.15,0,0,1-.79-.29A1,1,0,0,1,492.49,353.84Z" transform="translate(-466.86 -286.36)"/><path class="cls-2" d="M496.09,366.88V362.1a2.22,2.22,0,0,0-.6-1.69,2.26,2.26,0,0,0-1.63-.57h-.27a2.26,2.26,0,0,0-1.63.57,2.22,2.22,0,0,0-.6,1.69v4.78a2.21,2.21,0,0,0,.61,1.68,2.26,2.26,0,0,0,1.62.58h.27a2.3,2.3,0,0,0,1.63-.58A2.24,2.24,0,0,0,496.09,366.88Zm-1.13-5-2.47,3.59v-3.59a1,1,0,0,1,.31-.72,1.15,1.15,0,0,1,.79-.29h.27a1.13,1.13,0,0,1,.79.29A1,1,0,0,1,495,361.85Zm-2.47,5.28,2.47-3.58v3.58a.93.93,0,0,1-.31.71,1.09,1.09,0,0,1-.79.3h-.27a1.11,1.11,0,0,1-.79-.3A1,1,0,0,1,492.49,367.13Z" transform="translate(-466.86 -286.36)"/><path class="cls-2" d="M496.09,380.16v-4.78a2,2,0,0,0-2.23-2.26h-.27a2,2,0,0,0-2.23,2.26v4.78a2.18,2.18,0,0,0,.61,1.68,2.22,2.22,0,0,0,1.62.58h.27a2.26,2.26,0,0,0,1.63-.58A2.21,2.21,0,0,0,496.09,380.16Zm-1.13-5-2.47,3.6v-3.6a1,1,0,0,1,.31-.71,1.11,1.11,0,0,1,.79-.3h.27a1.09,1.09,0,0,1,.79.3A1,1,0,0,1,495,375.13Zm-2.47,5.29,2.47-3.59v3.59a1,1,0,0,1-.31.71,1.13,1.13,0,0,1-.79.29h-.27a1.15,1.15,0,0,1-.79-.29A1,1,0,0,1,492.49,380.42Z" transform="translate(-466.86 -286.36)"/><path class="cls-3" d="M483.55,294.29v.95h4.13v-.95h-1.39v-7.93h-1.2l-1.66.64v1l1.79-.65v6.92Z" transform="translate(-466.86 -286.36)"/><path class="cls-3" d="M487.81,305.77v-4.56a1.95,1.95,0,0,0-2.13-2.16h-.25a1.95,1.95,0,0,0-2.13,2.16v4.56a2.12,2.12,0,0,0,.58,1.61,2.17,2.17,0,0,0,1.55.55h.25a2.2,2.2,0,0,0,1.56-.55A2.15,2.15,0,0,0,487.81,305.77Zm-1.07-4.8-2.36,3.43V301a.9.9,0,0,1,.3-.68,1,1,0,0,1,.75-.29h.25a1.06,1.06,0,0,1,.76.29A.9.9,0,0,1,486.74,301Zm-2.36,5,2.36-3.42V306a.9.9,0,0,1-.3.68,1.06,1.06,0,0,1-.76.29h-.25a1,1,0,0,1-.75-.29A.9.9,0,0,1,484.38,306Z" transform="translate(-466.86 -286.36)"/><path class="cls-3" d="M483.55,319.66v.95h4.13v-.95h-1.39v-7.93h-1.2l-1.66.63v1l1.79-.66v6.93Z" transform="translate(-466.86 -286.36)"/><path class="cls-3" d="M487.81,331.13v-4.56a1.95,1.95,0,0,0-2.13-2.16h-.25a1.95,1.95,0,0,0-2.13,2.16v4.56a2.12,2.12,0,0,0,.58,1.61,2.17,2.17,0,0,0,1.55.55h.25a2.2,2.2,0,0,0,1.56-.55A2.15,2.15,0,0,0,487.81,331.13Zm-1.07-4.8-2.36,3.43v-3.43a.9.9,0,0,1,.3-.68,1,1,0,0,1,.75-.29h.25a1.06,1.06,0,0,1,.76.29A.9.9,0,0,1,486.74,326.33Zm-2.36,5,2.36-3.42v3.42a.9.9,0,0,1-.3.68,1.06,1.06,0,0,1-.76.29h-.25a1,1,0,0,1-.75-.29A.9.9,0,0,1,484.38,331.37Z" transform="translate(-466.86 -286.36)"/><path class="cls-3" d="M483.55,357.72v.95h4.13v-.95h-1.39v-7.93h-1.2l-1.66.64v1l1.79-.66v6.93Z" transform="translate(-466.86 -286.36)"/><path class="cls-3" d="M487.81,343.71v-4.56a1.95,1.95,0,0,0-2.13-2.16h-.25a1.95,1.95,0,0,0-2.13,2.16v4.56a2.1,2.1,0,0,0,.58,1.61,2.13,2.13,0,0,0,1.55.55h.25a1.95,1.95,0,0,0,2.13-2.16Zm-1.07-4.8-2.36,3.44v-3.44a.91.91,0,0,1,.3-.68,1,1,0,0,1,.75-.29h.25a1.06,1.06,0,0,1,.76.29A.91.91,0,0,1,486.74,338.91Zm-2.36,5,2.36-3.43V344a.89.89,0,0,1-.3.67,1.06,1.06,0,0,1-.76.29h-.25a1,1,0,0,1-.75-.29A.89.89,0,0,1,484.38,344Z" transform="translate(-466.86 -286.36)"/><path class="cls-3" d="M483.55,370.39v.95h4.13v-.95h-1.39v-7.92h-1.2l-1.66.63v1l1.79-.66v6.92Z" transform="translate(-466.86 -286.36)"/><path class="cls-4" d="M475.47,305.72v.91h3.94v-.91h-1.32v-7.59h-1.15l-1.59.61v1l1.71-.63v6.63Z" transform="translate(-466.86 -286.36)"/><path class="cls-4" d="M479.55,316.7v-4.37a2,2,0,0,0-.55-1.54,2,2,0,0,0-1.49-.52h-.24a2.09,2.09,0,0,0-1.5.52,2,2,0,0,0-.54,1.54v4.37a2,2,0,0,0,.55,1.53,2.07,2.07,0,0,0,1.49.53h.24a2.09,2.09,0,0,0,1.49-.53A2,2,0,0,0,479.55,316.7Zm-1-4.6-2.26,3.29V312.1a.87.87,0,0,1,.29-.65,1,1,0,0,1,.72-.27h.24a1,1,0,0,1,.72.27A.87.87,0,0,1,478.52,312.1Zm-2.26,4.83,2.26-3.28v3.28a.87.87,0,0,1-.29.65,1,1,0,0,1-.72.27h-.24a1,1,0,0,1-.72-.27A.87.87,0,0,1,476.26,316.93Z" transform="translate(-466.86 -286.36)"/><path class="cls-4" d="M475.47,354.24v.91h3.94v-.91h-1.32v-7.58h-1.15l-1.59.61v1l1.71-.63v6.62Z" transform="translate(-466.86 -286.36)"/><path class="cls-4" d="M475.47,378.53v.91h3.94v-.91h-1.32V371h-1.15l-1.59.6v1l1.71-.64v6.63Z" transform="translate(-466.86 -286.36)"/><path class="cls-4" d="M475.47,342.72v.91h3.94v-.91h-1.32v-7.59h-1.15l-1.59.61v1l1.71-.63v6.63Z" transform="translate(-466.86 -286.36)"/><path class="cls-4" d="M479.55,328.83v-4.37a2,2,0,0,0-.55-1.54,2,2,0,0,0-1.49-.52h-.24a2.09,2.09,0,0,0-1.5.52,2,2,0,0,0-.54,1.54v4.37a2,2,0,0,0,.55,1.53,2.07,2.07,0,0,0,1.49.53h.24a2.09,2.09,0,0,0,1.49-.53A2,2,0,0,0,479.55,328.83Zm-1-4.6-2.26,3.29v-3.29a.87.87,0,0,1,.29-.65,1,1,0,0,1,.72-.27h.24a1,1,0,0,1,.72.27A.87.87,0,0,1,478.52,324.23Zm-2.26,4.83,2.26-3.28v3.28a.89.89,0,0,1-.29.65,1,1,0,0,1-.72.27h-.24a1,1,0,0,1-.72-.27A.89.89,0,0,1,476.26,329.06Z" transform="translate(-466.86 -286.36)"/><path class="cls-4" d="M475.47,365.94v.91h3.94v-.91h-1.32v-7.58h-1.15l-1.59.6v1l1.71-.63v6.62Z" transform="translate(-466.86 -286.36)"/><polygon class="cls-5" points="37.09 29.71 37.09 65.64 67.67 96.1 103.22 96.1 37.09 29.71"/><polygon class="cls-5" points="55.99 39.33 95.04 0.17 59.74 0.17 38.49 21.5 55.99 39.33"/><polygon class="cls-5" points="55.99 39.33 95.04 0.17 59.74 0.17 38.49 21.5 55.99 39.33"/><polygon class="cls-6" points="55.99 39.33 95.04 0.17 59.74 0.17 38.49 21.5 55.99 39.33"/><polygon class="cls-6" points="37.09 29.71 37.09 65.64 67.67 96.1 103.22 96.1 37.09 29.71"/><path class="cls-6" d="M597.23,328.58a26.82,26.82,0,1,1-26.74,26.9A26.78,26.78,0,0,1,597.23,328.58Zm0,46.19a19.37,19.37,0,1,0-19.29-19.29A19.36,19.36,0,0,0,597.23,374.77Z" transform="translate(-466.86 -286.36)"/><path class="cls-6" d="M631.35,374c.67-1,1.27-2.09,1.94-3.05a1.68,1.68,0,0,1,2.53-.6c.45.37,6.19,5.14,11.92,5.14,5.14,0,8.42-3.13,8.42-6.93,0-4.47-3.88-7.3-11.25-10.35-7.6-3.21-13.56-7.15-13.56-15.8,0-5.81,4.47-13.78,16.32-13.78a25.25,25.25,0,0,1,13.78,4.4,1.77,1.77,0,0,1,.44,2.53c-.59.9-1.26,1.94-1.86,2.83a1.75,1.75,0,0,1-2.6.75c-.53-.3-5.74-3.73-10.06-3.73-6.26,0-8.42,3.95-8.42,6.71,0,4.24,3.28,6.85,9.46,9.38,8.64,3.5,16,7.6,16,16.69,0,7.75-6.93,14.08-16.61,14.08a24.11,24.11,0,0,1-16-5.89A1.56,1.56,0,0,1,631.35,374Z" transform="translate(-466.86 -286.36)"/><path class="cls-6" d="M673.37,330.74a1.46,1.46,0,0,1,1.42-1.41h4.91a1.42,1.42,0,0,1,1.42,1.41v20.79h27.26V330.74a1.42,1.42,0,0,1,1.42-1.41h4.92a1.46,1.46,0,0,1,1.41,1.41v49.32a1.46,1.46,0,0,1-1.41,1.41H709.8a1.42,1.42,0,0,1-1.42-1.41V358.53H681.12v21.53a1.42,1.42,0,0,1-1.42,1.41h-4.91a1.46,1.46,0,0,1-1.42-1.41Z" transform="translate(-466.86 -286.36)"/><path class="cls-6" d="M691.58,375.35l-.89.42a.17.17,0,0,1-.25-.07l-.13-.4a.21.21,0,0,1,0-.22l1.59-1.44h.55a.21.21,0,0,1,.2.21V381a.21.21,0,0,1-.2.21h-.68a.21.21,0,0,1-.22-.21Z" transform="translate(-466.86 -286.36)"/><path class="cls-6" d="M695.06,379.8a.78.78,0,1,1-.77.78A.78.78,0,0,1,695.06,379.8Z" transform="translate(-466.86 -286.36)"/><path class="cls-6" d="M696.93,377.44c0-2.45,1-3.91,2.78-3.91s2.76,1.46,2.76,3.91-1,3.92-2.76,3.92S696.93,379.89,696.93,377.44Zm4.41,0c0-1.83-.59-2.89-1.63-2.89s-1.65,1.06-1.65,2.89.59,2.9,1.65,2.9S701.34,379.3,701.34,377.44Z" transform="translate(-466.86 -286.36)"/></g></g></svg>