<svg id="Layer_1" data-name="Layer 1" xmlns="http://www.w3.org/2000/svg" viewBox="0 0 102.28 95.93"><defs><style>.cls-1{fill:#fff;}</style></defs><polygon class="cls-1" points="55.05 39.16 94.1 0 58.8 0 37.55 21.33 55.05 39.16"/><polygon class="cls-1" points="36.15 29.54 36.15 65.47 66.73 95.93 102.28 95.93 36.15 29.54"/><path class="cls-1" d="M467.12,475.78v1h4.3v-1H470v-8.27h-1.26l-1.73.66v1.07l1.86-.69v7.23Z" transform="translate(-466.86 -467.32)"/><path class="cls-1" d="M471.56,487.74V483a2.21,2.21,0,0,0-.59-1.68,2.26,2.26,0,0,0-1.63-.57h-.26a2.26,2.26,0,0,0-1.63.57,2.21,2.21,0,0,0-.59,1.68v4.76a2.23,2.23,0,0,0,.6,1.68,2.26,2.26,0,0,0,1.62.57h.26a2.26,2.26,0,0,0,1.62-.57A2.23,2.23,0,0,0,471.56,487.74Zm-1.12-5L468,486.31v-3.58a1,1,0,0,1,.31-.71,1.09,1.09,0,0,1,.79-.3h.26a1.09,1.09,0,0,1,.79.3A1,1,0,0,1,470.44,482.73ZM468,488l2.46-3.57V488a.93.93,0,0,1-.31.71,1.09,1.09,0,0,1-.79.3h-.26a1.09,1.09,0,0,1-.79-.3A.93.93,0,0,1,468,488Z" transform="translate(-466.86 -467.32)"/><path class="cls-1" d="M471.56,501v-4.76a2.21,2.21,0,0,0-.59-1.68,2.26,2.26,0,0,0-1.63-.57h-.26a2.26,2.26,0,0,0-1.63.57,2.21,2.21,0,0,0-.59,1.68V501a2,2,0,0,0,2.22,2.25h.26a2,2,0,0,0,2.22-2.25Zm-1.12-5L468,499.54V496a.93.93,0,0,1,.31-.71,1.09,1.09,0,0,1,.79-.3h.26a1.09,1.09,0,0,1,.79.3A.93.93,0,0,1,470.44,496ZM468,501.22l2.46-3.57v3.57a1,1,0,0,1-.31.71,1.09,1.09,0,0,1-.79.3h-.26a1.09,1.09,0,0,1-.79-.3A1,1,0,0,1,468,501.22Z" transform="translate(-466.86 -467.32)"/><path class="cls-1" d="M467.12,515.46v1h4.3v-1H470v-8.27h-1.26l-1.73.66v1.07l1.86-.69v7.23Z" transform="translate(-466.86 -467.32)"/><path class="cls-1" d="M471.56,527.43v-4.76A2.21,2.21,0,0,0,471,521a2.26,2.26,0,0,0-1.63-.57h-.26a2.26,2.26,0,0,0-1.63.57,2.21,2.21,0,0,0-.59,1.68v4.76a2,2,0,0,0,2.22,2.25h.26a2,2,0,0,0,2.22-2.25Zm-1.12-5L468,526v-3.58a1,1,0,0,1,.31-.71,1.09,1.09,0,0,1,.79-.3h.26a1.09,1.09,0,0,1,.79.3A1,1,0,0,1,470.44,522.42ZM468,527.68l2.46-3.57v3.57a.93.93,0,0,1-.31.71,1.09,1.09,0,0,1-.79.3h-.26a1.09,1.09,0,0,1-.79-.3A.93.93,0,0,1,468,527.68Z" transform="translate(-466.86 -467.32)"/><path class="cls-1" d="M467.13,541.92v1h4.3v-1H470v-8.27h-1.25l-1.74.67v1.07l1.87-.69v7.22Z" transform="translate(-466.86 -467.32)"/><path class="cls-1" d="M467.13,555.15v1h4.3v-1H470v-8.26h-1.25l-1.74.66v1.07l1.87-.69v7.22Z" transform="translate(-466.86 -467.32)"/><path class="cls-1" d="M491.53,482.68v1h4.3v-1h-1.44v-8.27h-1.26l-1.73.66v1.08l1.86-.69v7.22Z" transform="translate(-466.86 -467.32)"/><path class="cls-1" d="M496,494.65v-4.76a2.21,2.21,0,0,0-.59-1.68,2.26,2.26,0,0,0-1.63-.57h-.26a2.26,2.26,0,0,0-1.63.57,2.21,2.21,0,0,0-.6,1.68v4.76a2.21,2.21,0,0,0,.61,1.67,2.26,2.26,0,0,0,1.62.58h.26a2.26,2.26,0,0,0,1.62-.58A2.2,2.2,0,0,0,496,494.65Zm-1.12-5-2.46,3.59v-3.59a.93.93,0,0,1,.31-.7,1.09,1.09,0,0,1,.79-.3h.26a1.09,1.09,0,0,1,.79.3A.93.93,0,0,1,494.85,489.63Zm-2.46,5.27,2.46-3.57v3.57a1,1,0,0,1-.31.71,1.09,1.09,0,0,1-.79.29h-.26a1.09,1.09,0,0,1-.79-.29A1,1,0,0,1,492.39,494.9Z" transform="translate(-466.86 -467.32)"/><path class="cls-1" d="M496,507.87v-4.76a2.21,2.21,0,0,0-.59-1.68,2.26,2.26,0,0,0-1.63-.57h-.26a2.26,2.26,0,0,0-1.63.57,2.21,2.21,0,0,0-.6,1.68v4.76a2.23,2.23,0,0,0,.61,1.68,2.26,2.26,0,0,0,1.62.57h.26a2.26,2.26,0,0,0,1.62-.57A2.23,2.23,0,0,0,496,507.87Zm-1.12-5-2.46,3.59v-3.59a1,1,0,0,1,.31-.71,1.13,1.13,0,0,1,.79-.29h.26a1.13,1.13,0,0,1,.79.29A1,1,0,0,1,494.85,502.86Zm-2.46,5.27,2.46-3.58v3.58a.91.91,0,0,1-.31.7,1.09,1.09,0,0,1-.79.3h-.26a1.09,1.09,0,0,1-.79-.3A.91.91,0,0,1,492.39,508.13Z" transform="translate(-466.86 -467.32)"/><path class="cls-1" d="M491.53,522.36v1h4.3v-1h-1.44v-8.27h-1.26l-1.73.67v1.07l1.86-.69v7.22Z" transform="translate(-466.86 -467.32)"/><path class="cls-1" d="M496,534.34v-4.77a2.21,2.21,0,0,0-.59-1.68,2.3,2.3,0,0,0-1.63-.56h-.26a2.3,2.3,0,0,0-1.63.56,2.21,2.21,0,0,0-.6,1.68v4.77a2.21,2.21,0,0,0,.61,1.67,2.26,2.26,0,0,0,1.62.57h.26a2.26,2.26,0,0,0,1.62-.57A2.2,2.2,0,0,0,496,534.34Zm-1.12-5-2.46,3.59v-3.59a.91.91,0,0,1,.31-.7,1.09,1.09,0,0,1,.79-.3h.26a1.09,1.09,0,0,1,.79.3A.91.91,0,0,1,494.85,529.32Zm-2.46,5.27,2.46-3.57v3.57a1,1,0,0,1-.31.71,1.13,1.13,0,0,1-.79.29h-.26a1.13,1.13,0,0,1-.79-.29A1,1,0,0,1,492.39,534.59Z" transform="translate(-466.86 -467.32)"/><path class="cls-1" d="M496,547.57v-4.76a2.21,2.21,0,0,0-.59-1.68,2.26,2.26,0,0,0-1.63-.57h-.26a2.26,2.26,0,0,0-1.63.57,2.21,2.21,0,0,0-.6,1.68v4.76a2.06,2.06,0,0,0,2.23,2.25h.26a2,2,0,0,0,2.22-2.25Zm-1.12-5-2.46,3.58v-3.58a.93.93,0,0,1,.31-.71,1.09,1.09,0,0,1,.79-.3h.26a1.09,1.09,0,0,1,.79.3A.93.93,0,0,1,494.85,542.56Zm-2.46,5.26,2.46-3.57v3.57a1,1,0,0,1-.31.71,1.09,1.09,0,0,1-.79.3h-.26a1.09,1.09,0,0,1-.79-.3A1,1,0,0,1,492.39,547.82Z" transform="translate(-466.86 -467.32)"/><path class="cls-1" d="M496,560.8V556a2.21,2.21,0,0,0-.59-1.68,2.26,2.26,0,0,0-1.63-.57h-.26a2.26,2.26,0,0,0-1.63.57,2.21,2.21,0,0,0-.6,1.68v4.76a2.06,2.06,0,0,0,2.23,2.25h.26A2,2,0,0,0,496,560.8Zm-1.12-5-2.46,3.58v-3.58a.93.93,0,0,1,.31-.71,1.09,1.09,0,0,1,.79-.3h.26a1.09,1.09,0,0,1,.79.3A.93.93,0,0,1,494.85,555.79Zm-2.46,5.26,2.46-3.57v3.57a.93.93,0,0,1-.31.71,1.09,1.09,0,0,1-.79.3h-.26a1.09,1.09,0,0,1-.79-.3A.93.93,0,0,1,492.39,561.05Z" transform="translate(-466.86 -467.32)"/><path class="cls-1" d="M483.49,475.27v1h4.1v-1h-1.37v-7.89H485l-1.66.63v1l1.78-.66v6.9Z" transform="translate(-466.86 -467.32)"/><path class="cls-1" d="M487.73,486.71v-4.55a1.95,1.95,0,0,0-2.12-2.15h-.25a2.14,2.14,0,0,0-1.56.55,2.1,2.1,0,0,0-.57,1.6v4.55a2.09,2.09,0,0,0,.58,1.59,2.13,2.13,0,0,0,1.55.55h.25a2.15,2.15,0,0,0,1.55-.55A2.09,2.09,0,0,0,487.73,486.71Zm-1.07-4.79-2.35,3.42v-3.42a.94.94,0,0,1,.29-.68,1.05,1.05,0,0,1,.76-.28h.25a1,1,0,0,1,.75.28A.91.91,0,0,1,486.66,481.92Zm-2.35,5,2.35-3.41V487a.89.89,0,0,1-.3.67,1.05,1.05,0,0,1-.75.29h-.25a1.06,1.06,0,0,1-.76-.29A.92.92,0,0,1,484.31,487Z" transform="translate(-466.86 -467.32)"/><path class="cls-1" d="M483.49,500.54v.94h4.1v-.94h-1.37v-7.9H485l-1.66.63v1l1.78-.66v6.9Z" transform="translate(-466.86 -467.32)"/><path class="cls-1" d="M487.73,512v-4.55a1.93,1.93,0,0,0-2.12-2.15h-.25a2.18,2.18,0,0,0-1.56.54,2.14,2.14,0,0,0-.57,1.61V512a2.09,2.09,0,0,0,.58,1.59,2.13,2.13,0,0,0,1.55.55h.25a2.15,2.15,0,0,0,1.55-.55A2.09,2.09,0,0,0,487.73,512Zm-1.07-4.79-2.35,3.42v-3.42a.94.94,0,0,1,.29-.68,1.05,1.05,0,0,1,.76-.28h.25a1,1,0,0,1,.75.28A.91.91,0,0,1,486.66,507.18Zm-2.35,5,2.35-3.41v3.41a.89.89,0,0,1-.3.67,1.05,1.05,0,0,1-.75.29h-.25a1.06,1.06,0,0,1-.76-.29A.92.92,0,0,1,484.31,512.21Z" transform="translate(-466.86 -467.32)"/><path class="cls-1" d="M483.49,538.45v.94h4.1v-.94h-1.37v-7.9H485l-1.66.63v1l1.78-.66v6.9Z" transform="translate(-466.86 -467.32)"/><path class="cls-1" d="M487.73,524.5V520a1.95,1.95,0,0,0-2.12-2.15h-.25a2.14,2.14,0,0,0-1.56.55,2.1,2.1,0,0,0-.57,1.6v4.55a2.13,2.13,0,0,0,.58,1.6,2.17,2.17,0,0,0,1.55.54h.25a2.18,2.18,0,0,0,1.55-.54A2.13,2.13,0,0,0,487.73,524.5Zm-1.07-4.79-2.35,3.42v-3.42a.94.94,0,0,1,.29-.68,1.09,1.09,0,0,1,.76-.28h.25a1.09,1.09,0,0,1,.75.28A.91.91,0,0,1,486.66,519.71Zm-2.35,5,2.35-3.41v3.41a.89.89,0,0,1-.3.67,1.05,1.05,0,0,1-.75.29h-.25a1.06,1.06,0,0,1-.76-.29A.92.92,0,0,1,484.31,524.74Z" transform="translate(-466.86 -467.32)"/><path class="cls-1" d="M483.49,551.07V552h4.1v-.95h-1.37v-7.9H485l-1.66.64v1l1.78-.66v6.9Z" transform="translate(-466.86 -467.32)"/><path class="cls-1" d="M475.44,486.65v.91h3.92v-.91h-1.31V479.1H476.9l-1.58.6v1l1.7-.63v6.6Z" transform="translate(-466.86 -467.32)"/><path class="cls-1" d="M479.5,497.59v-4.35a2,2,0,0,0-.55-1.53,2,2,0,0,0-1.48-.52h-.24a2,2,0,0,0-1.49.52,2,2,0,0,0-.54,1.53v4.35a2,2,0,0,0,.55,1.53,2,2,0,0,0,1.48.52h.24a1.86,1.86,0,0,0,2-2.05Zm-1-4.58-2.25,3.27V493a.89.89,0,0,1,.29-.65,1,1,0,0,1,.72-.27h.24a1,1,0,0,1,.72.27A.88.88,0,0,1,478.47,493Zm-2.25,4.81,2.25-3.26v3.26a.88.88,0,0,1-.28.65,1,1,0,0,1-.72.27h-.24a1,1,0,0,1-.72-.27A.89.89,0,0,1,476.22,497.82Z" transform="translate(-466.86 -467.32)"/><path class="cls-1" d="M475.44,535v.91h3.92V535h-1.31v-7.55H476.9l-1.58.61v1l1.7-.62V535Z" transform="translate(-466.86 -467.32)"/><path class="cls-1" d="M475.44,559.17v.91h3.92v-.91h-1.31v-7.55H476.9l-1.58.6v1l1.7-.63v6.6Z" transform="translate(-466.86 -467.32)"/><path class="cls-1" d="M475.44,523.5v.91h3.92v-.91h-1.31V516H476.9l-1.58.61v1l1.7-.62v6.59Z" transform="translate(-466.86 -467.32)"/><path class="cls-1" d="M479.5,509.67v-4.35a2,2,0,0,0-.55-1.53,2,2,0,0,0-1.48-.52h-.24a2,2,0,0,0-1.49.52,2,2,0,0,0-.54,1.53v4.35a2,2,0,0,0,.55,1.53,2,2,0,0,0,1.48.52h.24a1.86,1.86,0,0,0,2-2.05Zm-1-4.58-2.25,3.27v-3.27a.89.89,0,0,1,.29-.65,1,1,0,0,1,.72-.27h.24a1,1,0,0,1,.72.27A.88.88,0,0,1,478.47,505.09Zm-2.25,4.81,2.25-3.26v3.26a.88.88,0,0,1-.28.65,1,1,0,0,1-.72.27h-.24a1,1,0,0,1-.72-.27A.89.89,0,0,1,476.22,509.9Z" transform="translate(-466.86 -467.32)"/><path class="cls-1" d="M475.44,546.63v.91h3.92v-.91h-1.31v-7.55H476.9l-1.58.61v1L477,540v6.59Z" transform="translate(-466.86 -467.32)"/></svg>