<svg id="Layer_1" data-name="Layer 1" xmlns="http://www.w3.org/2000/svg" viewBox="0 0 336.22 126.28"><defs><style>.cls-1{font-size:74.49px;font-family:BrandonGrotesque-Medium, Brandon Grotesque;font-weight:500;}.cls-1,.cls-2{fill:#fff;}</style></defs><text class="cls-1" transform="translate(100 96.01)">OSH</text><path class="cls-2" d="M299.07,557.2l-.9.43c-.1,0-.21,0-.24-.08l-.14-.39a.2.2,0,0,1,0-.22l1.58-1.45H300a.21.21,0,0,1,.2.22v7.18a.2.2,0,0,1-.2.21h-.68a.21.21,0,0,1-.21-.21Z" transform="translate(-74.55 -467.32)"/><path class="cls-2" d="M302.55,561.66a.78.78,0,1,1-.77.78A.77.77,0,0,1,302.55,561.66Z" transform="translate(-74.55 -467.32)"/><path class="cls-2" d="M304.42,559.3c0-2.45,1-3.92,2.77-3.92s2.76,1.47,2.76,3.92-1,3.91-2.76,3.91S304.42,561.74,304.42,559.3Zm4.4,0c0-1.84-.59-2.89-1.63-2.89s-1.64,1.05-1.64,2.89.59,2.89,1.64,2.89S308.82,561.15,308.82,559.3Z" transform="translate(-74.55 -467.32)"/><polygon class="cls-2" points="55.05 39.16 94.1 0 58.8 0 37.55 21.33 55.05 39.16"/><polygon class="cls-2" points="36.15 29.54 36.15 65.47 66.73 95.93 102.28 95.93 36.15 29.54"/><path class="cls-2" d="M74.82,475.78v1h4.3v-1H77.67v-8.27H76.42l-1.74.66v1.07l1.87-.69v7.23Z" transform="translate(-74.55 -467.32)"/><path class="cls-2" d="M79.26,487.74V483A2,2,0,0,0,77,480.73h-.27a2.24,2.24,0,0,0-1.62.57,2.21,2.21,0,0,0-.6,1.68v4.76a2.23,2.23,0,0,0,.6,1.68,2.29,2.29,0,0,0,1.62.57H77a2.26,2.26,0,0,0,1.62-.57A2.23,2.23,0,0,0,79.26,487.74Zm-1.12-5-2.46,3.58v-3.58A1,1,0,0,1,76,482a1.07,1.07,0,0,1,.78-.3H77a1.09,1.09,0,0,1,.79.3A1,1,0,0,1,78.14,482.73ZM75.68,488l2.46-3.57V488a1,1,0,0,1-.31.71,1.09,1.09,0,0,1-.79.3h-.27a1.07,1.07,0,0,1-.78-.3A.93.93,0,0,1,75.68,488Z" transform="translate(-74.55 -467.32)"/><path class="cls-2" d="M79.26,501v-4.76A2,2,0,0,0,77,494h-.27a2.24,2.24,0,0,0-1.62.57,2.21,2.21,0,0,0-.6,1.68V501a2.2,2.2,0,0,0,.6,1.67,2.25,2.25,0,0,0,1.62.58H77A2,2,0,0,0,79.26,501Zm-1.12-5-2.46,3.58V496a.93.93,0,0,1,.31-.71,1.07,1.07,0,0,1,.78-.3H77a1.09,1.09,0,0,1,.79.3A1,1,0,0,1,78.14,496Zm-2.46,5.26,2.46-3.57v3.57a1,1,0,0,1-.31.71,1.09,1.09,0,0,1-.79.3h-.27a1.07,1.07,0,0,1-.78-.3A1,1,0,0,1,75.68,501.22Z" transform="translate(-74.55 -467.32)"/><path class="cls-2" d="M74.82,515.46v1h4.3v-1H77.67v-8.27H76.42l-1.74.66v1.07l1.87-.69v7.23Z" transform="translate(-74.55 -467.32)"/><path class="cls-2" d="M79.26,527.43v-4.76A2,2,0,0,0,77,520.42h-.27a2.24,2.24,0,0,0-1.62.57,2.21,2.21,0,0,0-.6,1.68v4.76a2.2,2.2,0,0,0,.6,1.67,2.25,2.25,0,0,0,1.62.58H77a2,2,0,0,0,2.22-2.25Zm-1.12-5L75.68,526v-3.58a1,1,0,0,1,.31-.71,1.07,1.07,0,0,1,.78-.3H77a1.09,1.09,0,0,1,.79.3A1,1,0,0,1,78.14,522.42Zm-2.46,5.26,2.46-3.57v3.57a1,1,0,0,1-.31.71,1.09,1.09,0,0,1-.79.3h-.27a1.07,1.07,0,0,1-.78-.3A.93.93,0,0,1,75.68,527.68Z" transform="translate(-74.55 -467.32)"/><path class="cls-2" d="M74.82,541.92v1h4.3v-1H77.68v-8.27H76.42l-1.73.67v1.07l1.87-.69v7.22Z" transform="translate(-74.55 -467.32)"/><path class="cls-2" d="M74.82,555.15v1h4.3v-1H77.68v-8.26H76.42l-1.73.66v1.07l1.87-.69v7.22Z" transform="translate(-74.55 -467.32)"/><path class="cls-2" d="M99.23,482.68v1h4.3v-1h-1.45v-8.27h-1.25l-1.74.66v1.08l1.87-.69v7.22Z" transform="translate(-74.55 -467.32)"/><path class="cls-2" d="M103.67,494.65v-4.76a2,2,0,0,0-2.22-2.25h-.27a2.24,2.24,0,0,0-1.62.57,2.21,2.21,0,0,0-.6,1.68v4.76a2.2,2.2,0,0,0,.6,1.67,2.28,2.28,0,0,0,1.62.58h.27a2.26,2.26,0,0,0,1.62-.58A2.2,2.2,0,0,0,103.67,494.65Zm-1.12-5-2.46,3.59v-3.59a.93.93,0,0,1,.31-.7,1.07,1.07,0,0,1,.78-.3h.27a1.09,1.09,0,0,1,.79.3A1,1,0,0,1,102.55,489.63Zm-2.46,5.27,2.46-3.57v3.57a1,1,0,0,1-.31.71,1.09,1.09,0,0,1-.79.29h-.27a1.06,1.06,0,0,1-.78-.29A1,1,0,0,1,100.09,494.9Z" transform="translate(-74.55 -467.32)"/><path class="cls-2" d="M103.67,507.87v-4.76a2,2,0,0,0-2.22-2.25h-.27a2.24,2.24,0,0,0-1.62.57,2.21,2.21,0,0,0-.6,1.68v4.76a2.23,2.23,0,0,0,.6,1.68,2.27,2.27,0,0,0,1.62.57h.27a2.26,2.26,0,0,0,1.62-.57A2.23,2.23,0,0,0,103.67,507.87Zm-1.12-5-2.46,3.59v-3.59a1,1,0,0,1,.31-.71,1.11,1.11,0,0,1,.78-.29h.27a1.13,1.13,0,0,1,.79.29A1,1,0,0,1,102.55,502.86Zm-2.46,5.27,2.46-3.58v3.58a1,1,0,0,1-.31.7,1.09,1.09,0,0,1-.79.3h-.27a1.07,1.07,0,0,1-.78-.3A.91.91,0,0,1,100.09,508.13Z" transform="translate(-74.55 -467.32)"/><path class="cls-2" d="M99.23,522.36v1h4.3v-1h-1.45v-8.27h-1.25l-1.74.67v1.07l1.87-.69v7.22Z" transform="translate(-74.55 -467.32)"/><path class="cls-2" d="M103.67,534.34v-4.77a2.24,2.24,0,0,0-.59-1.68,2.3,2.3,0,0,0-1.63-.56h-.27a2.28,2.28,0,0,0-1.62.56,2.21,2.21,0,0,0-.6,1.68v4.77a2.2,2.2,0,0,0,.6,1.67,2.27,2.27,0,0,0,1.62.57h.27a2.26,2.26,0,0,0,1.62-.57A2.2,2.2,0,0,0,103.67,534.34Zm-1.12-5-2.46,3.59v-3.59a.91.91,0,0,1,.31-.7,1.07,1.07,0,0,1,.78-.3h.27a1.09,1.09,0,0,1,.79.3A1,1,0,0,1,102.55,529.32Zm-2.46,5.27,2.46-3.57v3.57a1,1,0,0,1-.31.71,1.13,1.13,0,0,1-.79.29h-.27a1.11,1.11,0,0,1-.78-.29A1,1,0,0,1,100.09,534.59Z" transform="translate(-74.55 -467.32)"/><path class="cls-2" d="M103.67,547.57v-4.76a2,2,0,0,0-2.22-2.25h-.27a2.24,2.24,0,0,0-1.62.57,2.21,2.21,0,0,0-.6,1.68v4.76a2.2,2.2,0,0,0,.6,1.67,2.23,2.23,0,0,0,1.62.58h.27a2,2,0,0,0,2.22-2.25Zm-1.12-5-2.46,3.58v-3.58a.93.93,0,0,1,.31-.71,1.07,1.07,0,0,1,.78-.3h.27a1.09,1.09,0,0,1,.79.3A1,1,0,0,1,102.55,542.56Zm-2.46,5.26,2.46-3.57v3.57a1,1,0,0,1-.31.71,1.09,1.09,0,0,1-.79.3h-.27a1.07,1.07,0,0,1-.78-.3A1,1,0,0,1,100.09,547.82Z" transform="translate(-74.55 -467.32)"/><path class="cls-2" d="M103.67,560.8V556a2,2,0,0,0-2.22-2.25h-.27a2.24,2.24,0,0,0-1.62.57A2.21,2.21,0,0,0,99,556v4.76a2.2,2.2,0,0,0,.6,1.67,2.23,2.23,0,0,0,1.62.58h.27a2,2,0,0,0,2.22-2.25Zm-1.12-5-2.46,3.58v-3.58a.93.93,0,0,1,.31-.71,1.07,1.07,0,0,1,.78-.3h.27a1.09,1.09,0,0,1,.79.3A1,1,0,0,1,102.55,555.79Zm-2.46,5.26,2.46-3.57v3.57a1,1,0,0,1-.31.71,1.09,1.09,0,0,1-.79.3h-.27a1.07,1.07,0,0,1-.78-.3A.93.93,0,0,1,100.09,561.05Z" transform="translate(-74.55 -467.32)"/><path class="cls-2" d="M91.18,475.27v1h4.11v-1H93.91v-7.89h-1.2l-1.65.63v1l1.78-.66v6.9Z" transform="translate(-74.55 -467.32)"/><path class="cls-2" d="M95.43,486.71v-4.55a2.1,2.1,0,0,0-.57-1.6,2.13,2.13,0,0,0-1.55-.55h-.26a2.13,2.13,0,0,0-1.55.55,2.1,2.1,0,0,0-.57,1.6v4.55a2.06,2.06,0,0,0,.58,1.59,2.12,2.12,0,0,0,1.54.55h.26a2.12,2.12,0,0,0,1.54-.55A2.06,2.06,0,0,0,95.43,486.71Zm-1.08-4.79L92,485.34v-3.42a.9.9,0,0,1,.29-.68,1,1,0,0,1,.75-.28h.26a1,1,0,0,1,.75.28A.9.9,0,0,1,94.35,481.92ZM92,487l2.34-3.41V487a.88.88,0,0,1-.29.67,1.05,1.05,0,0,1-.75.29h-.26a1.05,1.05,0,0,1-.75-.29A.88.88,0,0,1,92,487Z" transform="translate(-74.55 -467.32)"/><path class="cls-2" d="M91.18,500.54v.94h4.11v-.94H93.91v-7.9h-1.2l-1.65.63v1l1.78-.66v6.9Z" transform="translate(-74.55 -467.32)"/><path class="cls-2" d="M95.43,512v-4.55a2.14,2.14,0,0,0-.57-1.61,2.17,2.17,0,0,0-1.55-.54h-.26a2.17,2.17,0,0,0-1.55.54,2.14,2.14,0,0,0-.57,1.61V512a2.06,2.06,0,0,0,.58,1.59,2.12,2.12,0,0,0,1.54.55h.26a2.12,2.12,0,0,0,1.54-.55A2.06,2.06,0,0,0,95.43,512Zm-1.08-4.79L92,510.6v-3.42a.9.9,0,0,1,.29-.68,1,1,0,0,1,.75-.28h.26a1,1,0,0,1,.75.28A.9.9,0,0,1,94.35,507.18Zm-2.34,5,2.34-3.41v3.41a.88.88,0,0,1-.29.67,1.05,1.05,0,0,1-.75.29h-.26a1.05,1.05,0,0,1-.75-.29A.88.88,0,0,1,92,512.21Z" transform="translate(-74.55 -467.32)"/><path class="cls-2" d="M91.18,538.45v.94h4.11v-.94H93.91v-7.9h-1.2l-1.65.63v1l1.78-.66v6.9Z" transform="translate(-74.55 -467.32)"/><path class="cls-2" d="M95.43,524.5V520a2.1,2.1,0,0,0-.57-1.6,2.13,2.13,0,0,0-1.55-.55h-.26a2.13,2.13,0,0,0-1.55.55,2.1,2.1,0,0,0-.57,1.6v4.55a2.09,2.09,0,0,0,.58,1.6,2.16,2.16,0,0,0,1.54.54h.26a2.16,2.16,0,0,0,1.54-.54A2.09,2.09,0,0,0,95.43,524.5Zm-1.08-4.79L92,523.13v-3.42a.9.9,0,0,1,.29-.68,1.09,1.09,0,0,1,.75-.28h.26a1.09,1.09,0,0,1,.75.28A.9.9,0,0,1,94.35,519.71Zm-2.34,5,2.34-3.41v3.41a.88.88,0,0,1-.29.67,1.05,1.05,0,0,1-.75.29h-.26a1.05,1.05,0,0,1-.75-.29A.88.88,0,0,1,92,524.74Z" transform="translate(-74.55 -467.32)"/><path class="cls-2" d="M91.18,551.07V552h4.11v-.95H93.91v-7.9h-1.2l-1.65.64v1l1.78-.66v6.9Z" transform="translate(-74.55 -467.32)"/><path class="cls-2" d="M83.13,486.65v.91h3.93v-.91H85.74V479.1H84.6l-1.59.6v1l1.71-.63v6.6Z" transform="translate(-74.55 -467.32)"/><path class="cls-2" d="M87.19,497.59v-4.35a2,2,0,0,0-.54-1.53,2,2,0,0,0-1.49-.52h-.24a2,2,0,0,0-1.48.52,2,2,0,0,0-.55,1.53v4.35a1.86,1.86,0,0,0,2,2.05h.24a2,2,0,0,0,1.48-.52A2,2,0,0,0,87.19,497.59Zm-1-4.58-2.25,3.27V493a.88.88,0,0,1,.28-.65,1,1,0,0,1,.72-.27h.24a1,1,0,0,1,.72.27A.89.89,0,0,1,86.17,493Zm-2.25,4.81,2.25-3.26v3.26a.89.89,0,0,1-.29.65,1,1,0,0,1-.72.27h-.24a1,1,0,0,1-.72-.27A.88.88,0,0,1,83.92,497.82Z" transform="translate(-74.55 -467.32)"/><path class="cls-2" d="M83.13,535v.91h3.93V535H85.74v-7.55H84.6L83,528v1l1.71-.62V535Z" transform="translate(-74.55 -467.32)"/><path class="cls-2" d="M83.13,559.17v.91h3.93v-.91H85.74v-7.55H84.6l-1.59.6v1l1.71-.63v6.6Z" transform="translate(-74.55 -467.32)"/><path class="cls-2" d="M83.13,523.5v.91h3.93v-.91H85.74V516H84.6l-1.59.61v1l1.71-.62v6.59Z" transform="translate(-74.55 -467.32)"/><path class="cls-2" d="M87.19,509.67v-4.35a2,2,0,0,0-.54-1.53,2,2,0,0,0-1.49-.52h-.24a2,2,0,0,0-1.48.52,2,2,0,0,0-.55,1.53v4.35a1.86,1.86,0,0,0,2,2.05h.24a2,2,0,0,0,1.48-.52A2,2,0,0,0,87.19,509.67Zm-1-4.58-2.25,3.27v-3.27a.88.88,0,0,1,.28-.65,1,1,0,0,1,.72-.27h.24a1,1,0,0,1,.72.27A.89.89,0,0,1,86.17,505.09Zm-2.25,4.81,2.25-3.26v3.26a.89.89,0,0,1-.29.65,1,1,0,0,1-.72.27h-.24a1,1,0,0,1-.72-.27A.88.88,0,0,1,83.92,509.9Z" transform="translate(-74.55 -467.32)"/><path class="cls-2" d="M83.13,546.63v.91h3.93v-.91H85.74v-7.55H84.6l-1.59.61v1l1.71-.63v6.59Z" transform="translate(-74.55 -467.32)"/></svg>