<svg xmlns="http://www.w3.org/2000/svg" xmlns:xlink="http://www.w3.org/1999/xlink" viewBox="0 0 103.22 96.65"><defs><style>.cls-1{isolation:isolate;}.cls-2,.cls-3,.cls-4{fill:#224f71;}.cls-2,.cls-3,.cls-4,.cls-5{mix-blend-mode:multiply;}.cls-3{opacity:0.7;}.cls-4{opacity:0.5;}.cls-5{fill:#afdedc;}.cls-6{fill:url(#linear-gradient);}.cls-7{fill:url(#linear-gradient-2);}.cls-8{opacity:0.25;}.cls-10,.cls-9{fill:none;stroke:#fff;stroke-linecap:round;stroke-linejoin:round;}.cls-9{fill-rule:evenodd;}</style><linearGradient id="linear-gradient" x1="38.49" y1="19.75" x2="95.04" y2="19.75" gradientUnits="userSpaceOnUse"><stop offset="0" stop-color="#002139"/><stop offset="0.08" stop-color="#072b45"/><stop offset="0.31" stop-color="#194261"/><stop offset="0.54" stop-color="#255376"/><stop offset="0.77" stop-color="#2d5d82"/><stop offset="0.99" stop-color="#2f6086"/></linearGradient><linearGradient id="linear-gradient-2" x1="37.09" y1="62.9" x2="103.22" y2="62.9" xlink:href="#linear-gradient"/></defs><g class="cls-1"><g id="Layer_1" data-name="Layer 1"><path class="cls-2" d="M438.11,205.78v1h4.31v-1H441v-8.3h-1.26l-1.74.66v1.08l1.88-.69v7.25Z" transform="translate(-437.84 -197.34)"/><path class="cls-2" d="M442.57,217.79V213a2,2,0,0,0-2.23-2.26h-.27a2,2,0,0,0-2.23,2.26v4.78a2.21,2.21,0,0,0,.6,1.68,2.26,2.26,0,0,0,1.63.58h.27a2.22,2.22,0,0,0,1.62-.58A2.18,2.18,0,0,0,442.57,217.79Zm-1.13-5-2.47,3.6v-3.6a.93.93,0,0,1,.31-.71,1.09,1.09,0,0,1,.79-.3h.27a1.09,1.09,0,0,1,.79.3A.93.93,0,0,1,441.44,212.76ZM439,218.05l2.47-3.59v3.59a1,1,0,0,1-.31.71,1.13,1.13,0,0,1-.79.29h-.27a1.13,1.13,0,0,1-.79-.29A1,1,0,0,1,439,218.05Z" transform="translate(-437.84 -197.34)"/><path class="cls-2" d="M442.57,231.07v-4.78a2,2,0,0,0-2.23-2.26h-.27a2,2,0,0,0-2.23,2.26v4.78a2.21,2.21,0,0,0,.6,1.68,2.26,2.26,0,0,0,1.63.58h.27a2.22,2.22,0,0,0,1.62-.58A2.18,2.18,0,0,0,442.57,231.07Zm-1.13-5-2.47,3.6V226a.93.93,0,0,1,.31-.71,1.09,1.09,0,0,1,.79-.3h.27a1.09,1.09,0,0,1,.79.3A.93.93,0,0,1,441.44,226ZM439,231.32l2.47-3.58v3.58a1,1,0,0,1-.31.72,1.13,1.13,0,0,1-.79.29h-.27a1.13,1.13,0,0,1-.79-.29A1,1,0,0,1,439,231.32Z" transform="translate(-437.84 -197.34)"/><path class="cls-2" d="M438.11,245.62v1h4.31v-1H441v-8.3h-1.26L438,238v1.08l1.88-.69v7.25Z" transform="translate(-437.84 -197.34)"/><path class="cls-2" d="M442.57,257.64v-4.78a2.23,2.23,0,0,0-.6-1.69,2.26,2.26,0,0,0-1.63-.57h-.27a2.26,2.26,0,0,0-1.63.57,2.23,2.23,0,0,0-.6,1.69v4.78a2.21,2.21,0,0,0,.6,1.68,2.26,2.26,0,0,0,1.63.58h.27a2.22,2.22,0,0,0,1.62-.58A2.18,2.18,0,0,0,442.57,257.64Zm-1.13-5-2.47,3.6v-3.6a.93.93,0,0,1,.31-.71,1.09,1.09,0,0,1,.79-.3h.27a1.09,1.09,0,0,1,.79.3A.93.93,0,0,1,441.44,252.61ZM439,257.89l2.47-3.58v3.58a.93.93,0,0,1-.31.71,1.09,1.09,0,0,1-.79.3h-.27a1.09,1.09,0,0,1-.79-.3A.93.93,0,0,1,439,257.89Z" transform="translate(-437.84 -197.34)"/><path class="cls-2" d="M438.11,272.19v1h4.32v-1H441v-8.3h-1.26l-1.74.66v1.08l1.87-.69v7.25Z" transform="translate(-437.84 -197.34)"/><path class="cls-2" d="M438.11,285.47v1h4.32v-1H441v-8.3h-1.26l-1.74.67v1.07l1.87-.69v7.25Z" transform="translate(-437.84 -197.34)"/><path class="cls-2" d="M462.61,212.71v1h4.32v-1h-1.45v-8.3h-1.26l-1.74.66v1.08l1.87-.69v7.25Z" transform="translate(-437.84 -197.34)"/><path class="cls-2" d="M467.08,224.72v-4.78a2.21,2.21,0,0,0-.6-1.68,2.27,2.27,0,0,0-1.64-.57h-.26a2.25,2.25,0,0,0-1.63.57,2.21,2.21,0,0,0-.6,1.68v4.78a2.21,2.21,0,0,0,.6,1.68,2.24,2.24,0,0,0,1.63.58h.26a2.06,2.06,0,0,0,2.24-2.26Zm-1.13-5-2.47,3.6v-3.6a1,1,0,0,1,.31-.71,1.09,1.09,0,0,1,.79-.3h.26a1.08,1.08,0,0,1,.79.3A1,1,0,0,1,466,219.69ZM463.48,225l2.47-3.59V225a1,1,0,0,1-.32.71,1.08,1.08,0,0,1-.79.3h-.26a1.09,1.09,0,0,1-.79-.3A1,1,0,0,1,463.48,225Z" transform="translate(-437.84 -197.34)"/><path class="cls-2" d="M467.08,238v-4.78a2.21,2.21,0,0,0-.6-1.68,2.27,2.27,0,0,0-1.64-.57h-.26a2.25,2.25,0,0,0-1.63.57,2.21,2.21,0,0,0-.6,1.68V238a2.21,2.21,0,0,0,.6,1.68,2.24,2.24,0,0,0,1.63.58h.26a2.06,2.06,0,0,0,2.24-2.26ZM466,233l-2.47,3.6V233a1,1,0,0,1,.31-.71,1.09,1.09,0,0,1,.79-.3h.26a1.08,1.08,0,0,1,.79.3A1,1,0,0,1,466,233Zm-2.47,5.29,2.47-3.59v3.59a1,1,0,0,1-.32.71,1.08,1.08,0,0,1-.79.3h-.26a1.09,1.09,0,0,1-.79-.3A1,1,0,0,1,463.48,238.26Z" transform="translate(-437.84 -197.34)"/><path class="cls-2" d="M462.61,252.55v1h4.32v-1h-1.45v-8.3h-1.26l-1.74.66V246l1.87-.69v7.25Z" transform="translate(-437.84 -197.34)"/><path class="cls-2" d="M467.08,264.57v-4.78a2.25,2.25,0,0,0-.6-1.69,2.27,2.27,0,0,0-1.64-.57h-.26a2,2,0,0,0-2.23,2.26v4.78a2.21,2.21,0,0,0,.6,1.68,2.24,2.24,0,0,0,1.63.58h.26a2.06,2.06,0,0,0,2.24-2.26Zm-1.13-5-2.47,3.6v-3.6a.93.93,0,0,1,.31-.71,1.09,1.09,0,0,1,.79-.3h.26a1.08,1.08,0,0,1,.79.3A.94.94,0,0,1,466,259.54Zm-2.47,5.28,2.47-3.58v3.58a1,1,0,0,1-.32.72,1.11,1.11,0,0,1-.79.29h-.26a1.13,1.13,0,0,1-.79-.29A1,1,0,0,1,463.48,264.82Z" transform="translate(-437.84 -197.34)"/><path class="cls-2" d="M467.08,277.86v-4.78a2.22,2.22,0,0,0-.6-1.69,2.27,2.27,0,0,0-1.64-.57h-.26a2.25,2.25,0,0,0-1.63.57,2.22,2.22,0,0,0-.6,1.69v4.78a2.24,2.24,0,0,0,.6,1.68,2.29,2.29,0,0,0,1.63.58h.26a2.27,2.27,0,0,0,1.63-.58A2.24,2.24,0,0,0,467.08,277.86Zm-1.13-5-2.47,3.59v-3.59a1,1,0,0,1,.31-.72,1.13,1.13,0,0,1,.79-.29h.26a1.11,1.11,0,0,1,.79.29A1,1,0,0,1,466,272.83Zm-2.47,5.28,2.47-3.58v3.58a.94.94,0,0,1-.32.71,1.08,1.08,0,0,1-.79.3h-.26a1.09,1.09,0,0,1-.79-.3A.93.93,0,0,1,463.48,278.11Z" transform="translate(-437.84 -197.34)"/><path class="cls-2" d="M467.08,291.14v-4.78a2.21,2.21,0,0,0-.6-1.68,2.24,2.24,0,0,0-1.64-.58h-.26a2,2,0,0,0-2.23,2.26v4.78a2.21,2.21,0,0,0,.6,1.68,2.24,2.24,0,0,0,1.63.58h.26a2.06,2.06,0,0,0,2.24-2.26Zm-1.13-5-2.47,3.6v-3.6a.93.93,0,0,1,.31-.71,1.09,1.09,0,0,1,.79-.3h.26a1.08,1.08,0,0,1,.79.3A.94.94,0,0,1,466,286.11Zm-2.47,5.29,2.47-3.59v3.59a1,1,0,0,1-.32.71,1.11,1.11,0,0,1-.79.29h-.26a1.13,1.13,0,0,1-.79-.29A1,1,0,0,1,463.48,291.4Z" transform="translate(-437.84 -197.34)"/><path class="cls-3" d="M454.54,205.27v.95h4.12v-.95h-1.38v-7.93h-1.21l-1.66.64v1l1.79-.66v6.93Z" transform="translate(-437.84 -197.34)"/><path class="cls-3" d="M458.8,216.75v-4.56a1.95,1.95,0,0,0-2.13-2.16h-.25a1.95,1.95,0,0,0-2.13,2.16v4.56a2.15,2.15,0,0,0,.57,1.61,2.2,2.2,0,0,0,1.56.55h.25a2.17,2.17,0,0,0,1.55-.55A2.12,2.12,0,0,0,458.8,216.75Zm-1.08-4.8-2.36,3.43V212a.9.9,0,0,1,.3-.68,1.06,1.06,0,0,1,.76-.29h.25a1,1,0,0,1,.75.29A.9.9,0,0,1,457.72,212Zm-2.36,5,2.36-3.42V217a.9.9,0,0,1-.3.68,1,1,0,0,1-.75.29h-.25a1.06,1.06,0,0,1-.76-.29A.9.9,0,0,1,455.36,217Z" transform="translate(-437.84 -197.34)"/><path class="cls-3" d="M454.54,230.64v1h4.12v-1h-1.38v-7.93h-1.21l-1.66.63v1l1.79-.66v6.93Z" transform="translate(-437.84 -197.34)"/><path class="cls-3" d="M458.8,242.11v-4.56a1.95,1.95,0,0,0-2.13-2.16h-.25a1.95,1.95,0,0,0-2.13,2.16v4.56a2.15,2.15,0,0,0,.57,1.61,2.2,2.2,0,0,0,1.56.55h.25a2.17,2.17,0,0,0,1.55-.55A2.12,2.12,0,0,0,458.8,242.11Zm-1.08-4.8-2.36,3.43v-3.43a.9.9,0,0,1,.3-.68,1.06,1.06,0,0,1,.76-.29h.25a1,1,0,0,1,.75.29A.9.9,0,0,1,457.72,237.31Zm-2.36,5,2.36-3.42v3.42a.9.9,0,0,1-.3.68,1,1,0,0,1-.75.29h-.25a1.06,1.06,0,0,1-.76-.29A.9.9,0,0,1,455.36,242.35Z" transform="translate(-437.84 -197.34)"/><path class="cls-3" d="M454.54,268.7v.95h4.12v-.95h-1.38v-7.93h-1.21l-1.66.64v1l1.79-.66v6.93Z" transform="translate(-437.84 -197.34)"/><path class="cls-3" d="M458.8,254.69v-4.56a1.95,1.95,0,0,0-2.13-2.16h-.25a1.95,1.95,0,0,0-2.13,2.16v4.56a1.95,1.95,0,0,0,2.13,2.16h.25a2.13,2.13,0,0,0,1.55-.55A2.1,2.1,0,0,0,458.8,254.69Zm-1.08-4.8-2.36,3.43v-3.43a.91.91,0,0,1,.3-.68,1.06,1.06,0,0,1,.76-.29h.25a1,1,0,0,1,.75.29A.91.91,0,0,1,457.72,249.89Zm-2.36,5.05,2.36-3.43v3.43a.89.89,0,0,1-.3.67,1,1,0,0,1-.75.29h-.25a1.06,1.06,0,0,1-.76-.29A.89.89,0,0,1,455.36,254.94Z" transform="translate(-437.84 -197.34)"/><path class="cls-3" d="M454.54,281.37v.95h4.12v-.95h-1.38v-7.92h-1.21l-1.66.63v1l1.79-.66v6.92Z" transform="translate(-437.84 -197.34)"/><path class="cls-4" d="M446.46,216.7v.9h3.94v-.9h-1.32v-7.59h-1.16l-1.58.61v1l1.71-.63v6.63Z" transform="translate(-437.84 -197.34)"/><path class="cls-4" d="M450.53,227.68v-4.37a2,2,0,0,0-.54-1.54,2.07,2.07,0,0,0-1.5-.52h-.24a1.86,1.86,0,0,0-2,2.06v4.37a2,2,0,0,0,.56,1.53,2,2,0,0,0,1.48.53h.24a2.07,2.07,0,0,0,1.49-.53A2,2,0,0,0,450.53,227.68Zm-1-4.6-2.25,3.29v-3.29a.86.86,0,0,1,.28-.65,1,1,0,0,1,.72-.27h.24a1,1,0,0,1,.73.27A.86.86,0,0,1,449.5,223.08Zm-2.25,4.83,2.25-3.28v3.28a.86.86,0,0,1-.28.65,1,1,0,0,1-.73.27h-.24a1,1,0,0,1-.72-.27A.86.86,0,0,1,447.25,227.91Z" transform="translate(-437.84 -197.34)"/><path class="cls-4" d="M446.46,265.22v.91h3.94v-.91h-1.32v-7.58h-1.16l-1.58.61v1l1.71-.63v6.62Z" transform="translate(-437.84 -197.34)"/><path class="cls-4" d="M446.46,289.51v.91h3.94v-.91h-1.32v-7.58h-1.16l-1.58.6v1l1.71-.63v6.63Z" transform="translate(-437.84 -197.34)"/><path class="cls-4" d="M446.46,253.7v.91h3.94v-.91h-1.32v-7.59h-1.16l-1.58.61v1l1.71-.63v6.63Z" transform="translate(-437.84 -197.34)"/><path class="cls-4" d="M450.53,239.81v-4.37a2,2,0,0,0-.54-1.54,2.07,2.07,0,0,0-1.5-.52h-.24a1.86,1.86,0,0,0-2,2.06v4.37a2,2,0,0,0,.56,1.53,2,2,0,0,0,1.48.53h.24a2.07,2.07,0,0,0,1.49-.53A2,2,0,0,0,450.53,239.81Zm-1-4.6-2.25,3.29v-3.29a.86.86,0,0,1,.28-.65,1,1,0,0,1,.72-.27h.24a1,1,0,0,1,.73.27A.86.86,0,0,1,449.5,235.21ZM447.25,240l2.25-3.28V240a.88.88,0,0,1-.28.65,1,1,0,0,1-.73.27h-.24a1,1,0,0,1-.72-.27A.88.88,0,0,1,447.25,240Z" transform="translate(-437.84 -197.34)"/><path class="cls-4" d="M446.46,276.92v.91h3.94v-.91h-1.32v-7.58h-1.16l-1.58.6v1l1.71-.63v6.62Z" transform="translate(-437.84 -197.34)"/><polygon class="cls-5" points="37.09 29.71 37.09 65.64 67.67 96.1 103.22 96.1 37.09 29.71"/><polygon class="cls-5" points="55.99 39.33 95.04 0.17 59.74 0.17 38.49 21.5 55.99 39.33"/><polygon class="cls-5" points="55.99 39.33 95.04 0.17 59.74 0.17 38.49 21.5 55.99 39.33"/><polygon class="cls-6" points="55.99 39.33 95.04 0.17 59.74 0.17 38.49 21.5 55.99 39.33"/><polygon class="cls-7" points="37.09 29.71 37.09 65.64 67.67 96.1 103.22 96.1 37.09 29.71"/><g class="cls-8"><path class="cls-9" d="M484.63,242.54v2.82h7.78V239.9h-3.2m7.74,5.47h-2m0-2.73h2m0-2.74h-2m-10.32,8.19H497m-10.3-9.26v1.07h-6v19.52h18.84v-7.67M480.67,239.9l3.51-3.51m18,11.71h2.95m0-2.73h-2.95m-13.33,16.68v3.35h18.84v-5.56m-23-6.31h7.49m4.83-2.72H484.63m20.48,5.47h-2.95m0-2.72h2.95m0-2.73h-2.95" transform="translate(-437.84 -197.34)"/></g><g class="cls-8"><polygon class="cls-10" points="51.66 14.49 58.93 14.49 58.92 5.08 54.85 5.08 51.66 8.28 51.66 14.49"/><path class="cls-10" d="M498.92,215.75l-1.48-1.48-9.13,7.88h0l4.24,4.23h0l7.88-9.15Z" transform="translate(-437.84 -197.34)"/><path class="cls-10" d="M501.26,213.43a8.94,8.94,0,1,0-2.61-6.32,8.63,8.63,0,0,0,2.61,6.32Zm1.54-7.82-.59-.32a5.4,5.4,0,0,1,1.12-1.91l.56.36a1.19,1.19,0,0,0,1.17,0l.88-.51a1.16,1.16,0,0,0,.55-1l0-.68a6.16,6.16,0,0,1,2.21,0v.67a1.15,1.15,0,0,0,.54,1l.89.51a1.15,1.15,0,0,0,1.16,0l.57-.35a5.31,5.31,0,0,1,1.12,1.91l-.59.33a1.16,1.16,0,0,0-.63,1v1a1.16,1.16,0,0,0,.63,1l.59.32a5.35,5.35,0,0,1-1.12,1.92l-.57-.35a1.15,1.15,0,0,0-1.16-.05l-.89.51a1.17,1.17,0,0,0-.54,1v.68a6.16,6.16,0,0,1-2.21,0l0-.67a1.16,1.16,0,0,0-.55-1l-.88-.52a1.2,1.2,0,0,0-1.17.05l-.56.35a5.35,5.35,0,0,1-1.12-1.92l.59-.32a1.16,1.16,0,0,0,.63-1v-1A1.16,1.16,0,0,0,502.8,205.61Z" transform="translate(-437.84 -197.34)"/><path class="cls-10" d="M507.58,209.37a2.25,2.25,0,0,0,2.25-2.26,2.19,2.19,0,0,0-.66-1.6,2.25,2.25,0,0,0-3.18,0,2.27,2.27,0,0,0,0,3.2A2.17,2.17,0,0,0,507.58,209.37Z" transform="translate(-437.84 -197.34)"/></g><g class="cls-8"><path class="cls-9" d="M511.4,273.88v-5.22h-.16c-1.6.06-3,1.09-4.2,3.07-.18.3-.36.63-.54,1l-.18.38a17.49,17.49,0,0,0-1.09,3,12.84,12.84,0,0,0,3,1.07m3.14-8.53h.16a13.39,13.39,0,0,1,6.08,1.44m6.18,6.15H511.43a.79.79,0,0,0-.57.25.66.66,0,0,0-.2.31.75.75,0,0,0-.05.26v10h15.19v-9m-7.2,4.69-1.69,1.69-.55-5.59,4.55,3.28Zm-7.05-14.16c1.6.06,3,1.09,4.2,3.07.18.3.36.63.54,1l.18.38c.12.26.23.52.34.79m-18.9,11.85a14.83,14.83,0,0,1-.35-3.24h0a13.27,13.27,0,0,1,3.68-9.4l.37-.38a14.06,14.06,0,0,1,1.08-1,13.15,13.15,0,0,1,8.54-3.07m-4.72,19.65a12.26,12.26,0,0,0-1.29.56,18.58,18.58,0,0,0,1.09,3l.18.38q.27.53.54,1m-4.34-2.73a13.61,13.61,0,0,1,2.53-1.66,25.27,25.27,0,0,1-.75-6.38h-6.91m7.66-6.37a25.19,25.19,0,0,0-.75,6.37h3.78m-7-9.4.37.39a14.06,14.06,0,0,0,1.08,1,13.61,13.61,0,0,0,2.53,1.66m10.38,17.37.08-.13.06-.1c.19-.31.37-.64.55-1l.18-.38.33-.74m5.39,0c-.21.25-.43.5-.66.74a4.27,4.27,0,0,1-.36.38q-.52.53-1.08,1l-.17.13m-9.31-6.28h-2v.24a1.31,1.31,0,0,0,.4,1l.06.05a1.28,1.28,0,0,0,.92.36h16.48a1.38,1.38,0,0,0,1.37-1.38v-.24h-2m-14.41,4v2.15" transform="translate(-437.84 -197.34)"/></g></g></g></svg>