<svg id="Layer_1" data-name="Layer 1" xmlns="http://www.w3.org/2000/svg" viewBox="0 0 102.28 95.93"><defs><style>.cls-1{fill:#010101;}</style></defs><polygon class="cls-1" points="55.05 39.16 94.1 0 58.8 0 37.55 21.33 55.05 39.16"/><polygon class="cls-1" points="36.15 29.54 36.15 65.47 66.73 95.93 102.28 95.93 36.15 29.54"/><path class="cls-1" d="M467.12,150.84v1h4.3v-1H470v-8.26h-1.26l-1.73.66v1.07l1.86-.69v7.22Z" transform="translate(-466.86 -142.38)"/><path class="cls-1" d="M471.56,162.81v-4.76a2.21,2.21,0,0,0-.59-1.68,2.26,2.26,0,0,0-1.63-.57h-.26a2.26,2.26,0,0,0-1.63.57,2.21,2.21,0,0,0-.59,1.68v4.76a2,2,0,0,0,2.22,2.25h.26a2,2,0,0,0,2.22-2.25Zm-1.12-5L468,161.38V157.8a.93.93,0,0,1,.31-.71,1.09,1.09,0,0,1,.79-.3h.26a1.09,1.09,0,0,1,.79.3A.93.93,0,0,1,470.44,157.8ZM468,163.06l2.46-3.57v3.57a.93.93,0,0,1-.31.71,1.09,1.09,0,0,1-.79.3h-.26a1.09,1.09,0,0,1-.79-.3A.93.93,0,0,1,468,163.06Z" transform="translate(-466.86 -142.38)"/><path class="cls-1" d="M471.56,176v-4.76a2.18,2.18,0,0,0-.59-1.68,2.26,2.26,0,0,0-1.63-.57h-.26a2.26,2.26,0,0,0-1.63.57,2.18,2.18,0,0,0-.59,1.68V176a2.2,2.2,0,0,0,.6,1.67,2.26,2.26,0,0,0,1.62.58h.26a2.26,2.26,0,0,0,1.62-.58A2.2,2.2,0,0,0,471.56,176Zm-1.12-5L468,174.61V171a.91.91,0,0,1,.31-.7,1.09,1.09,0,0,1,.79-.3h.26a1.09,1.09,0,0,1,.79.3A.91.91,0,0,1,470.44,171ZM468,176.29l2.46-3.57v3.57a1,1,0,0,1-.31.71,1.13,1.13,0,0,1-.79.29h-.26a1.13,1.13,0,0,1-.79-.29A1,1,0,0,1,468,176.29Z" transform="translate(-466.86 -142.38)"/><path class="cls-1" d="M467.12,190.52v1h4.3v-1H470v-8.26h-1.26l-1.73.66V184l1.86-.69v7.22Z" transform="translate(-466.86 -142.38)"/><path class="cls-1" d="M471.56,202.5v-4.76a2.21,2.21,0,0,0-.59-1.68,2.26,2.26,0,0,0-1.63-.57h-.26a2.26,2.26,0,0,0-1.63.57,2.21,2.21,0,0,0-.59,1.68v4.76a2,2,0,0,0,2.22,2.25h.26a2,2,0,0,0,2.22-2.25Zm-1.12-5L468,201.07v-3.58a.93.93,0,0,1,.31-.71,1.09,1.09,0,0,1,.79-.3h.26a1.09,1.09,0,0,1,.79.3A.93.93,0,0,1,470.44,197.49ZM468,202.75l2.46-3.57v3.57a1,1,0,0,1-.31.71,1.09,1.09,0,0,1-.79.3h-.26a1.09,1.09,0,0,1-.79-.3A1,1,0,0,1,468,202.75Z" transform="translate(-466.86 -142.38)"/><path class="cls-1" d="M467.13,217v1h4.3v-1H470v-8.27h-1.25l-1.74.66v1.07l1.87-.68V217Z" transform="translate(-466.86 -142.38)"/><path class="cls-1" d="M467.13,230.22v1h4.3v-1H470V222h-1.25l-1.74.66v1.08l1.87-.69v7.22Z" transform="translate(-466.86 -142.38)"/><path class="cls-1" d="M491.53,157.75v1h4.3v-1h-1.44v-8.27h-1.26l-1.73.66v1.07l1.86-.69v7.23Z" transform="translate(-466.86 -142.38)"/><path class="cls-1" d="M496,169.72V165a2.21,2.21,0,0,0-.59-1.68,2.26,2.26,0,0,0-1.63-.57h-.26a2.26,2.26,0,0,0-1.63.57,2.21,2.21,0,0,0-.6,1.68v4.77a2.22,2.22,0,0,0,.61,1.67,2.26,2.26,0,0,0,1.62.57h.26a2.26,2.26,0,0,0,1.62-.57A2.22,2.22,0,0,0,496,169.72Zm-1.12-5-2.46,3.59V164.7a1,1,0,0,1,.31-.71,1.13,1.13,0,0,1,.79-.29h.26a1.13,1.13,0,0,1,.79.29A1,1,0,0,1,494.85,164.7ZM492.39,170l2.46-3.58V170a.91.91,0,0,1-.31.7,1.09,1.09,0,0,1-.79.3h-.26a1.09,1.09,0,0,1-.79-.3A.91.91,0,0,1,492.39,170Z" transform="translate(-466.86 -142.38)"/><path class="cls-1" d="M496,182.94v-4.76a2.21,2.21,0,0,0-.59-1.68,2.26,2.26,0,0,0-1.63-.57h-.26a2.26,2.26,0,0,0-1.63.57,2.21,2.21,0,0,0-.6,1.68v4.76a2.06,2.06,0,0,0,2.23,2.25h.26a2,2,0,0,0,2.22-2.25Zm-1.12-5-2.46,3.58v-3.58a1,1,0,0,1,.31-.71,1.09,1.09,0,0,1,.79-.3h.26a1.09,1.09,0,0,1,.79.3A1,1,0,0,1,494.85,177.93Zm-2.46,5.26,2.46-3.57v3.57a.93.93,0,0,1-.31.71,1.09,1.09,0,0,1-.79.3h-.26a1.09,1.09,0,0,1-.79-.3A.93.93,0,0,1,492.39,183.19Z" transform="translate(-466.86 -142.38)"/><path class="cls-1" d="M491.53,197.43v1h4.3v-1h-1.44v-8.27h-1.26l-1.73.66v1.07l1.86-.68v7.22Z" transform="translate(-466.86 -142.38)"/><path class="cls-1" d="M496,209.4v-4.76a2.21,2.21,0,0,0-.59-1.68,2.26,2.26,0,0,0-1.63-.57h-.26a2.26,2.26,0,0,0-1.63.57,2.21,2.21,0,0,0-.6,1.68v4.76a2.23,2.23,0,0,0,.61,1.68,2.26,2.26,0,0,0,1.62.57h.26a2.26,2.26,0,0,0,1.62-.57A2.23,2.23,0,0,0,496,209.4Zm-1.12-5L492.39,208v-3.58a1,1,0,0,1,.31-.71,1.09,1.09,0,0,1,.79-.3h.26a1.09,1.09,0,0,1,.79.3A1,1,0,0,1,494.85,204.39Zm-2.46,5.26,2.46-3.57v3.57a.93.93,0,0,1-.31.71,1.09,1.09,0,0,1-.79.3h-.26a1.09,1.09,0,0,1-.79-.3A.93.93,0,0,1,492.39,209.65Z" transform="translate(-466.86 -142.38)"/><path class="cls-1" d="M496,222.64v-4.77a2.21,2.21,0,0,0-.59-1.68,2.3,2.3,0,0,0-1.63-.56h-.26a2.3,2.3,0,0,0-1.63.56,2.21,2.21,0,0,0-.6,1.68v4.77a2.21,2.21,0,0,0,.61,1.67,2.26,2.26,0,0,0,1.62.58h.26a2.26,2.26,0,0,0,1.62-.58A2.2,2.2,0,0,0,496,222.64Zm-1.12-5-2.46,3.59v-3.59a.91.91,0,0,1,.31-.7,1.09,1.09,0,0,1,.79-.3h.26a1.09,1.09,0,0,1,.79.3A.91.91,0,0,1,494.85,217.62Zm-2.46,5.27,2.46-3.57v3.57a1,1,0,0,1-.31.71,1.13,1.13,0,0,1-.79.29h-.26a1.13,1.13,0,0,1-.79-.29A1,1,0,0,1,492.39,222.89Z" transform="translate(-466.86 -142.38)"/><path class="cls-1" d="M496,235.87v-4.76a2.19,2.19,0,0,0-.59-1.68,2.26,2.26,0,0,0-1.63-.57h-.26a2.26,2.26,0,0,0-1.63.57,2.2,2.2,0,0,0-.6,1.68v4.76a2.21,2.21,0,0,0,.61,1.67,2.26,2.26,0,0,0,1.62.58h.26a2.26,2.26,0,0,0,1.62-.58A2.2,2.2,0,0,0,496,235.87Zm-1.12-5-2.46,3.59v-3.59a.93.93,0,0,1,.31-.7,1.09,1.09,0,0,1,.79-.3h.26a1.09,1.09,0,0,1,.79.3A.93.93,0,0,1,494.85,230.85Zm-2.46,5.27,2.46-3.57v3.57a1,1,0,0,1-.31.71,1.13,1.13,0,0,1-.79.29h-.26a1.13,1.13,0,0,1-.79-.29A1,1,0,0,1,492.39,236.12Z" transform="translate(-466.86 -142.38)"/><path class="cls-1" d="M483.49,150.34v.94h4.1v-.94h-1.37v-7.9H485l-1.66.63v1l1.78-.66v6.9Z" transform="translate(-466.86 -142.38)"/><path class="cls-1" d="M487.73,161.77v-4.54a2.12,2.12,0,0,0-.57-1.61,2.15,2.15,0,0,0-1.55-.54h-.25a2.18,2.18,0,0,0-1.56.54,2.12,2.12,0,0,0-.57,1.61v4.54a2,2,0,0,0,2.13,2.15h.25a2.15,2.15,0,0,0,1.55-.55A2.11,2.11,0,0,0,487.73,161.77ZM486.66,157l-2.35,3.42V157a.94.94,0,0,1,.29-.68,1.05,1.05,0,0,1,.76-.28h.25a1,1,0,0,1,.75.28A.91.91,0,0,1,486.66,157Zm-2.35,5,2.35-3.41V162a.9.9,0,0,1-.3.68,1,1,0,0,1-.75.28h-.25a1.05,1.05,0,0,1-.76-.28A.92.92,0,0,1,484.31,162Z" transform="translate(-466.86 -142.38)"/><path class="cls-1" d="M483.49,175.6v1h4.1v-1h-1.37v-7.89H485l-1.66.63v1l1.78-.65v6.89Z" transform="translate(-466.86 -142.38)"/><path class="cls-1" d="M487.73,187v-4.54a2.12,2.12,0,0,0-.57-1.61,2.15,2.15,0,0,0-1.55-.54h-.25a2.18,2.18,0,0,0-1.56.54,2.12,2.12,0,0,0-.57,1.61V187a2,2,0,0,0,2.13,2.15h.25a2.15,2.15,0,0,0,1.55-.55A2.11,2.11,0,0,0,487.73,187Zm-1.07-4.78-2.35,3.42v-3.42a.94.94,0,0,1,.29-.68,1.05,1.05,0,0,1,.76-.28h.25a1,1,0,0,1,.75.28A.91.91,0,0,1,486.66,182.25Zm-2.35,5,2.35-3.41v3.41a.91.91,0,0,1-.3.68,1,1,0,0,1-.75.28h-.25a1.05,1.05,0,0,1-.76-.28A.94.94,0,0,1,484.31,187.27Z" transform="translate(-466.86 -142.38)"/><path class="cls-1" d="M483.49,213.51v1h4.1v-1h-1.37v-7.89H485l-1.66.63v1l1.78-.65v6.89Z" transform="translate(-466.86 -142.38)"/><path class="cls-1" d="M487.73,199.56V195a1.93,1.93,0,0,0-2.12-2.15h-.25a2.18,2.18,0,0,0-1.56.54,2.14,2.14,0,0,0-.57,1.61v4.54a2,2,0,0,0,2.13,2.15h.25a2.15,2.15,0,0,0,1.55-.55A2.11,2.11,0,0,0,487.73,199.56Zm-1.07-4.78-2.35,3.42v-3.42a.94.94,0,0,1,.29-.68,1.05,1.05,0,0,1,.76-.28h.25a1,1,0,0,1,.75.28A.91.91,0,0,1,486.66,194.78Zm-2.35,5,2.35-3.42v3.42a.89.89,0,0,1-.3.67,1,1,0,0,1-.75.28h-.25a1.05,1.05,0,0,1-.76-.28A.92.92,0,0,1,484.31,199.81Z" transform="translate(-466.86 -142.38)"/><path class="cls-1" d="M483.49,226.14v.94h4.1v-.94h-1.37v-7.9H485l-1.66.63v1l1.78-.66v6.9Z" transform="translate(-466.86 -142.38)"/><path class="cls-1" d="M475.44,161.72v.9h3.92v-.9h-1.31v-7.55H476.9l-1.58.6v1l1.7-.63v6.6Z" transform="translate(-466.86 -142.38)"/><path class="cls-1" d="M479.5,172.66v-4.35a2,2,0,0,0-.55-1.54,2.07,2.07,0,0,0-1.48-.52h-.24a2.09,2.09,0,0,0-1.49.52,2,2,0,0,0-.54,1.54v4.35a2,2,0,0,0,.55,1.53,2,2,0,0,0,1.48.52h.24a1.86,1.86,0,0,0,2-2.05Zm-1-4.58-2.25,3.27v-3.27a.87.87,0,0,1,.29-.65,1,1,0,0,1,.72-.27h.24a1,1,0,0,1,.72.27A.86.86,0,0,1,478.47,168.08Zm-2.25,4.81,2.25-3.27v3.27a.84.84,0,0,1-.28.64,1,1,0,0,1-.72.27h-.24a1,1,0,0,1-.72-.27A.85.85,0,0,1,476.22,172.89Z" transform="translate(-466.86 -142.38)"/><path class="cls-1" d="M475.44,210.05V211h3.92v-.91h-1.31V202.5H476.9l-1.58.6v1l1.7-.63v6.6Z" transform="translate(-466.86 -142.38)"/><path class="cls-1" d="M475.44,234.24v.9h3.92v-.9h-1.31v-7.55H476.9l-1.58.6v1l1.7-.63v6.6Z" transform="translate(-466.86 -142.38)"/><path class="cls-1" d="M475.44,198.57v.91h3.92v-.91h-1.31V191H476.9l-1.58.6v1L477,192v6.6Z" transform="translate(-466.86 -142.38)"/><path class="cls-1" d="M479.5,184.74v-4.35a2,2,0,0,0-.55-1.54,2.07,2.07,0,0,0-1.48-.52h-.24a2.09,2.09,0,0,0-1.49.52,2,2,0,0,0-.54,1.54v4.35a2,2,0,0,0,.55,1.53,2,2,0,0,0,1.48.52h.24a1.86,1.86,0,0,0,2-2Zm-1-4.58-2.25,3.27v-3.27a.87.87,0,0,1,.29-.65,1,1,0,0,1,.72-.27h.24a1,1,0,0,1,.72.27A.86.86,0,0,1,478.47,180.16ZM476.22,185l2.25-3.27V185a.84.84,0,0,1-.28.64,1,1,0,0,1-.72.27h-.24a1,1,0,0,1-.72-.27A.85.85,0,0,1,476.22,185Z" transform="translate(-466.86 -142.38)"/><path class="cls-1" d="M475.44,221.7v.91h3.92v-.91h-1.31v-7.55H476.9l-1.58.6v1l1.7-.63v6.6Z" transform="translate(-466.86 -142.38)"/></svg>