<svg xmlns="http://www.w3.org/2000/svg" xmlns:xlink="http://www.w3.org/1999/xlink" viewBox="0 0 248.88 96.48"><defs><style>.cls-1{isolation:isolate;}.cls-2{fill:#010101;}.cls-10,.cls-12,.cls-3{fill:#afdedc;}.cls-10,.cls-11,.cls-12,.cls-13,.cls-3,.cls-9{mix-blend-mode:multiply;}.cls-4{fill:url(#New_Gradient_Swatch_copy_3);}.cls-5{fill:url(#New_Gradient_Swatch_copy_3-2);}.cls-6{opacity:0.25;}.cls-7,.cls-8{fill:none;stroke:#fff;stroke-linecap:round;stroke-linejoin:round;}.cls-7{fill-rule:evenodd;}.cls-10{opacity:0.7;}.cls-11,.cls-12{opacity:0.5;}.cls-13{opacity:0.65;}</style><linearGradient id="New_Gradient_Swatch_copy_3" x1="37.5" y1="19.58" x2="94.04" y2="19.58" gradientUnits="userSpaceOnUse"><stop offset="0" stop-color="#f89b4c"/><stop offset="1" stop-color="#ee2433"/></linearGradient><linearGradient id="New_Gradient_Swatch_copy_3-2" x1="36.1" y1="62.73" x2="102.23" y2="62.73" xlink:href="#New_Gradient_Swatch_copy_3"/></defs><g class="cls-1"><g id="Layer_1" data-name="Layer 1"><path class="cls-2" d="M224.17,440.34a26.82,26.82,0,1,1-26.74,26.89A26.77,26.77,0,0,1,224.17,440.34Zm0,46.19a19.37,19.37,0,1,0-19.29-19.3A19.37,19.37,0,0,0,224.17,486.53Z" transform="translate(-94.19 -398.22)"/><path class="cls-2" d="M258.29,485.71c.67-1,1.26-2.09,1.93-3.06a1.7,1.7,0,0,1,2.54-.59c.44.37,6.18,5.14,11.92,5.14,5.14,0,8.41-3.13,8.41-6.93,0-4.47-3.87-7.3-11.24-10.35-7.6-3.21-13.56-7.16-13.56-15.8,0-5.81,4.47-13.78,16.31-13.78a25.21,25.21,0,0,1,13.78,4.4,1.76,1.76,0,0,1,.45,2.53c-.6.89-1.27,1.94-1.86,2.83a1.77,1.77,0,0,1-2.61.75c-.52-.3-5.74-3.73-10.06-3.73-6.25,0-8.41,3.95-8.41,6.71,0,4.24,3.27,6.85,9.46,9.38,8.64,3.5,16,7.6,16,16.69,0,7.75-6.92,14.08-16.61,14.08a24.07,24.07,0,0,1-16-5.89A1.55,1.55,0,0,1,258.29,485.71Z" transform="translate(-94.19 -398.22)"/><path class="cls-2" d="M300.31,442.5a1.46,1.46,0,0,1,1.41-1.41h4.92a1.42,1.42,0,0,1,1.42,1.41v20.79h27.26V442.5a1.42,1.42,0,0,1,1.42-1.41h4.91a1.46,1.46,0,0,1,1.42,1.41v49.32a1.46,1.46,0,0,1-1.42,1.41h-4.91a1.42,1.42,0,0,1-1.42-1.41V470.29H308.06v21.53a1.42,1.42,0,0,1-1.42,1.41h-4.92a1.46,1.46,0,0,1-1.41-1.41Z" transform="translate(-94.19 -398.22)"/><path class="cls-2" d="M318.52,487.11l-.9.42a.16.16,0,0,1-.24-.08l-.14-.39a.2.2,0,0,1,0-.22l1.58-1.44h.55a.21.21,0,0,1,.2.21v7.18a.21.21,0,0,1-.2.21h-.68a.21.21,0,0,1-.21-.21Z" transform="translate(-94.19 -398.22)"/><path class="cls-2" d="M322,491.56a.78.78,0,0,1,.78.78.77.77,0,0,1-.78.77.76.76,0,0,1-.77-.77A.77.77,0,0,1,322,491.56Z" transform="translate(-94.19 -398.22)"/><path class="cls-2" d="M323.87,489.2c0-2.45,1-3.92,2.77-3.92s2.76,1.47,2.76,3.92-1,3.91-2.76,3.91S323.87,491.65,323.87,489.2Zm4.4,0c0-1.83-.59-2.89-1.63-2.89S325,487.37,325,489.2s.59,2.9,1.64,2.9S328.27,491.06,328.27,489.2Z" transform="translate(-94.19 -398.22)"/><polygon class="cls-3" points="36.1 29.54 36.1 65.47 66.67 95.93 102.23 95.93 36.1 29.54"/><polygon class="cls-3" points="55 39.16 94.04 0 58.74 0 37.5 21.33 55 39.16"/><polygon class="cls-3" points="55 39.16 94.04 0 58.74 0 37.5 21.33 55 39.16"/><polygon class="cls-4" points="55 39.16 94.04 0 58.74 0 37.5 21.33 55 39.16"/><polygon class="cls-5" points="36.1 29.54 36.1 65.47 66.67 95.93 102.23 95.93 36.1 29.54"/><g class="cls-6"><path class="cls-7" d="M140,443.25v2.82h7.78v-5.46h-3.2m7.74,5.47h-2m0-2.73h2m0-2.74h-2M140,448.8H152.3M142,439.55v1.06h-6v19.52h18.84v-7.67M136,440.61l3.51-3.51m18,11.71h3m0-2.73h-3m-13.33,16.68v3.35H163v-5.56m-23-6.31h7.5m4.82-2.72H140M160.46,457h-3m0-2.72h3m0-2.72h-3" transform="translate(-94.19 -398.22)"/></g><g class="cls-6"><polygon class="cls-8" points="50.67 14.32 57.94 14.32 57.93 4.91 53.85 4.91 50.67 8.11 50.67 14.32"/><path class="cls-8" d="M154.27,416.46,152.79,415l-9.13,7.88h0l4.23,4.23h0l7.88-9.16Z" transform="translate(-94.19 -398.22)"/><path class="cls-8" d="M156.62,414.14a8.92,8.92,0,1,0-2.62-6.31,8.6,8.6,0,0,0,2.62,6.31Zm1.54-7.82-.6-.32a5.42,5.42,0,0,1,1.12-1.9l.56.35a1.17,1.17,0,0,0,1.17,0l.89-.51a1.15,1.15,0,0,0,.54-1l0-.68a6.21,6.21,0,0,1,2.22,0l0,.67a1.19,1.19,0,0,0,.55,1l.88.5a1.15,1.15,0,0,0,1.17,0l.56-.35A5.4,5.4,0,0,1,168.3,406l-.59.33a1.16,1.16,0,0,0-.63,1v1a1.16,1.16,0,0,0,.63,1l.59.33a5.4,5.4,0,0,1-1.12,1.91l-.56-.35a1.15,1.15,0,0,0-1.17,0l-.88.5a1.18,1.18,0,0,0-.55,1l0,.67a6.21,6.21,0,0,1-2.22,0l0-.67a1.15,1.15,0,0,0-.54-1l-.89-.51a1.17,1.17,0,0,0-1.17,0l-.55.35a5.38,5.38,0,0,1-1.13-1.92l.6-.32a1.17,1.17,0,0,0,.62-1v-1A1.17,1.17,0,0,0,158.16,406.32Z" transform="translate(-94.19 -398.22)"/><path class="cls-8" d="M162.93,410.08a2.25,2.25,0,0,0,2.25-2.25,2.25,2.25,0,1,0-4.5,0,2.25,2.25,0,0,0,2.25,2.25Z" transform="translate(-94.19 -398.22)"/></g><g class="cls-6"><path class="cls-7" d="M166.75,474.59v-5.22h-.16c-1.6.06-3,1.09-4.2,3.07-.18.3-.36.63-.54,1l-.18.38a18.09,18.09,0,0,0-1.08,3,12.61,12.61,0,0,0,3,1.07m3.14-8.53h.16a13.34,13.34,0,0,1,6.09,1.45m6.17,6.14H166.78a.79.79,0,0,0-.57.25.76.76,0,0,0-.24.57v10h15.2v-9M174,483.53l-1.69,1.69-.55-5.58,4.55,3.28Zm-7.05-14.16c1.6.06,3,1.09,4.2,3.07.18.3.36.63.54,1l.18.38c.12.26.24.52.34.79m-18.9,11.85a14.8,14.8,0,0,1-.35-3.23h0a13.32,13.32,0,0,1,3.68-9.4l.37-.38a14.06,14.06,0,0,1,1.08-1,13.22,13.22,0,0,1,8.54-3.07M161.88,489a12.26,12.26,0,0,0-1.29.56,17.67,17.67,0,0,0,1.08,3l.18.38c.18.35.36.68.55,1m-4.35-2.73a13.68,13.68,0,0,1,2.54-1.66,24.73,24.73,0,0,1-.76-6.37h-6.91m7.67-6.38a24.78,24.78,0,0,0-.76,6.37h3.78m-7-9.41.37.39a14.06,14.06,0,0,0,1.08,1,13.68,13.68,0,0,0,2.54,1.66M171,494.2l.08-.12a.41.41,0,0,1,.07-.11q.27-.47.54-1l.18-.38c.12-.24.22-.49.33-.74m5.39,0c-.21.25-.43.5-.65.74s-.24.26-.37.38q-.53.52-1.08,1l-.16.13M166,487.82h-2v.24a1.31,1.31,0,0,0,.41,1l0,.06a1.34,1.34,0,0,0,.92.35h16.48a1.32,1.32,0,0,0,1-.41,1.3,1.3,0,0,0,.4-1v-.24h-2m-14.42,4V494" transform="translate(-94.19 -398.22)"/></g><g class="cls-9"><path class="cls-3" d="M94.45,406.81v1h4.3v-1H97.31v-8.26H96.05l-1.73.66v1.07l1.86-.69v7.22Z" transform="translate(-94.19 -398.22)"/><path class="cls-3" d="M98.89,418.78V414a2.21,2.21,0,0,0-.59-1.68,2.26,2.26,0,0,0-1.63-.57h-.26a2.26,2.26,0,0,0-1.63.57,2.21,2.21,0,0,0-.59,1.68v4.76A2,2,0,0,0,96.41,421h.26a2,2,0,0,0,2.22-2.25Zm-1.12-5-2.46,3.58v-3.58a1,1,0,0,1,.31-.71,1.09,1.09,0,0,1,.79-.3h.26a1.09,1.09,0,0,1,.79.3A1,1,0,0,1,97.77,413.77ZM95.31,419l2.46-3.57V419a.93.93,0,0,1-.31.71,1.09,1.09,0,0,1-.79.3h-.26a1.09,1.09,0,0,1-.79-.3A.93.93,0,0,1,95.31,419Z" transform="translate(-94.19 -398.22)"/><path class="cls-3" d="M98.89,432v-4.76a2.21,2.21,0,0,0-.59-1.68,2.26,2.26,0,0,0-1.63-.57h-.26a2.26,2.26,0,0,0-1.63.57,2.21,2.21,0,0,0-.59,1.68V432a2,2,0,0,0,2.22,2.25h.26A2,2,0,0,0,98.89,432Zm-1.12-5-2.46,3.58V427a.93.93,0,0,1,.31-.71,1.09,1.09,0,0,1,.79-.3h.26a1.09,1.09,0,0,1,.79.3A.93.93,0,0,1,97.77,427Zm-2.46,5.26,2.46-3.57v3.57a1,1,0,0,1-.31.71,1.09,1.09,0,0,1-.79.3h-.26a1.09,1.09,0,0,1-.79-.3A1,1,0,0,1,95.31,432.26Z" transform="translate(-94.19 -398.22)"/><path class="cls-3" d="M94.45,446.5v1h4.3v-1H97.31v-8.27H96.05l-1.73.66V440l1.86-.69v7.23Z" transform="translate(-94.19 -398.22)"/><path class="cls-3" d="M98.89,458.47v-4.76A2.21,2.21,0,0,0,98.3,452a2.26,2.26,0,0,0-1.63-.57h-.26a2.26,2.26,0,0,0-1.63.57,2.21,2.21,0,0,0-.59,1.68v4.76a2,2,0,0,0,2.22,2.25h.26a2,2,0,0,0,2.22-2.25Zm-1.12-5L95.31,457v-3.58a.93.93,0,0,1,.31-.71,1.09,1.09,0,0,1,.79-.3h.26a1.09,1.09,0,0,1,.79.3A.93.93,0,0,1,97.77,453.46Zm-2.46,5.26,2.46-3.57v3.57a.93.93,0,0,1-.31.71,1.09,1.09,0,0,1-.79.3h-.26a1.09,1.09,0,0,1-.79-.3A.93.93,0,0,1,95.31,458.72Z" transform="translate(-94.19 -398.22)"/><path class="cls-3" d="M94.46,473v1h4.3v-1H97.31v-8.27H96.06l-1.74.66v1.08l1.87-.69V473Z" transform="translate(-94.19 -398.22)"/><path class="cls-3" d="M94.46,486.19v1h4.3v-1H97.31v-8.27H96.06l-1.74.67v1.07l1.87-.69v7.22Z" transform="translate(-94.19 -398.22)"/></g><g class="cls-9"><path class="cls-3" d="M118.86,413.72v1h4.3v-1h-1.44v-8.27h-1.26l-1.73.66v1.07l1.86-.68v7.22Z" transform="translate(-94.19 -398.22)"/><path class="cls-3" d="M123.3,425.69v-4.77a2.21,2.21,0,0,0-.59-1.68,2.3,2.3,0,0,0-1.63-.56h-.26a2.3,2.3,0,0,0-1.63.56,2.21,2.21,0,0,0-.59,1.68v4.77a2.2,2.2,0,0,0,.6,1.67,2.26,2.26,0,0,0,1.62.58h.26a2.26,2.26,0,0,0,1.62-.58A2.2,2.2,0,0,0,123.3,425.69Zm-1.12-5-2.46,3.59v-3.59a.91.91,0,0,1,.31-.7,1.09,1.09,0,0,1,.79-.3h.26a1.09,1.09,0,0,1,.79.3A.91.91,0,0,1,122.18,420.67Zm-2.46,5.27,2.46-3.57v3.57a1,1,0,0,1-.31.71,1.13,1.13,0,0,1-.79.29h-.26a1.13,1.13,0,0,1-.79-.29A1,1,0,0,1,119.72,425.94Z" transform="translate(-94.19 -398.22)"/><path class="cls-3" d="M123.3,438.91v-4.76a2.21,2.21,0,0,0-.59-1.68,2.26,2.26,0,0,0-1.63-.57h-.26a2.26,2.26,0,0,0-1.63.57,2.21,2.21,0,0,0-.59,1.68v4.76a2.23,2.23,0,0,0,.6,1.68,2.26,2.26,0,0,0,1.62.57h.26a2.26,2.26,0,0,0,1.62-.57A2.23,2.23,0,0,0,123.3,438.91Zm-1.12-5-2.46,3.58V433.9a1,1,0,0,1,.31-.71,1.09,1.09,0,0,1,.79-.3h.26a1.09,1.09,0,0,1,.79.3A1,1,0,0,1,122.18,433.9Zm-2.46,5.26,2.46-3.57v3.57a.93.93,0,0,1-.31.71,1.09,1.09,0,0,1-.79.3h-.26a1.09,1.09,0,0,1-.79-.3A.93.93,0,0,1,119.72,439.16Z" transform="translate(-94.19 -398.22)"/><path class="cls-3" d="M118.86,453.4v1h4.3v-1h-1.44v-8.27h-1.26l-1.73.66v1.08l1.86-.69v7.22Z" transform="translate(-94.19 -398.22)"/><path class="cls-3" d="M123.3,465.37v-4.76a2.21,2.21,0,0,0-.59-1.68,2.26,2.26,0,0,0-1.63-.57h-.26a2.26,2.26,0,0,0-1.63.57,2.21,2.21,0,0,0-.59,1.68v4.76a2.23,2.23,0,0,0,.6,1.68,2.26,2.26,0,0,0,1.62.57h.26a2.26,2.26,0,0,0,1.62-.57A2.23,2.23,0,0,0,123.3,465.37Zm-1.12-5L119.72,464v-3.59a1,1,0,0,1,.31-.71,1.13,1.13,0,0,1,.79-.29h.26a1.13,1.13,0,0,1,.79.29A1,1,0,0,1,122.18,460.36Zm-2.46,5.27,2.46-3.58v3.58a.91.91,0,0,1-.31.7,1.09,1.09,0,0,1-.79.3h-.26a1.09,1.09,0,0,1-.79-.3A.91.91,0,0,1,119.72,465.63Z" transform="translate(-94.19 -398.22)"/><path class="cls-3" d="M123.3,478.61v-4.76a2.21,2.21,0,0,0-.59-1.68,2.26,2.26,0,0,0-1.63-.57h-.26a2.26,2.26,0,0,0-1.63.57,2.21,2.21,0,0,0-.59,1.68v4.76a2.2,2.2,0,0,0,.6,1.67,2.26,2.26,0,0,0,1.62.58h.26a2.26,2.26,0,0,0,1.62-.58A2.2,2.2,0,0,0,123.3,478.61Zm-1.12-5-2.46,3.59v-3.59a.93.93,0,0,1,.31-.7,1.09,1.09,0,0,1,.79-.3h.26a1.09,1.09,0,0,1,.79.3A.93.93,0,0,1,122.18,473.59Zm-2.46,5.27,2.46-3.57v3.57a1,1,0,0,1-.31.71,1.09,1.09,0,0,1-.79.29h-.26a1.09,1.09,0,0,1-.79-.29A1,1,0,0,1,119.72,478.86Z" transform="translate(-94.19 -398.22)"/><path class="cls-3" d="M123.3,491.84v-4.76a2.21,2.21,0,0,0-.59-1.68,2.26,2.26,0,0,0-1.63-.57h-.26a2.26,2.26,0,0,0-1.63.57,2.21,2.21,0,0,0-.59,1.68v4.76a2,2,0,0,0,2.22,2.25h.26a2,2,0,0,0,2.22-2.25Zm-1.12-5-2.46,3.58v-3.58a.93.93,0,0,1,.31-.71,1.09,1.09,0,0,1,.79-.3h.26a1.09,1.09,0,0,1,.79.3A.93.93,0,0,1,122.18,486.83Zm-2.46,5.26,2.46-3.57v3.57a1,1,0,0,1-.31.71,1.09,1.09,0,0,1-.79.3h-.26a1.09,1.09,0,0,1-.79-.3A1,1,0,0,1,119.72,492.09Z" transform="translate(-94.19 -398.22)"/></g><path class="cls-10" d="M110.82,406.31v.95h4.1v-.95h-1.37v-7.9h-1.2l-1.66.64v1l1.78-.66v6.9Z" transform="translate(-94.19 -398.22)"/><path class="cls-10" d="M115.06,417.75V413.2a1.93,1.93,0,0,0-2.12-2.15h-.25a2.18,2.18,0,0,0-1.56.54,2.14,2.14,0,0,0-.57,1.61v4.55a2.11,2.11,0,0,0,.58,1.59,2.13,2.13,0,0,0,1.55.55h.25a2.15,2.15,0,0,0,1.55-.55A2.1,2.1,0,0,0,115.06,417.75ZM114,413l-2.35,3.42V413a.91.91,0,0,1,.3-.68,1,1,0,0,1,.75-.28h.25a1,1,0,0,1,.75.28A.91.91,0,0,1,114,413Zm-2.35,5,2.35-3.41V418a.89.89,0,0,1-.3.67,1.05,1.05,0,0,1-.75.29h-.25a1,1,0,0,1-.75-.29A.89.89,0,0,1,111.64,418Z" transform="translate(-94.19 -398.22)"/><path class="cls-10" d="M110.82,431.57v.95h4.1v-.95h-1.37v-7.89h-1.2l-1.66.63v1l1.78-.65v6.89Z" transform="translate(-94.19 -398.22)"/><path class="cls-10" d="M115.06,443v-4.54a1.93,1.93,0,0,0-2.12-2.15h-.25a2.18,2.18,0,0,0-1.56.54,2.14,2.14,0,0,0-.57,1.61V443a2,2,0,0,0,2.13,2.15h.25a2.15,2.15,0,0,0,1.55-.55A2.11,2.11,0,0,0,115.06,443ZM114,438.22l-2.35,3.42v-3.42a.91.91,0,0,1,.3-.68,1,1,0,0,1,.75-.28h.25a1,1,0,0,1,.75.28A.91.91,0,0,1,114,438.22Zm-2.35,5,2.35-3.41v3.41a.9.9,0,0,1-.3.68,1,1,0,0,1-.75.28h-.25a1,1,0,0,1-.75-.28A.9.9,0,0,1,111.64,443.24Z" transform="translate(-94.19 -398.22)"/><path class="cls-10" d="M110.82,469.48v.95h4.1v-.95h-1.37v-7.89h-1.2l-1.66.63v1l1.78-.65v6.89Z" transform="translate(-94.19 -398.22)"/><path class="cls-10" d="M115.06,455.54V451a1.93,1.93,0,0,0-2.12-2.15h-.25a2.18,2.18,0,0,0-1.56.54,2.14,2.14,0,0,0-.57,1.61v4.55a2.09,2.09,0,0,0,.58,1.59,2.13,2.13,0,0,0,1.55.55h.25a2.15,2.15,0,0,0,1.55-.55A2.09,2.09,0,0,0,115.06,455.54ZM114,450.75l-2.35,3.42v-3.42a.91.91,0,0,1,.3-.68,1,1,0,0,1,.75-.28h.25a1,1,0,0,1,.75.28A.91.91,0,0,1,114,450.75Zm-2.35,5,2.35-3.41v3.41a.89.89,0,0,1-.3.67,1.05,1.05,0,0,1-.75.29h-.25a1,1,0,0,1-.75-.29A.89.89,0,0,1,111.64,455.78Z" transform="translate(-94.19 -398.22)"/><path class="cls-10" d="M110.82,482.11v.95h4.1v-.95h-1.37v-7.9h-1.2l-1.66.64v1l1.78-.66v6.9Z" transform="translate(-94.19 -398.22)"/><g class="cls-11"><path class="cls-12" d="M102.77,417.69v.91h3.92v-.91h-1.31v-7.55h-1.15l-1.58.6v1l1.7-.63v6.6Z" transform="translate(-94.19 -398.22)"/><path class="cls-12" d="M106.83,428.63v-4.35a2,2,0,0,0-.55-1.54,2.07,2.07,0,0,0-1.48-.52h-.24a2.09,2.09,0,0,0-1.49.52,2,2,0,0,0-.54,1.54v4.35a2,2,0,0,0,.55,1.53,2,2,0,0,0,1.48.52h.24a1.86,1.86,0,0,0,2-2.05Zm-1-4.58-2.25,3.27v-3.27a.87.87,0,0,1,.29-.65,1,1,0,0,1,.72-.27h.24a1,1,0,0,1,.72.27A.86.86,0,0,1,105.8,424.05Zm-2.25,4.81,2.25-3.26v3.26a.84.84,0,0,1-.28.64,1,1,0,0,1-.72.28h-.24a1,1,0,0,1-.72-.28A.85.85,0,0,1,103.55,428.86Z" transform="translate(-94.19 -398.22)"/><path class="cls-12" d="M102.77,466v.91h3.92V466h-1.31v-7.55h-1.15l-1.58.6v1l1.7-.63V466Z" transform="translate(-94.19 -398.22)"/><path class="cls-12" d="M102.77,490.21v.91h3.92v-.91h-1.31v-7.55h-1.15l-1.58.6v1l1.7-.63v6.6Z" transform="translate(-94.19 -398.22)"/><path class="cls-12" d="M102.77,454.54v.91h3.92v-.91h-1.31V447h-1.15l-1.58.6v1l1.7-.63v6.6Z" transform="translate(-94.19 -398.22)"/><path class="cls-12" d="M106.83,440.71v-4.35a2,2,0,0,0-.55-1.54,2.07,2.07,0,0,0-1.48-.52h-.24a2.09,2.09,0,0,0-1.49.52,2,2,0,0,0-.54,1.54v4.35a2,2,0,0,0,.55,1.53,2,2,0,0,0,1.48.52h.24a1.86,1.86,0,0,0,2-2.05Zm-1-4.58-2.25,3.27v-3.27a.87.87,0,0,1,.29-.65,1,1,0,0,1,.72-.27h.24a1,1,0,0,1,.72.27A.86.86,0,0,1,105.8,436.13Zm-2.25,4.81,2.25-3.26v3.26a.84.84,0,0,1-.28.64,1,1,0,0,1-.72.28h-.24a1,1,0,0,1-.72-.28A.85.85,0,0,1,103.55,440.94Z" transform="translate(-94.19 -398.22)"/><path class="cls-12" d="M102.77,477.67v.91h3.92v-.91h-1.31v-7.55h-1.15l-1.58.61v1l1.7-.62v6.59Z" transform="translate(-94.19 -398.22)"/></g><g class="cls-11"><path class="cls-12" d="M102.77,417.69v.91h3.92v-.91h-1.31v-7.55h-1.15l-1.58.6v1l1.7-.63v6.6Z" transform="translate(-94.19 -398.22)"/><path class="cls-12" d="M106.83,428.63v-4.35a2,2,0,0,0-.55-1.54,2.07,2.07,0,0,0-1.48-.52h-.24a2.09,2.09,0,0,0-1.49.52,2,2,0,0,0-.54,1.54v4.35a2,2,0,0,0,.55,1.53,2,2,0,0,0,1.48.52h.24a1.86,1.86,0,0,0,2-2.05Zm-1-4.58-2.25,3.27v-3.27a.87.87,0,0,1,.29-.65,1,1,0,0,1,.72-.27h.24a1,1,0,0,1,.72.27A.86.86,0,0,1,105.8,424.05Zm-2.25,4.81,2.25-3.26v3.26a.84.84,0,0,1-.28.64,1,1,0,0,1-.72.28h-.24a1,1,0,0,1-.72-.28A.85.85,0,0,1,103.55,428.86Z" transform="translate(-94.19 -398.22)"/><path class="cls-12" d="M102.77,466v.91h3.92V466h-1.31v-7.55h-1.15l-1.58.6v1l1.7-.63V466Z" transform="translate(-94.19 -398.22)"/><path class="cls-12" d="M102.77,490.21v.91h3.92v-.91h-1.31v-7.55h-1.15l-1.58.6v1l1.7-.63v6.6Z" transform="translate(-94.19 -398.22)"/><path class="cls-12" d="M102.77,454.54v.91h3.92v-.91h-1.31V447h-1.15l-1.58.6v1l1.7-.63v6.6Z" transform="translate(-94.19 -398.22)"/><path class="cls-12" d="M106.83,440.71v-4.35a2,2,0,0,0-.55-1.54,2.07,2.07,0,0,0-1.48-.52h-.24a2.09,2.09,0,0,0-1.49.52,2,2,0,0,0-.54,1.54v4.35a2,2,0,0,0,.55,1.53,2,2,0,0,0,1.48.52h.24a1.86,1.86,0,0,0,2-2.05Zm-1-4.58-2.25,3.27v-3.27a.87.87,0,0,1,.29-.65,1,1,0,0,1,.72-.27h.24a1,1,0,0,1,.72.27A.86.86,0,0,1,105.8,436.13Zm-2.25,4.81,2.25-3.26v3.26a.84.84,0,0,1-.28.64,1,1,0,0,1-.72.28h-.24a1,1,0,0,1-.72-.28A.85.85,0,0,1,103.55,440.94Z" transform="translate(-94.19 -398.22)"/><path class="cls-12" d="M102.77,477.67v.91h3.92v-.91h-1.31v-7.55h-1.15l-1.58.61v1l1.7-.62v6.59Z" transform="translate(-94.19 -398.22)"/></g><g class="cls-11"><path class="cls-12" d="M102.77,417.69v.91h3.92v-.91h-1.31v-7.55h-1.15l-1.58.6v1l1.7-.63v6.6Z" transform="translate(-94.19 -398.22)"/><path class="cls-12" d="M106.83,428.63v-4.35a2,2,0,0,0-.55-1.54,2.07,2.07,0,0,0-1.48-.52h-.24a2.09,2.09,0,0,0-1.49.52,2,2,0,0,0-.54,1.54v4.35a2,2,0,0,0,.55,1.53,2,2,0,0,0,1.48.52h.24a1.86,1.86,0,0,0,2-2.05Zm-1-4.58-2.25,3.27v-3.27a.87.87,0,0,1,.29-.65,1,1,0,0,1,.72-.27h.24a1,1,0,0,1,.72.27A.86.86,0,0,1,105.8,424.05Zm-2.25,4.81,2.25-3.26v3.26a.84.84,0,0,1-.28.64,1,1,0,0,1-.72.28h-.24a1,1,0,0,1-.72-.28A.85.85,0,0,1,103.55,428.86Z" transform="translate(-94.19 -398.22)"/><path class="cls-12" d="M102.77,466v.91h3.92V466h-1.31v-7.55h-1.15l-1.58.6v1l1.7-.63V466Z" transform="translate(-94.19 -398.22)"/><path class="cls-12" d="M102.77,490.21v.91h3.92v-.91h-1.31v-7.55h-1.15l-1.58.6v1l1.7-.63v6.6Z" transform="translate(-94.19 -398.22)"/><path class="cls-12" d="M102.77,454.54v.91h3.92v-.91h-1.31V447h-1.15l-1.58.6v1l1.7-.63v6.6Z" transform="translate(-94.19 -398.22)"/><path class="cls-12" d="M106.83,440.71v-4.35a2,2,0,0,0-.55-1.54,2.07,2.07,0,0,0-1.48-.52h-.24a2.09,2.09,0,0,0-1.49.52,2,2,0,0,0-.54,1.54v4.35a2,2,0,0,0,.55,1.53,2,2,0,0,0,1.48.52h.24a1.86,1.86,0,0,0,2-2.05Zm-1-4.58-2.25,3.27v-3.27a.87.87,0,0,1,.29-.65,1,1,0,0,1,.72-.27h.24a1,1,0,0,1,.72.27A.86.86,0,0,1,105.8,436.13Zm-2.25,4.81,2.25-3.26v3.26a.84.84,0,0,1-.28.64,1,1,0,0,1-.72.28h-.24a1,1,0,0,1-.72-.28A.85.85,0,0,1,103.55,440.94Z" transform="translate(-94.19 -398.22)"/><path class="cls-12" d="M102.77,477.67v.91h3.92v-.91h-1.31v-7.55h-1.15l-1.58.61v1l1.7-.62v6.59Z" transform="translate(-94.19 -398.22)"/></g><g class="cls-11"><path class="cls-12" d="M102.77,417.69v.91h3.92v-.91h-1.31v-7.55h-1.15l-1.58.6v1l1.7-.63v6.6Z" transform="translate(-94.19 -398.22)"/><path class="cls-12" d="M106.83,428.63v-4.35a2,2,0,0,0-.55-1.54,2.07,2.07,0,0,0-1.48-.52h-.24a2.09,2.09,0,0,0-1.49.52,2,2,0,0,0-.54,1.54v4.35a2,2,0,0,0,.55,1.53,2,2,0,0,0,1.48.52h.24a1.86,1.86,0,0,0,2-2.05Zm-1-4.58-2.25,3.27v-3.27a.87.87,0,0,1,.29-.65,1,1,0,0,1,.72-.27h.24a1,1,0,0,1,.72.27A.86.86,0,0,1,105.8,424.05Zm-2.25,4.81,2.25-3.26v3.26a.84.84,0,0,1-.28.64,1,1,0,0,1-.72.28h-.24a1,1,0,0,1-.72-.28A.85.85,0,0,1,103.55,428.86Z" transform="translate(-94.19 -398.22)"/><path class="cls-12" d="M102.77,466v.91h3.92V466h-1.31v-7.55h-1.15l-1.58.6v1l1.7-.63V466Z" transform="translate(-94.19 -398.22)"/><path class="cls-12" d="M102.77,490.21v.91h3.92v-.91h-1.31v-7.55h-1.15l-1.58.6v1l1.7-.63v6.6Z" transform="translate(-94.19 -398.22)"/><path class="cls-12" d="M102.77,454.54v.91h3.92v-.91h-1.31V447h-1.15l-1.58.6v1l1.7-.63v6.6Z" transform="translate(-94.19 -398.22)"/><path class="cls-12" d="M106.83,440.71v-4.35a2,2,0,0,0-.55-1.54,2.07,2.07,0,0,0-1.48-.52h-.24a2.09,2.09,0,0,0-1.49.52,2,2,0,0,0-.54,1.54v4.35a2,2,0,0,0,.55,1.53,2,2,0,0,0,1.48.52h.24a1.86,1.86,0,0,0,2-2.05Zm-1-4.58-2.25,3.27v-3.27a.87.87,0,0,1,.29-.65,1,1,0,0,1,.72-.27h.24a1,1,0,0,1,.72.27A.86.86,0,0,1,105.8,436.13Zm-2.25,4.81,2.25-3.26v3.26a.84.84,0,0,1-.28.64,1,1,0,0,1-.72.28h-.24a1,1,0,0,1-.72-.28A.85.85,0,0,1,103.55,440.94Z" transform="translate(-94.19 -398.22)"/><path class="cls-12" d="M102.77,477.67v.91h3.92v-.91h-1.31v-7.55h-1.15l-1.58.61v1l1.7-.62v6.59Z" transform="translate(-94.19 -398.22)"/></g><g class="cls-9"><path class="cls-3" d="M118.86,413.72v1h4.3v-1h-1.44v-8.27h-1.26l-1.73.66v1.07l1.86-.68v7.22Z" transform="translate(-94.19 -398.22)"/><path class="cls-3" d="M123.3,425.69v-4.77a2.21,2.21,0,0,0-.59-1.68,2.3,2.3,0,0,0-1.63-.56h-.26a2.3,2.3,0,0,0-1.63.56,2.21,2.21,0,0,0-.59,1.68v4.77a2.2,2.2,0,0,0,.6,1.67,2.26,2.26,0,0,0,1.62.58h.26a2.26,2.26,0,0,0,1.62-.58A2.2,2.2,0,0,0,123.3,425.69Zm-1.12-5-2.46,3.59v-3.59a.91.91,0,0,1,.31-.7,1.09,1.09,0,0,1,.79-.3h.26a1.09,1.09,0,0,1,.79.3A.91.91,0,0,1,122.18,420.67Zm-2.46,5.27,2.46-3.57v3.57a1,1,0,0,1-.31.71,1.13,1.13,0,0,1-.79.29h-.26a1.13,1.13,0,0,1-.79-.29A1,1,0,0,1,119.72,425.94Z" transform="translate(-94.19 -398.22)"/><path class="cls-3" d="M123.3,438.91v-4.76a2.21,2.21,0,0,0-.59-1.68,2.26,2.26,0,0,0-1.63-.57h-.26a2.26,2.26,0,0,0-1.63.57,2.21,2.21,0,0,0-.59,1.68v4.76a2.23,2.23,0,0,0,.6,1.68,2.26,2.26,0,0,0,1.62.57h.26a2.26,2.26,0,0,0,1.62-.57A2.23,2.23,0,0,0,123.3,438.91Zm-1.12-5-2.46,3.58V433.9a1,1,0,0,1,.31-.71,1.09,1.09,0,0,1,.79-.3h.26a1.09,1.09,0,0,1,.79.3A1,1,0,0,1,122.18,433.9Zm-2.46,5.26,2.46-3.57v3.57a.93.93,0,0,1-.31.71,1.09,1.09,0,0,1-.79.3h-.26a1.09,1.09,0,0,1-.79-.3A.93.93,0,0,1,119.72,439.16Z" transform="translate(-94.19 -398.22)"/><path class="cls-3" d="M118.86,453.4v1h4.3v-1h-1.44v-8.27h-1.26l-1.73.66v1.08l1.86-.69v7.22Z" transform="translate(-94.19 -398.22)"/><path class="cls-3" d="M123.3,465.37v-4.76a2.21,2.21,0,0,0-.59-1.68,2.26,2.26,0,0,0-1.63-.57h-.26a2.26,2.26,0,0,0-1.63.57,2.21,2.21,0,0,0-.59,1.68v4.76a2.23,2.23,0,0,0,.6,1.68,2.26,2.26,0,0,0,1.62.57h.26a2.26,2.26,0,0,0,1.62-.57A2.23,2.23,0,0,0,123.3,465.37Zm-1.12-5L119.72,464v-3.59a1,1,0,0,1,.31-.71,1.13,1.13,0,0,1,.79-.29h.26a1.13,1.13,0,0,1,.79.29A1,1,0,0,1,122.18,460.36Zm-2.46,5.27,2.46-3.58v3.58a.91.91,0,0,1-.31.7,1.09,1.09,0,0,1-.79.3h-.26a1.09,1.09,0,0,1-.79-.3A.91.91,0,0,1,119.72,465.63Z" transform="translate(-94.19 -398.22)"/><path class="cls-3" d="M123.3,478.61v-4.76a2.21,2.21,0,0,0-.59-1.68,2.26,2.26,0,0,0-1.63-.57h-.26a2.26,2.26,0,0,0-1.63.57,2.21,2.21,0,0,0-.59,1.68v4.76a2.2,2.2,0,0,0,.6,1.67,2.26,2.26,0,0,0,1.62.58h.26a2.26,2.26,0,0,0,1.62-.58A2.2,2.2,0,0,0,123.3,478.61Zm-1.12-5-2.46,3.59v-3.59a.93.93,0,0,1,.31-.7,1.09,1.09,0,0,1,.79-.3h.26a1.09,1.09,0,0,1,.79.3A.93.93,0,0,1,122.18,473.59Zm-2.46,5.27,2.46-3.57v3.57a1,1,0,0,1-.31.71,1.09,1.09,0,0,1-.79.29h-.26a1.09,1.09,0,0,1-.79-.29A1,1,0,0,1,119.72,478.86Z" transform="translate(-94.19 -398.22)"/><path class="cls-3" d="M123.3,491.84v-4.76a2.21,2.21,0,0,0-.59-1.68,2.26,2.26,0,0,0-1.63-.57h-.26a2.26,2.26,0,0,0-1.63.57,2.21,2.21,0,0,0-.59,1.68v4.76a2,2,0,0,0,2.22,2.25h.26a2,2,0,0,0,2.22-2.25Zm-1.12-5-2.46,3.58v-3.58a.93.93,0,0,1,.31-.71,1.09,1.09,0,0,1,.79-.3h.26a1.09,1.09,0,0,1,.79.3A.93.93,0,0,1,122.18,486.83Zm-2.46,5.26,2.46-3.57v3.57a1,1,0,0,1-.31.71,1.09,1.09,0,0,1-.79.3h-.26a1.09,1.09,0,0,1-.79-.3A1,1,0,0,1,119.72,492.09Z" transform="translate(-94.19 -398.22)"/></g><g class="cls-13"><path class="cls-3" d="M94.45,406.81v1h4.3v-1H97.31v-8.26H96.05l-1.73.66v1.07l1.86-.69v7.22Z" transform="translate(-94.19 -398.22)"/><path class="cls-3" d="M98.89,418.78V414a2.21,2.21,0,0,0-.59-1.68,2.26,2.26,0,0,0-1.63-.57h-.26a2.26,2.26,0,0,0-1.63.57,2.21,2.21,0,0,0-.59,1.68v4.76A2,2,0,0,0,96.41,421h.26a2,2,0,0,0,2.22-2.25Zm-1.12-5-2.46,3.58v-3.58a1,1,0,0,1,.31-.71,1.09,1.09,0,0,1,.79-.3h.26a1.09,1.09,0,0,1,.79.3A1,1,0,0,1,97.77,413.77ZM95.31,419l2.46-3.57V419a.93.93,0,0,1-.31.71,1.09,1.09,0,0,1-.79.3h-.26a1.09,1.09,0,0,1-.79-.3A.93.93,0,0,1,95.31,419Z" transform="translate(-94.19 -398.22)"/><path class="cls-3" d="M98.89,432v-4.76a2.21,2.21,0,0,0-.59-1.68,2.26,2.26,0,0,0-1.63-.57h-.26a2.26,2.26,0,0,0-1.63.57,2.21,2.21,0,0,0-.59,1.68V432a2,2,0,0,0,2.22,2.25h.26A2,2,0,0,0,98.89,432Zm-1.12-5-2.46,3.58V427a.93.93,0,0,1,.31-.71,1.09,1.09,0,0,1,.79-.3h.26a1.09,1.09,0,0,1,.79.3A.93.93,0,0,1,97.77,427Zm-2.46,5.26,2.46-3.57v3.57a1,1,0,0,1-.31.71,1.09,1.09,0,0,1-.79.3h-.26a1.09,1.09,0,0,1-.79-.3A1,1,0,0,1,95.31,432.26Z" transform="translate(-94.19 -398.22)"/><path class="cls-3" d="M94.45,446.5v1h4.3v-1H97.31v-8.27H96.05l-1.73.66V440l1.86-.69v7.23Z" transform="translate(-94.19 -398.22)"/><path class="cls-3" d="M98.89,458.47v-4.76A2.21,2.21,0,0,0,98.3,452a2.26,2.26,0,0,0-1.63-.57h-.26a2.26,2.26,0,0,0-1.63.57,2.21,2.21,0,0,0-.59,1.68v4.76a2,2,0,0,0,2.22,2.25h.26a2,2,0,0,0,2.22-2.25Zm-1.12-5L95.31,457v-3.58a.93.93,0,0,1,.31-.71,1.09,1.09,0,0,1,.79-.3h.26a1.09,1.09,0,0,1,.79.3A.93.93,0,0,1,97.77,453.46Zm-2.46,5.26,2.46-3.57v3.57a.93.93,0,0,1-.31.71,1.09,1.09,0,0,1-.79.3h-.26a1.09,1.09,0,0,1-.79-.3A.93.93,0,0,1,95.31,458.72Z" transform="translate(-94.19 -398.22)"/><path class="cls-3" d="M94.46,473v1h4.3v-1H97.31v-8.27H96.06l-1.74.66v1.08l1.87-.69V473Z" transform="translate(-94.19 -398.22)"/><path class="cls-3" d="M94.46,486.19v1h4.3v-1H97.31v-8.27H96.06l-1.74.67v1.07l1.87-.69v7.22Z" transform="translate(-94.19 -398.22)"/></g></g></g></svg>