<?xml version="1.0" encoding="UTF-8" standalone="no"?>
<svg
   xmlns:dc="http://purl.org/dc/elements/1.1/"
   xmlns:cc="http://creativecommons.org/ns#"
   xmlns:rdf="http://www.w3.org/1999/02/22-rdf-syntax-ns#"
   xmlns:svg="http://www.w3.org/2000/svg"
   xmlns="http://www.w3.org/2000/svg"
   xmlns:sodipodi="http://sodipodi.sourceforge.net/DTD/sodipodi-0.dtd"
   xmlns:inkscape="http://www.inkscape.org/namespaces/inkscape"
   id="Layer_1"
   data-name="Layer 1"
   viewBox="0 0 336.22 126.28"
   version="1.1"
   sodipodi:docname="Kosh_Logo_White_Text.svg"
   inkscape:version="0.92.2 (5c3e80d, 2017-08-06)">
  <metadata
     id="metadata5482">
    <rdf:RDF>
      <cc:Work
         rdf:about="">
        <dc:format>image/svg+xml</dc:format>
        <dc:type
           rdf:resource="http://purl.org/dc/dcmitype/StillImage" />
        <dc:title />
      </cc:Work>
    </rdf:RDF>
  </metadata>
  <sodipodi:namedview
     pagecolor="#ffffff"
     bordercolor="#666666"
     borderopacity="1"
     objecttolerance="10"
     gridtolerance="10"
     guidetolerance="10"
     inkscape:pageopacity="0"
     inkscape:pageshadow="2"
     inkscape:window-width="3434"
     inkscape:window-height="1448"
     id="namedview5480"
     showgrid="false"
     inkscape:zoom="7.6140622"
     inkscape:cx="134.87019"
     inkscape:cy="63.139999"
     inkscape:window-x="0"
     inkscape:window-y="28"
     inkscape:window-maximized="0"
     inkscape:current-layer="Layer_1" />
  <defs
     id="defs5409">
    <style
       id="style5407">.cls-1{font-size:74.49px;font-family:BrandonGrotesque-Medium, Brandon Grotesque;font-weight:500;}.cls-1,.cls-2{fill:#fff;}</style>
  </defs>
  <text
     class="cls-1"
     transform="translate(100 96.01)"
     id="text5411">OSH</text>
  <polygon
     class="cls-2"
     points="55.05 39.16 94.1 0 58.8 0 37.55 21.33 55.05 39.16"
     id="polygon5419" />
  <polygon
     class="cls-2"
     points="36.15 29.54 36.15 65.47 66.73 95.93 102.28 95.93 36.15 29.54"
     id="polygon5421" />
  <path
     class="cls-2"
     d="M74.82,475.78v1h4.3v-1H77.67v-8.27H76.42l-1.74.66v1.07l1.87-.69v7.23Z"
     transform="translate(-74.55 -467.32)"
     id="path5423" />
  <path
     class="cls-2"
     d="M79.26,487.74V483A2,2,0,0,0,77,480.73h-.27a2.24,2.24,0,0,0-1.62.57,2.21,2.21,0,0,0-.6,1.68v4.76a2.23,2.23,0,0,0,.6,1.68,2.29,2.29,0,0,0,1.62.57H77a2.26,2.26,0,0,0,1.62-.57A2.23,2.23,0,0,0,79.26,487.74Zm-1.12-5-2.46,3.58v-3.58A1,1,0,0,1,76,482a1.07,1.07,0,0,1,.78-.3H77a1.09,1.09,0,0,1,.79.3A1,1,0,0,1,78.14,482.73ZM75.68,488l2.46-3.57V488a1,1,0,0,1-.31.71,1.09,1.09,0,0,1-.79.3h-.27a1.07,1.07,0,0,1-.78-.3A.93.93,0,0,1,75.68,488Z"
     transform="translate(-74.55 -467.32)"
     id="path5425" />
  <path
     class="cls-2"
     d="M79.26,501v-4.76A2,2,0,0,0,77,494h-.27a2.24,2.24,0,0,0-1.62.57,2.21,2.21,0,0,0-.6,1.68V501a2.2,2.2,0,0,0,.6,1.67,2.25,2.25,0,0,0,1.62.58H77A2,2,0,0,0,79.26,501Zm-1.12-5-2.46,3.58V496a.93.93,0,0,1,.31-.71,1.07,1.07,0,0,1,.78-.3H77a1.09,1.09,0,0,1,.79.3A1,1,0,0,1,78.14,496Zm-2.46,5.26,2.46-3.57v3.57a1,1,0,0,1-.31.71,1.09,1.09,0,0,1-.79.3h-.27a1.07,1.07,0,0,1-.78-.3A1,1,0,0,1,75.68,501.22Z"
     transform="translate(-74.55 -467.32)"
     id="path5427" />
  <path
     class="cls-2"
     d="M74.82,515.46v1h4.3v-1H77.67v-8.27H76.42l-1.74.66v1.07l1.87-.69v7.23Z"
     transform="translate(-74.55 -467.32)"
     id="path5429" />
  <path
     class="cls-2"
     d="M79.26,527.43v-4.76A2,2,0,0,0,77,520.42h-.27a2.24,2.24,0,0,0-1.62.57,2.21,2.21,0,0,0-.6,1.68v4.76a2.2,2.2,0,0,0,.6,1.67,2.25,2.25,0,0,0,1.62.58H77a2,2,0,0,0,2.22-2.25Zm-1.12-5L75.68,526v-3.58a1,1,0,0,1,.31-.71,1.07,1.07,0,0,1,.78-.3H77a1.09,1.09,0,0,1,.79.3A1,1,0,0,1,78.14,522.42Zm-2.46,5.26,2.46-3.57v3.57a1,1,0,0,1-.31.71,1.09,1.09,0,0,1-.79.3h-.27a1.07,1.07,0,0,1-.78-.3A.93.93,0,0,1,75.68,527.68Z"
     transform="translate(-74.55 -467.32)"
     id="path5431" />
  <path
     class="cls-2"
     d="M74.82,541.92v1h4.3v-1H77.68v-8.27H76.42l-1.73.67v1.07l1.87-.69v7.22Z"
     transform="translate(-74.55 -467.32)"
     id="path5433" />
  <path
     class="cls-2"
     d="M74.82,555.15v1h4.3v-1H77.68v-8.26H76.42l-1.73.66v1.07l1.87-.69v7.22Z"
     transform="translate(-74.55 -467.32)"
     id="path5435" />
  <path
     class="cls-2"
     d="M99.23,482.68v1h4.3v-1h-1.45v-8.27h-1.25l-1.74.66v1.08l1.87-.69v7.22Z"
     transform="translate(-74.55 -467.32)"
     id="path5437" />
  <path
     class="cls-2"
     d="M103.67,494.65v-4.76a2,2,0,0,0-2.22-2.25h-.27a2.24,2.24,0,0,0-1.62.57,2.21,2.21,0,0,0-.6,1.68v4.76a2.2,2.2,0,0,0,.6,1.67,2.28,2.28,0,0,0,1.62.58h.27a2.26,2.26,0,0,0,1.62-.58A2.2,2.2,0,0,0,103.67,494.65Zm-1.12-5-2.46,3.59v-3.59a.93.93,0,0,1,.31-.7,1.07,1.07,0,0,1,.78-.3h.27a1.09,1.09,0,0,1,.79.3A1,1,0,0,1,102.55,489.63Zm-2.46,5.27,2.46-3.57v3.57a1,1,0,0,1-.31.71,1.09,1.09,0,0,1-.79.29h-.27a1.06,1.06,0,0,1-.78-.29A1,1,0,0,1,100.09,494.9Z"
     transform="translate(-74.55 -467.32)"
     id="path5439" />
  <path
     class="cls-2"
     d="M103.67,507.87v-4.76a2,2,0,0,0-2.22-2.25h-.27a2.24,2.24,0,0,0-1.62.57,2.21,2.21,0,0,0-.6,1.68v4.76a2.23,2.23,0,0,0,.6,1.68,2.27,2.27,0,0,0,1.62.57h.27a2.26,2.26,0,0,0,1.62-.57A2.23,2.23,0,0,0,103.67,507.87Zm-1.12-5-2.46,3.59v-3.59a1,1,0,0,1,.31-.71,1.11,1.11,0,0,1,.78-.29h.27a1.13,1.13,0,0,1,.79.29A1,1,0,0,1,102.55,502.86Zm-2.46,5.27,2.46-3.58v3.58a1,1,0,0,1-.31.7,1.09,1.09,0,0,1-.79.3h-.27a1.07,1.07,0,0,1-.78-.3A.91.91,0,0,1,100.09,508.13Z"
     transform="translate(-74.55 -467.32)"
     id="path5441" />
  <path
     class="cls-2"
     d="M99.23,522.36v1h4.3v-1h-1.45v-8.27h-1.25l-1.74.67v1.07l1.87-.69v7.22Z"
     transform="translate(-74.55 -467.32)"
     id="path5443" />
  <path
     class="cls-2"
     d="M103.67,534.34v-4.77a2.24,2.24,0,0,0-.59-1.68,2.3,2.3,0,0,0-1.63-.56h-.27a2.28,2.28,0,0,0-1.62.56,2.21,2.21,0,0,0-.6,1.68v4.77a2.2,2.2,0,0,0,.6,1.67,2.27,2.27,0,0,0,1.62.57h.27a2.26,2.26,0,0,0,1.62-.57A2.2,2.2,0,0,0,103.67,534.34Zm-1.12-5-2.46,3.59v-3.59a.91.91,0,0,1,.31-.7,1.07,1.07,0,0,1,.78-.3h.27a1.09,1.09,0,0,1,.79.3A1,1,0,0,1,102.55,529.32Zm-2.46,5.27,2.46-3.57v3.57a1,1,0,0,1-.31.71,1.13,1.13,0,0,1-.79.29h-.27a1.11,1.11,0,0,1-.78-.29A1,1,0,0,1,100.09,534.59Z"
     transform="translate(-74.55 -467.32)"
     id="path5445" />
  <path
     class="cls-2"
     d="M103.67,547.57v-4.76a2,2,0,0,0-2.22-2.25h-.27a2.24,2.24,0,0,0-1.62.57,2.21,2.21,0,0,0-.6,1.68v4.76a2.2,2.2,0,0,0,.6,1.67,2.23,2.23,0,0,0,1.62.58h.27a2,2,0,0,0,2.22-2.25Zm-1.12-5-2.46,3.58v-3.58a.93.93,0,0,1,.31-.71,1.07,1.07,0,0,1,.78-.3h.27a1.09,1.09,0,0,1,.79.3A1,1,0,0,1,102.55,542.56Zm-2.46,5.26,2.46-3.57v3.57a1,1,0,0,1-.31.71,1.09,1.09,0,0,1-.79.3h-.27a1.07,1.07,0,0,1-.78-.3A1,1,0,0,1,100.09,547.82Z"
     transform="translate(-74.55 -467.32)"
     id="path5447" />
  <path
     class="cls-2"
     d="M103.67,560.8V556a2,2,0,0,0-2.22-2.25h-.27a2.24,2.24,0,0,0-1.62.57A2.21,2.21,0,0,0,99,556v4.76a2.2,2.2,0,0,0,.6,1.67,2.23,2.23,0,0,0,1.62.58h.27a2,2,0,0,0,2.22-2.25Zm-1.12-5-2.46,3.58v-3.58a.93.93,0,0,1,.31-.71,1.07,1.07,0,0,1,.78-.3h.27a1.09,1.09,0,0,1,.79.3A1,1,0,0,1,102.55,555.79Zm-2.46,5.26,2.46-3.57v3.57a1,1,0,0,1-.31.71,1.09,1.09,0,0,1-.79.3h-.27a1.07,1.07,0,0,1-.78-.3A.93.93,0,0,1,100.09,561.05Z"
     transform="translate(-74.55 -467.32)"
     id="path5449" />
  <path
     class="cls-2"
     d="M91.18,475.27v1h4.11v-1H93.91v-7.89h-1.2l-1.65.63v1l1.78-.66v6.9Z"
     transform="translate(-74.55 -467.32)"
     id="path5451" />
  <path
     class="cls-2"
     d="M95.43,486.71v-4.55a2.1,2.1,0,0,0-.57-1.6,2.13,2.13,0,0,0-1.55-.55h-.26a2.13,2.13,0,0,0-1.55.55,2.1,2.1,0,0,0-.57,1.6v4.55a2.06,2.06,0,0,0,.58,1.59,2.12,2.12,0,0,0,1.54.55h.26a2.12,2.12,0,0,0,1.54-.55A2.06,2.06,0,0,0,95.43,486.71Zm-1.08-4.79L92,485.34v-3.42a.9.9,0,0,1,.29-.68,1,1,0,0,1,.75-.28h.26a1,1,0,0,1,.75.28A.9.9,0,0,1,94.35,481.92ZM92,487l2.34-3.41V487a.88.88,0,0,1-.29.67,1.05,1.05,0,0,1-.75.29h-.26a1.05,1.05,0,0,1-.75-.29A.88.88,0,0,1,92,487Z"
     transform="translate(-74.55 -467.32)"
     id="path5453" />
  <path
     class="cls-2"
     d="M91.18,500.54v.94h4.11v-.94H93.91v-7.9h-1.2l-1.65.63v1l1.78-.66v6.9Z"
     transform="translate(-74.55 -467.32)"
     id="path5455" />
  <path
     class="cls-2"
     d="M95.43,512v-4.55a2.14,2.14,0,0,0-.57-1.61,2.17,2.17,0,0,0-1.55-.54h-.26a2.17,2.17,0,0,0-1.55.54,2.14,2.14,0,0,0-.57,1.61V512a2.06,2.06,0,0,0,.58,1.59,2.12,2.12,0,0,0,1.54.55h.26a2.12,2.12,0,0,0,1.54-.55A2.06,2.06,0,0,0,95.43,512Zm-1.08-4.79L92,510.6v-3.42a.9.9,0,0,1,.29-.68,1,1,0,0,1,.75-.28h.26a1,1,0,0,1,.75.28A.9.9,0,0,1,94.35,507.18Zm-2.34,5,2.34-3.41v3.41a.88.88,0,0,1-.29.67,1.05,1.05,0,0,1-.75.29h-.26a1.05,1.05,0,0,1-.75-.29A.88.88,0,0,1,92,512.21Z"
     transform="translate(-74.55 -467.32)"
     id="path5457" />
  <path
     class="cls-2"
     d="M91.18,538.45v.94h4.11v-.94H93.91v-7.9h-1.2l-1.65.63v1l1.78-.66v6.9Z"
     transform="translate(-74.55 -467.32)"
     id="path5459" />
  <path
     class="cls-2"
     d="M95.43,524.5V520a2.1,2.1,0,0,0-.57-1.6,2.13,2.13,0,0,0-1.55-.55h-.26a2.13,2.13,0,0,0-1.55.55,2.1,2.1,0,0,0-.57,1.6v4.55a2.09,2.09,0,0,0,.58,1.6,2.16,2.16,0,0,0,1.54.54h.26a2.16,2.16,0,0,0,1.54-.54A2.09,2.09,0,0,0,95.43,524.5Zm-1.08-4.79L92,523.13v-3.42a.9.9,0,0,1,.29-.68,1.09,1.09,0,0,1,.75-.28h.26a1.09,1.09,0,0,1,.75.28A.9.9,0,0,1,94.35,519.71Zm-2.34,5,2.34-3.41v3.41a.88.88,0,0,1-.29.67,1.05,1.05,0,0,1-.75.29h-.26a1.05,1.05,0,0,1-.75-.29A.88.88,0,0,1,92,524.74Z"
     transform="translate(-74.55 -467.32)"
     id="path5461" />
  <path
     class="cls-2"
     d="M91.18,551.07V552h4.11v-.95H93.91v-7.9h-1.2l-1.65.64v1l1.78-.66v6.9Z"
     transform="translate(-74.55 -467.32)"
     id="path5463" />
  <path
     class="cls-2"
     d="M83.13,486.65v.91h3.93v-.91H85.74V479.1H84.6l-1.59.6v1l1.71-.63v6.6Z"
     transform="translate(-74.55 -467.32)"
     id="path5465" />
  <path
     class="cls-2"
     d="M87.19,497.59v-4.35a2,2,0,0,0-.54-1.53,2,2,0,0,0-1.49-.52h-.24a2,2,0,0,0-1.48.52,2,2,0,0,0-.55,1.53v4.35a1.86,1.86,0,0,0,2,2.05h.24a2,2,0,0,0,1.48-.52A2,2,0,0,0,87.19,497.59Zm-1-4.58-2.25,3.27V493a.88.88,0,0,1,.28-.65,1,1,0,0,1,.72-.27h.24a1,1,0,0,1,.72.27A.89.89,0,0,1,86.17,493Zm-2.25,4.81,2.25-3.26v3.26a.89.89,0,0,1-.29.65,1,1,0,0,1-.72.27h-.24a1,1,0,0,1-.72-.27A.88.88,0,0,1,83.92,497.82Z"
     transform="translate(-74.55 -467.32)"
     id="path5467" />
  <path
     class="cls-2"
     d="M83.13,535v.91h3.93V535H85.74v-7.55H84.6L83,528v1l1.71-.62V535Z"
     transform="translate(-74.55 -467.32)"
     id="path5469" />
  <path
     class="cls-2"
     d="M83.13,559.17v.91h3.93v-.91H85.74v-7.55H84.6l-1.59.6v1l1.71-.63v6.6Z"
     transform="translate(-74.55 -467.32)"
     id="path5471" />
  <path
     class="cls-2"
     d="M83.13,523.5v.91h3.93v-.91H85.74V516H84.6l-1.59.61v1l1.71-.62v6.59Z"
     transform="translate(-74.55 -467.32)"
     id="path5473" />
  <path
     class="cls-2"
     d="M87.19,509.67v-4.35a2,2,0,0,0-.54-1.53,2,2,0,0,0-1.49-.52h-.24a2,2,0,0,0-1.48.52,2,2,0,0,0-.55,1.53v4.35a1.86,1.86,0,0,0,2,2.05h.24a2,2,0,0,0,1.48-.52A2,2,0,0,0,87.19,509.67Zm-1-4.58-2.25,3.27v-3.27a.88.88,0,0,1,.28-.65,1,1,0,0,1,.72-.27h.24a1,1,0,0,1,.72.27A.89.89,0,0,1,86.17,505.09Zm-2.25,4.81,2.25-3.26v3.26a.89.89,0,0,1-.29.65,1,1,0,0,1-.72.27h-.24a1,1,0,0,1-.72-.27A.88.88,0,0,1,83.92,509.9Z"
     transform="translate(-74.55 -467.32)"
     id="path5475" />
  <path
     class="cls-2"
     d="M83.13,546.63v.91h3.93v-.91H85.74v-7.55H84.6l-1.59.61v1l1.71-.63v6.59Z"
     transform="translate(-74.55 -467.32)"
     id="path5477" />
  <text
     xml:space="preserve"
     style="font-style:normal;font-weight:normal;font-size:40px;line-height:1.25;font-family:sans-serif;letter-spacing:0px;word-spacing:0px;fill:#d40000;fill-opacity:0;stroke:none"
     x="224.95679"
     y="95.132843"
     id="text4318"><tspan
       sodipodi:role="line"
       id="tspan4316"
       x="224.95679"
       y="95.132843"
       style="font-style:normal;font-variant:normal;font-weight:normal;font-stretch:normal;font-size:10.66666698px;font-family:sans-serif;-inkscape-font-specification:'sans-serif, Normal';font-variant-ligatures:normal;font-variant-caps:normal;font-variant-numeric:normal;font-feature-settings:normal;text-align:start;writing-mode:lr-tb;text-anchor:start;fill:#ffffff;fill-opacity:1">2.0</tspan></text>
  <text
     xml:space="preserve"
     style="font-style:normal;font-weight:normal;font-size:40px;line-height:1.25;font-family:sans-serif;letter-spacing:0px;word-spacing:0px;fill:#000000;fill-opacity:1;stroke:none"
     x="-96.39518"
     y="252.59027"
     id="text4402"
     transform="rotate(-90)"><tspan
       sodipodi:role="line"
       id="tspan4400"
       x="-96.39518"
       y="252.59027"
       style="font-style:normal;font-variant:normal;font-weight:normal;font-stretch:normal;font-size:5.33333349px;font-family:sans-serif;-inkscape-font-specification:'sans-serif, Normal';font-variant-ligatures:normal;font-variant-caps:normal;font-variant-numeric:normal;font-feature-settings:normal;text-align:start;writing-mode:lr-tb;text-anchor:start;fill:#000000"></tspan></text>
</svg>
