<?xml version="1.0" encoding="UTF-8" standalone="no"?>
<svg
   xmlns:dc="http://purl.org/dc/elements/1.1/"
   xmlns:cc="http://creativecommons.org/ns#"
   xmlns:rdf="http://www.w3.org/1999/02/22-rdf-syntax-ns#"
   xmlns:svg="http://www.w3.org/2000/svg"
   xmlns="http://www.w3.org/2000/svg"
   xmlns:xlink="http://www.w3.org/1999/xlink"
   xmlns:sodipodi="http://sodipodi.sourceforge.net/DTD/sodipodi-0.dtd"
   xmlns:inkscape="http://www.inkscape.org/namespaces/inkscape"
   viewBox="0 0 248.15 96.65"
   version="1.1"
   id="svg4211"
   sodipodi:docname="Kosh_Logo_Blue_Text.svg"
   inkscape:version="0.92.2 (5c3e80d, 2017-08-06)">
  <metadata
     id="metadata4215">
    <rdf:RDF>
      <cc:Work
         rdf:about="">
        <dc:format>image/svg+xml</dc:format>
        <dc:type
           rdf:resource="http://purl.org/dc/dcmitype/StillImage" />
        <dc:title />
      </cc:Work>
    </rdf:RDF>
  </metadata>
  <sodipodi:namedview
     pagecolor="#ffffff"
     bordercolor="#666666"
     borderopacity="1"
     objecttolerance="10"
     gridtolerance="10"
     guidetolerance="10"
     inkscape:pageopacity="0"
     inkscape:pageshadow="2"
     inkscape:window-width="2476"
     inkscape:window-height="1437"
     id="namedview4213"
     showgrid="false"
     inkscape:zoom="5.1581706"
     inkscape:cx="153.63899"
     inkscape:cy="63.834375"
     inkscape:window-x="0"
     inkscape:window-y="28"
     inkscape:window-maximized="0"
     inkscape:current-layer="svg4211" />
  <defs
     id="defs4110">
    <style
       id="style4094">.cls-1{isolation:isolate;}.cls-2,.cls-3,.cls-4,.cls-5{fill:#224f71;}.cls-3,.cls-4,.cls-5,.cls-6{mix-blend-mode:multiply;}.cls-4{opacity:0.7;}.cls-5{opacity:0.5;}.cls-6{fill:#afdedc;}.cls-7{fill:url(#linear-gradient);}.cls-8{fill:url(#linear-gradient-2);}.cls-9{opacity:0.25;}.cls-10,.cls-11{fill:none;stroke:#fff;stroke-linecap:round;stroke-linejoin:round;}.cls-10{fill-rule:evenodd;}</style>
    <linearGradient
       id="linear-gradient"
       x1="38.49"
       y1="19.75"
       x2="95.04"
       y2="19.75"
       gradientUnits="userSpaceOnUse">
      <stop
         offset="0"
         stop-color="#002139"
         id="stop4096" />
      <stop
         offset="0.08"
         stop-color="#072b45"
         id="stop4098" />
      <stop
         offset="0.31"
         stop-color="#194261"
         id="stop4100" />
      <stop
         offset="0.54"
         stop-color="#255376"
         id="stop4102" />
      <stop
         offset="0.77"
         stop-color="#2d5d82"
         id="stop4104" />
      <stop
         offset="0.99"
         stop-color="#2f6086"
         id="stop4106" />
    </linearGradient>
    <linearGradient
       id="linear-gradient-2"
       x1="37.09"
       y1="62.9"
       x2="103.22"
       y2="62.9"
       xlink:href="#linear-gradient" />
    <linearGradient
       inkscape:collect="always"
       xlink:href="#linear-gradient"
       id="linearGradient4217"
       gradientUnits="userSpaceOnUse"
       x1="38.49"
       y1="19.75"
       x2="95.04"
       y2="19.75" />
  </defs>
  <path
     class="cls-2"
     d="m 129.25,42.29 a 26.82,26.82 0 1 1 -26.74,26.89 26.77,26.77 0 0 1 26.74,-26.89 z m 0,46.19 a 19.37,19.37 0 1 0 -19.29,-19.3 19.37,19.37 0 0 0 19.29,19.3 z"
     id="path4112"
     inkscape:connector-curvature="0"
     style="isolation:isolate;fill:#224f71" />
  <path
     class="cls-2"
     d="m 163.37,87.66 c 0.67,-1 1.26,-2.09 1.93,-3.06 a 1.7,1.7 0 0 1 2.54,-0.59 c 0.44,0.37 6.18,5.14 11.92,5.14 5.14,0 8.41,-3.13 8.41,-6.93 0,-4.47 -3.87,-7.3 -11.24,-10.35 -7.6,-3.21 -13.56,-7.16 -13.56,-15.8 0,-5.81 4.47,-13.78 16.31,-13.78 a 25.21,25.21 0 0 1 13.78,4.4 1.76,1.76 0 0 1 0.45,2.53 c -0.6,0.89 -1.27,1.94 -1.86,2.83 a 1.77,1.77 0 0 1 -2.61,0.75 c -0.52,-0.3 -5.74,-3.73 -10.06,-3.73 -6.25,0 -8.41,3.95 -8.41,6.7 0,4.25 3.27,6.86 9.46,9.39 8.64,3.5 16,7.6 16,16.69 0,7.75 -6.93,14.08 -16.61,14.08 a 24.14,24.14 0 0 1 -16,-5.89 1.56,1.56 0 0 1 -0.45,-2.38 z"
     id="path4114"
     inkscape:connector-curvature="0"
     style="isolation:isolate;fill:#224f71" />
  <path
     class="cls-2"
     d="m 205.39,44.45 a 1.46,1.46 0 0 1 1.41,-1.41 h 4.92 a 1.42,1.42 0 0 1 1.42,1.41 V 65.24 H 240.4 V 44.45 a 1.42,1.42 0 0 1 1.42,-1.41 h 4.91 a 1.46,1.46 0 0 1 1.42,1.41 v 49.33 a 1.46,1.46 0 0 1 -1.42,1.41 h -4.91 A 1.42,1.42 0 0 1 240.4,93.78 V 72.24 h -27.24 v 21.54 a 1.42,1.42 0 0 1 -1.42,1.41 h -4.92 a 1.46,1.46 0 0 1 -1.41,-1.41 z"
     id="path4116"
     inkscape:connector-curvature="0"
     style="isolation:isolate;fill:#224f71" />
  <path
     class="cls-3"
     d="m 0.27,8.44 v 1 h 4.31 v -1 H 3.16 V 0.14 H 1.9 L 0.16,0.78 V 1.86 L 2.04,1.17 v 7.25 z"
     id="path4124"
     inkscape:connector-curvature="0"
     style="isolation:isolate;mix-blend-mode:multiply;fill:#224f71" />
  <path
     class="cls-3"
     d="M 4.73,20.45 V 15.67 A 2.21,2.21 0 0 0 4.13,13.99 2.26,2.26 0 0 0 2.5,13.42 H 2.23 A 2.26,2.26 0 0 0 0.6,13.99 2.21,2.21 0 0 0 0,15.67 v 4.78 a 2.21,2.21 0 0 0 0.6,1.68 2.26,2.26 0 0 0 1.63,0.58 H 2.5 a 2.22,2.22 0 0 0 1.62,-0.58 2.18,2.18 0 0 0 0.61,-1.68 z m -1.13,-5 -2.47,3.6 v -3.6 a 1,1 0 0 1 0.31,-0.71 1.09,1.09 0 0 1 0.79,-0.3 H 2.5 a 1.09,1.09 0 0 1 0.79,0.3 1,1 0 0 1 0.31,0.68 z m -2.44,5.26 2.47,-3.59 v 3.59 a 1,1 0 0 1 -0.31,0.71 1.09,1.09 0 0 1 -0.79,0.3 H 2.26 A 1.09,1.09 0 0 1 1.47,21.42 1,1 0 0 1 1.16,20.71 Z"
     id="path4126"
     inkscape:connector-curvature="0"
     style="isolation:isolate;mix-blend-mode:multiply;fill:#224f71" />
  <path
     class="cls-3"
     d="M 4.73,33.78 V 29 A 2.21,2.21 0 0 0 4.13,27.32 2.26,2.26 0 0 0 2.5,26.75 H 2.23 A 2.26,2.26 0 0 0 0.6,27.32 2.21,2.21 0 0 0 0,29 v 4.78 a 2.21,2.21 0 0 0 0.6,1.68 2.26,2.26 0 0 0 1.63,0.58 H 2.5 a 2.22,2.22 0 0 0 1.62,-0.58 2.18,2.18 0 0 0 0.61,-1.68 z m -1.13,-5 -2.47,3.6 v -3.6 a 1,1 0 0 1 0.31,-0.71 1.09,1.09 0 0 1 0.79,-0.3 H 2.5 a 1.09,1.09 0 0 1 0.79,0.3 1,1 0 0 1 0.31,0.63 z M 1.16,33.99 3.63,30.4 v 3.59 A 1,1 0 0 1 3.32,34.7 1.09,1.09 0 0 1 2.53,35 H 2.26 A 1.09,1.09 0 0 1 1.47,34.7 1,1 0 0 1 1.16,33.99 Z"
     id="path4128"
     inkscape:connector-curvature="0"
     style="isolation:isolate;mix-blend-mode:multiply;fill:#224f71" />
  <path
     class="cls-3"
     d="m 0.27,48.28 v 1 h 4.31 v -1 H 3.16 v -8.3 H 1.9 l -1.74,0.66 v 1.08 l 1.88,-0.69 v 7.25 z"
     id="path4130"
     inkscape:connector-curvature="0"
     style="isolation:isolate;mix-blend-mode:multiply;fill:#224f71" />
  <path
     class="cls-3"
     d="M 4.73,60.3 V 55.52 A 2.23,2.23 0 0 0 4.13,53.83 2.26,2.26 0 0 0 2.5,53.26 H 2.23 A 2.26,2.26 0 0 0 0.6,53.83 2.23,2.23 0 0 0 0,55.52 v 4.78 a 2.21,2.21 0 0 0 0.6,1.68 2.26,2.26 0 0 0 1.63,0.58 H 2.5 A 2.22,2.22 0 0 0 4.12,61.98 2.18,2.18 0 0 0 4.73,60.3 Z m -1.13,-5 -2.47,3.6 v -3.6 a 0.93,0.93 0 0 1 0.31,-0.71 1.09,1.09 0 0 1 0.79,-0.3 H 2.5 a 1.09,1.09 0 0 1 0.79,0.3 0.93,0.93 0 0 1 0.31,0.68 z m -2.44,5.25 2.47,-3.58 v 3.58 a 0.92,0.92 0 0 1 -0.31,0.71 1.09,1.09 0 0 1 -0.79,0.3 H 2.26 A 1.09,1.09 0 0 1 1.47,61.26 0.92,0.92 0 0 1 1.16,60.55 Z"
     id="path4132"
     inkscape:connector-curvature="0"
     style="isolation:isolate;mix-blend-mode:multiply;fill:#224f71" />
  <path
     class="cls-3"
     d="m 0.27,74.85 v 1 h 4.32 v -1 H 3.16 v -8.3 H 1.9 l -1.74,0.66 v 1.08 L 2.03,67.6 v 7.25 z"
     id="path4134"
     inkscape:connector-curvature="0"
     style="isolation:isolate;mix-blend-mode:multiply;fill:#224f71" />
  <path
     class="cls-3"
     d="m 0.27,88.13 v 1 h 4.32 v -1 H 3.16 v -8.3 H 1.9 L 0.16,80.5 v 1.07 l 1.87,-0.69 v 7.25 z"
     id="path4136"
     inkscape:connector-curvature="0"
     style="isolation:isolate;mix-blend-mode:multiply;fill:#224f71" />
  <path
     class="cls-3"
     d="m 24.77,15.37 v 1 h 4.32 v -1 h -1.45 v -8.3 h -1.26 l -1.74,0.66 v 1.05 l 1.87,-0.69 v 7.25 z"
     id="path4138"
     inkscape:connector-curvature="0"
     style="isolation:isolate;mix-blend-mode:multiply;fill:#224f71" />
  <path
     class="cls-3"
     d="M 29.24,27.39 V 22.61 A 2.22,2.22 0 0 0 28.64,20.92 2.27,2.27 0 0 0 27,20.35 h -0.26 a 2.25,2.25 0 0 0 -1.63,0.57 2.22,2.22 0 0 0 -0.6,1.69 v 4.78 a 2.24,2.24 0 0 0 0.6,1.68 2.28,2.28 0 0 0 1.63,0.57 H 27 a 2,2 0 0 0 2.24,-2.25 z m -1.13,-5 -2.47,3.6 v -3.6 a 1,1 0 0 1 0.31,-0.71 1.09,1.09 0 0 1 0.79,-0.3 H 27 a 1.08,1.08 0 0 1 0.79,0.3 1,1 0 0 1 0.37,0.67 z m -2.47,5.29 2.47,-3.59 v 3.59 a 1,1 0 0 1 -0.32,0.71 1.08,1.08 0 0 1 -0.79,0.3 h -0.26 a 1.09,1.09 0 0 1 -0.79,-0.3 1,1 0 0 1 -0.31,-0.75 z"
     id="path4140"
     inkscape:connector-curvature="0"
     style="isolation:isolate;mix-blend-mode:multiply;fill:#224f71" />
  <path
     class="cls-3"
     d="M 29.24,40.67 V 35.88 A 2.21,2.21 0 0 0 28.64,34.2 2.27,2.27 0 0 0 27,33.63 h -0.26 a 2.25,2.25 0 0 0 -1.63,0.57 2.21,2.21 0 0 0 -0.6,1.68 v 4.79 a 2.24,2.24 0 0 0 0.6,1.68 2.28,2.28 0 0 0 1.63,0.57 H 27 a 2,2 0 0 0 2.24,-2.25 z m -1.13,-5 -2.47,3.6 v -3.6 a 1,1 0 0 1 0.31,-0.71 1.09,1.09 0 0 1 0.79,-0.3 H 27 a 1.08,1.08 0 0 1 0.79,0.3 1,1 0 0 1 0.37,0.67 z m -2.47,5.29 2.47,-3.59 v 3.59 a 1,1 0 0 1 -0.32,0.71 1.08,1.08 0 0 1 -0.79,0.3 h -0.26 a 1.09,1.09 0 0 1 -0.79,-0.3 1,1 0 0 1 -0.31,-0.75 z"
     id="path4142"
     inkscape:connector-curvature="0"
     style="isolation:isolate;mix-blend-mode:multiply;fill:#224f71" />
  <path
     class="cls-3"
     d="m 24.77,55.21 v 1 h 4.32 v -1 h -1.45 v -8.3 h -1.26 l -1.74,0.66 v 1.08 l 1.87,-0.69 v 7.25 z"
     id="path4144"
     inkscape:connector-curvature="0"
     style="isolation:isolate;mix-blend-mode:multiply;fill:#224f71" />
  <path
     class="cls-3"
     d="M 29.24,67.23 V 62.45 A 2.21,2.21 0 0 0 28.64,60.77 2.28,2.28 0 0 0 27,60.19 h -0.26 a 2.25,2.25 0 0 0 -1.58,0.59 2.21,2.21 0 0 0 -0.6,1.68 v 4.78 a 2.21,2.21 0 0 0 0.6,1.68 2.24,2.24 0 0 0 1.63,0.58 h 0.26 a 2.06,2.06 0 0 0 2.24,-2.26 z m -1.13,-5 -2.47,3.6 v -3.6 a 1,1 0 0 1 0.31,-0.71 1.09,1.09 0 0 1 0.79,-0.3 H 27 a 1.08,1.08 0 0 1 0.79,0.3 1,1 0 0 1 0.37,0.68 z m -2.47,5.29 2.47,-3.59 v 3.59 a 1,1 0 0 1 -0.32,0.71 1.08,1.08 0 0 1 -0.79,0.3 h -0.26 a 1.09,1.09 0 0 1 -0.79,-0.3 1,1 0 0 1 -0.31,-0.74 z"
     id="path4146"
     inkscape:connector-curvature="0"
     style="isolation:isolate;mix-blend-mode:multiply;fill:#224f71" />
  <path
     class="cls-3"
     d="M 29.24,80.52 V 75.78 A 2.23,2.23 0 0 0 28.64,74.09 2.27,2.27 0 0 0 27,73.52 h -0.26 a 2,2 0 0 0 -2.23,2.26 v 4.78 a 2.21,2.21 0 0 0 0.6,1.68 2.24,2.24 0 0 0 1.63,0.58 H 27 a 2.06,2.06 0 0 0 2.24,-2.26 z m -1.13,-5 -2.47,3.6 v -3.6 a 0.93,0.93 0 0 1 0.31,-0.71 1.09,1.09 0 0 1 0.79,-0.3 H 27 a 1.08,1.08 0 0 1 0.79,0.3 0.94,0.94 0 0 1 0.37,0.68 z m -2.47,5.26 2.47,-3.58 v 3.58 a 0.94,0.94 0 0 1 -0.32,0.71 1.08,1.08 0 0 1 -0.79,0.3 h -0.26 a 1.09,1.09 0 0 1 -0.79,-0.3 0.93,0.93 0 0 1 -0.31,-0.71 z"
     id="path4148"
     inkscape:connector-curvature="0"
     style="isolation:isolate;mix-blend-mode:multiply;fill:#224f71" />
  <path
     class="cls-3"
     d="M 29.24,93.78 V 89 A 2.21,2.21 0 0 0 28.64,87.32 2.27,2.27 0 0 0 27,86.75 h -0.26 a 2.25,2.25 0 0 0 -1.63,0.57 2.21,2.21 0 0 0 -0.6,1.68 v 4.78 a 2.21,2.21 0 0 0 0.6,1.68 2.24,2.24 0 0 0 1.63,0.58 H 27 a 2.06,2.06 0 0 0 2.24,-2.26 z m -1.08,-5 -2.47,3.6 v -3.6 a 1,1 0 0 1 0.31,-0.71 1.09,1.09 0 0 1 0.79,-0.3 h 0.26 a 1.08,1.08 0 0 1 0.79,0.3 1,1 0 0 1 0.32,0.71 z m -2.47,5.29 2.47,-3.59 v 3.59 a 1,1 0 0 1 -0.32,0.71 1.08,1.08 0 0 1 -0.79,0.3 H 26.79 A 1.09,1.09 0 0 1 26,94.78 1,1 0 0 1 25.64,94.06 Z"
     id="path4150"
     inkscape:connector-curvature="0"
     style="isolation:isolate;mix-blend-mode:multiply;fill:#224f71" />
  <path
     class="cls-4"
     d="m 16.7,7.93 v 1 h 4.12 v -1 H 19.44 V 0 h -1.21 l -1.66,0.64 v 1 L 18.36,0.98 V 7.9 Z"
     id="path4152"
     inkscape:connector-curvature="0"
     style="opacity:0.7;isolation:isolate;mix-blend-mode:multiply;fill:#224f71" />
  <path
     class="cls-4"
     d="m 20.96,19.41 v -4.56 a 1.95,1.95 0 0 0 -2.13,-2.16 h -0.25 a 1.95,1.95 0 0 0 -2.13,2.16 v 4.56 a 1.95,1.95 0 0 0 2.13,2.16 h 0.25 a 2.13,2.13 0 0 0 1.55,-0.55 2.1,2.1 0 0 0 0.58,-1.61 z m -1.08,-4.8 -2.36,3.43 v -3.43 a 0.9,0.9 0 0 1 0.3,-0.68 1.06,1.06 0 0 1 0.76,-0.29 h 0.25 a 1,1 0 0 1 0.75,0.29 0.9,0.9 0 0 1 0.3,0.68 z m -2.36,5 2.36,-3.42 v 3.42 a 0.9,0.9 0 0 1 -0.3,0.68 1,1 0 0 1 -0.75,0.29 h -0.25 a 1.06,1.06 0 0 1 -0.76,-0.29 0.9,0.9 0 0 1 -0.3,-0.64 z"
     id="path4154"
     inkscape:connector-curvature="0"
     style="opacity:0.7;isolation:isolate;mix-blend-mode:multiply;fill:#224f71" />
  <path
     class="cls-4"
     d="m 16.7,33.3 v 1 h 4.12 v -1 h -1.38 v -7.93 h -1.21 l -1.66,0.64 v 1 l 1.79,-0.66 v 6.93 z"
     id="path4156"
     inkscape:connector-curvature="0"
     style="opacity:0.7;isolation:isolate;mix-blend-mode:multiply;fill:#224f71" />
  <path
     class="cls-4"
     d="m 20.96,44.78 v -4.56 a 1.95,1.95 0 0 0 -2.13,-2.16 h -0.25 a 1.95,1.95 0 0 0 -2.13,2.16 v 4.56 a 1.95,1.95 0 0 0 2.13,2.16 h 0.25 a 2.13,2.13 0 0 0 1.55,-0.55 2.1,2.1 0 0 0 0.58,-1.61 z m -1.08,-4.8 -2.36,3.43 v -3.43 a 0.91,0.91 0 0 1 0.3,-0.68 1.06,1.06 0 0 1 0.76,-0.29 h 0.25 a 1,1 0 0 1 0.75,0.29 0.91,0.91 0 0 1 0.3,0.67 z m -2.36,5.05 2.36,-3.43 v 3.43 a 0.89,0.89 0 0 1 -0.3,0.67 1,1 0 0 1 -0.75,0.29 h -0.25 a 1.06,1.06 0 0 1 -0.76,-0.29 0.89,0.89 0 0 1 -0.3,-0.68 z"
     id="path4158"
     inkscape:connector-curvature="0"
     style="opacity:0.7;isolation:isolate;mix-blend-mode:multiply;fill:#224f71" />
  <path
     class="cls-4"
     d="m 16.7,71.36 v 0.95 h 4.12 v -0.95 h -1.38 v -7.93 h -1.21 l -1.66,0.64 v 1 l 1.79,-0.65 v 6.92 z"
     id="path4160"
     inkscape:connector-curvature="0"
     style="opacity:0.7;isolation:isolate;mix-blend-mode:multiply;fill:#224f71" />
  <path
     class="cls-4"
     d="m 20.96,57.36 v -4.58 a 2.12,2.12 0 0 0 -0.57,-1.61 2.18,2.18 0 0 0 -1.56,-0.55 h -0.25 a 2.18,2.18 0 0 0 -1.56,0.55 2.12,2.12 0 0 0 -0.57,1.61 v 4.57 a 2.13,2.13 0 0 0 0.57,1.6 2.15,2.15 0 0 0 1.56,0.55 h 0.25 a 2.13,2.13 0 0 0 1.55,-0.55 2.09,2.09 0 0 0 0.58,-1.59 z m -1.08,-4.81 -2.36,3.44 v -3.44 a 0.91,0.91 0 0 1 0.3,-0.68 1.05,1.05 0 0 1 0.76,-0.28 h 0.25 a 1,1 0 0 1 0.75,0.28 0.91,0.91 0 0 1 0.3,0.68 z m -2.36,5.05 2.36,-3.43 v 3.43 a 0.91,0.91 0 0 1 -0.3,0.68 1,1 0 0 1 -0.75,0.28 h -0.25 a 1.05,1.05 0 0 1 -0.76,-0.28 0.91,0.91 0 0 1 -0.3,-0.68 z"
     id="path4162"
     inkscape:connector-curvature="0"
     style="opacity:0.7;isolation:isolate;mix-blend-mode:multiply;fill:#224f71" />
  <path
     class="cls-4"
     d="m 16.7,84.03 v 1 h 4.12 v -1 h -1.38 v -7.92 h -1.21 l -1.66,0.63 v 1 l 1.79,-0.66 V 84 Z"
     id="path4164"
     inkscape:connector-curvature="0"
     style="opacity:0.7;isolation:isolate;mix-blend-mode:multiply;fill:#224f71" />
  <path
     class="cls-5"
     d="m 8.62,19.36 v 0.91 h 3.94 V 19.36 H 11.24 V 11.78 H 10.08 L 8.5,12.39 v 1 l 1.71,-0.63 v 6.63 z"
     id="path4166"
     inkscape:connector-curvature="0"
     style="opacity:0.5;isolation:isolate;mix-blend-mode:multiply;fill:#224f71" />
  <path
     class="cls-5"
     d="m 12.69,30.34 v -4.37 a 2,2 0 0 0 -0.54,-1.54 2.07,2.07 0 0 0 -1.5,-0.52 h -0.24 a 1.86,1.86 0 0 0 -2,2.06 v 4.37 a 1.89,1.89 0 0 0 2,2.06 h 0.24 a 2,2 0 0 0 1.49,-0.53 2,2 0 0 0 0.55,-1.53 z m -1,-4.6 -2.25,3.29 v -3.25 a 0.88,0.88 0 0 1 0.28,-0.65 1,1 0 0 1 0.72,-0.27 h 0.24 a 1,1 0 0 1 0.73,0.27 0.88,0.88 0 0 1 0.25,0.65 z m -2.25,4.83 2.25,-3.27 v 3.27 a 0.86,0.86 0 0 1 -0.28,0.65 1,1 0 0 1 -0.73,0.27 H 10.44 A 1,1 0 0 1 9.72,31.22 0.86,0.86 0 0 1 9.41,30.57 Z"
     id="path4168"
     inkscape:connector-curvature="0"
     style="opacity:0.5;isolation:isolate;mix-blend-mode:multiply;fill:#224f71" />
  <path
     class="cls-5"
     d="m 8.62,67.88 v 0.9 h 3.94 V 67.87 H 11.24 V 60.29 H 10.08 L 8.5,60.9 v 1 l 1.71,-0.63 v 6.62 z"
     id="path4170"
     inkscape:connector-curvature="0"
     style="opacity:0.5;isolation:isolate;mix-blend-mode:multiply;fill:#224f71" />
  <path
     class="cls-5"
     d="m 8.62,92.17 v 0.91 h 3.94 v -0.91 h -1.32 v -7.58 h -1.16 l -1.58,0.6 v 1 l 1.71,-0.63 v 6.62 z"
     id="path4172"
     inkscape:connector-curvature="0"
     style="opacity:0.5;isolation:isolate;mix-blend-mode:multiply;fill:#224f71" />
  <path
     class="cls-5"
     d="m 8.62,56.36 v 0.91 h 3.94 v -0.91 h -1.32 v -7.58 h -1.16 l -1.58,0.6 v 1 l 1.71,-0.63 v 6.63 z"
     id="path4174"
     inkscape:connector-curvature="0"
     style="opacity:0.5;isolation:isolate;mix-blend-mode:multiply;fill:#224f71" />
  <path
     class="cls-5"
     d="M 12.69,42.47 V 38.1 a 2,2 0 0 0 -0.54,-1.54 2.07,2.07 0 0 0 -1.5,-0.52 h -0.24 a 1.86,1.86 0 0 0 -2,2.06 v 4.37 a 2,2 0 0 0 0.56,1.53 2,2 0 0 0 1.48,0.53 h 0.24 A 2.07,2.07 0 0 0 12.18,44 2,2 0 0 0 12.69,42.47 Z m -1,-4.6 -2.25,3.29 v -3.29 a 0.86,0.86 0 0 1 0.28,-0.65 1,1 0 0 1 0.72,-0.27 h 0.24 a 1,1 0 0 1 0.73,0.27 0.86,0.86 0 0 1 0.25,0.65 z m -2.25,4.83 2.25,-3.28 v 3.28 a 0.86,0.86 0 0 1 -0.28,0.65 1,1 0 0 1 -0.73,0.27 H 10.44 A 1,1 0 0 1 9.72,43.35 0.86,0.86 0 0 1 9.41,42.7 Z"
     id="path4176"
     inkscape:connector-curvature="0"
     style="opacity:0.5;isolation:isolate;mix-blend-mode:multiply;fill:#224f71" />
  <path
     class="cls-5"
     d="m 8.62,79.58 v 0.91 h 3.94 V 79.58 H 11.24 V 72 H 10.08 L 8.5,72.61 v 1 l 1.71,-0.63 v 6.62 z"
     id="path4178"
     inkscape:connector-curvature="0"
     style="opacity:0.5;isolation:isolate;mix-blend-mode:multiply;fill:#224f71" />
  <polygon
     class="cls-6"
     points="37.09,29.71 37.09,65.64 67.67,96.1 103.22,96.1 "
     id="polygon4180"
     style="isolation:isolate;mix-blend-mode:multiply;fill:#afdedc" />
  <polygon
     class="cls-6"
     points="55.99,39.33 95.04,0.17 59.74,0.17 38.49,21.5 "
     id="polygon4182"
     style="isolation:isolate;mix-blend-mode:multiply;fill:#afdedc" />
  <polygon
     class="cls-6"
     points="55.99,39.33 95.04,0.17 59.74,0.17 38.49,21.5 "
     id="polygon4184"
     style="isolation:isolate;mix-blend-mode:multiply;fill:#afdedc" />
  <polygon
     class="cls-7"
     points="55.99,39.33 95.04,0.17 59.74,0.17 38.49,21.5 "
     id="polygon4186"
     style="isolation:isolate;fill:url(#linearGradient4217)" />
  <polygon
     class="cls-8"
     points="37.09,29.71 37.09,65.64 67.67,96.1 103.22,96.1 "
     id="polygon4188"
     style="isolation:isolate;fill:url(#linear-gradient-2)" />
  <g
     class="cls-9"
     id="g4192"
     style="opacity:0.25;isolation:isolate">
    <path
       class="cls-10"
       d="m 484.63,443.42 v 2.82 h 7.78 v -5.46 h -3.2 m 7.74,5.47 h -2 m 0,-2.73 h 2 m 0,-2.74 h -2 M 484.63,449 H 497 m -10.3,-9.25 v 1.06 h -6 v 19.49 h 18.84 v -7.67 m -18.84,-11.85 3.51,-3.51 m 18,11.71 h 2.95 m 0,-2.73 h -2.95 m -13.33,16.68 v 3.35 h 18.84 v -5.56 m -23,-6.31 h 7.49 m 4.83,-2.72 h -12.41 m 20.48,5.47 h -2.95 m 0,-2.72 h 2.95 m 0,-2.72 h -2.95"
       transform="translate(-437.84,-398.22)"
       id="path4190"
       inkscape:connector-curvature="0"
       style="fill:none;fill-rule:evenodd;stroke:#ffffff;stroke-linecap:round;stroke-linejoin:round" />
  </g>
  <g
     class="cls-9"
     id="g4202"
     style="opacity:0.25;isolation:isolate">
    <polygon
       class="cls-11"
       points="51.66,8.28 51.66,14.49 58.93,14.49 58.92,5.08 54.85,5.08 "
       id="polygon4194"
       style="fill:none;stroke:#ffffff;stroke-linecap:round;stroke-linejoin:round" />
    <path
       class="cls-11"
       d="m 498.92,416.63 -1.48,-1.48 -9.13,7.85 v 0 l 4.24,4.23 v 0 l 7.88,-9.16 z"
       transform="translate(-437.84,-398.22)"
       id="path4196"
       inkscape:connector-curvature="0"
       style="fill:none;stroke:#ffffff;stroke-linecap:round;stroke-linejoin:round" />
    <path
       class="cls-11"
       d="m 501.26,414.31 a 8.94,8.94 0 1 0 -2.61,-6.32 8.63,8.63 0 0 0 2.61,6.32 z m 1.54,-7.82 -0.59,-0.32 a 5.4,5.4 0 0 1 1.12,-1.91 l 0.56,0.36 a 1.17,1.17 0 0 0 1.17,0 l 0.88,-0.51 a 1.16,1.16 0 0 0 0.55,-1 v -0.68 a 6.16,6.16 0 0 1 2.21,0 v 0.67 a 1.18,1.18 0 0 0 0.54,1 l 0.89,0.5 a 1.13,1.13 0 0 0 1.16,0 l 0.57,-0.35 a 5.4,5.4 0 0 1 1.12,1.91 l -0.59,0.33 a 1.16,1.16 0 0 0 -0.63,1 v 1 a 1.16,1.16 0 0 0 0.63,1 l 0.59,0.33 a 5.4,5.4 0 0 1 -1.12,1.91 l -0.57,-0.35 a 1.13,1.13 0 0 0 -1.16,0 l -0.89,0.5 a 1.17,1.17 0 0 0 -0.54,1 v 0.67 a 6.16,6.16 0 0 1 -2.21,0 v -0.67 a 1.16,1.16 0 0 0 -0.55,-1 l -0.88,-0.51 a 1.17,1.17 0 0 0 -1.17,0 l -0.56,0.35 a 5.35,5.35 0 0 1 -1.12,-1.92 l 0.59,-0.32 a 1.16,1.16 0 0 0 0.63,-1 v -1 a 1.16,1.16 0 0 0 -0.63,-0.99 z"
       transform="translate(-437.84,-398.22)"
       id="path4198"
       inkscape:connector-curvature="0"
       style="fill:none;stroke:#ffffff;stroke-linecap:round;stroke-linejoin:round" />
    <path
       class="cls-11"
       d="m 507.58,410.25 a 2.25,2.25 0 0 0 2.25,-2.26 2.25,2.25 0 1 0 -4.5,0 2.25,2.25 0 0 0 2.25,2.26 z"
       transform="translate(-437.84,-398.22)"
       id="path4200"
       inkscape:connector-curvature="0"
       style="fill:none;stroke:#ffffff;stroke-linecap:round;stroke-linejoin:round" />
  </g>
  <g
     class="cls-9"
     id="g4206"
     style="opacity:0.25;isolation:isolate">
    <path
       class="cls-10"
       d="m 511.4,474.76 v -5.22 h -0.16 c -1.6,0.06 -3,1.09 -4.2,3.07 -0.18,0.3 -0.36,0.63 -0.54,1 l -0.18,0.38 a 18.11,18.11 0 0 0 -1.09,3 12.84,12.84 0 0 0 3,1.07 m 3.14,-8.53 h 0.16 a 13.39,13.39 0 0 1 6.08,1.44 m 6.18,6.15 h -12.36 a 0.79,0.79 0 0 0 -0.57,0.25 0.66,0.66 0 0 0 -0.2,0.31 0.75,0.75 0 0 0 -0.05,0.26 v 10 h 15.19 v -9 m -7.2,4.69 -1.69,1.69 -0.55,-5.58 4.55,3.28 z m -7.05,-14.16 c 1.6,0.06 3,1.09 4.2,3.07 0.18,0.3 0.36,0.63 0.54,1 l 0.18,0.38 c 0.12,0.26 0.23,0.52 0.34,0.79 m -18.9,11.85 a 14.8,14.8 0 0 1 -0.35,-3.23 v 0 a 13.27,13.27 0 0 1 3.68,-9.4 l 0.37,-0.38 a 14.06,14.06 0 0 1 1.08,-1 13.2,13.2 0 0 1 8.54,-3.07 m -4.72,19.65 a 12.26,12.26 0 0 0 -1.29,0.56 18.58,18.58 0 0 0 1.09,3 l 0.18,0.38 q 0.27,0.53 0.54,1 m -4.34,-2.73 a 13.61,13.61 0 0 1 2.53,-1.66 25.19,25.19 0 0 1 -0.75,-6.37 h -6.91 m 7.66,-6.38 a 25.24,25.24 0 0 0 -0.75,6.37 h 3.78 m -7,-9.41 0.37,0.39 a 14.06,14.06 0 0 0 1.08,1 13.61,13.61 0 0 0 2.53,1.66 m 10.38,17.37 a 0.83,0.83 0 0 1 0.08,-0.12 l 0.06,-0.11 c 0.19,-0.31 0.37,-0.64 0.55,-1 l 0.18,-0.38 0.33,-0.74 m 5.39,0 c -0.21,0.25 -0.43,0.5 -0.66,0.74 a 4.27,4.27 0 0 1 -0.36,0.38 q -0.52,0.53 -1.08,1 l -0.17,0.13 M 510.62,488 h -2 v 0.24 a 1.31,1.31 0 0 0 0.4,1 l 0.06,0.06 a 1.32,1.32 0 0 0 0.92,0.35 h 16.48 a 1.38,1.38 0 0 0 1.37,-1.38 V 488 h -2 m -14.41,4 v 2.15"
       transform="translate(-437.84,-398.22)"
       id="path4204"
       inkscape:connector-curvature="0"
       style="fill:none;fill-rule:evenodd;stroke:#ffffff;stroke-linecap:round;stroke-linejoin:round" />
  </g>
  <text
     xml:space="preserve"
     style="font-style:normal;font-weight:normal;font-size:40px;line-height:1.25;font-family:sans-serif;letter-spacing:0px;word-spacing:0px;fill:#224f71;fill-opacity:1;stroke:none"
     x="220.42699"
     y="93.160385"
     id="text4318"><tspan
       sodipodi:role="line"
       id="tspan4316"
       x="220.42699"
       y="93.160385"
       style="font-style:normal;font-variant:normal;font-weight:normal;font-stretch:normal;font-size:10.66666698px;font-family:sans-serif;-inkscape-font-specification:'sans-serif, Normal';font-variant-ligatures:normal;font-variant-caps:normal;font-variant-numeric:normal;font-feature-settings:normal;text-align:start;writing-mode:lr-tb;text-anchor:start;fill:#224f71;fill-opacity:1">3.1</tspan></text>
  <text
     xml:space="preserve"
     style="font-style:normal;font-weight:normal;font-size:40px;line-height:1.25;font-family:sans-serif;letter-spacing:0px;word-spacing:0px;fill:#000000;fill-opacity:1;stroke:none"
     x="-93.897385"
     y="246.3531"
     id="text4402"
     transform="rotate(-90)"><tspan
       sodipodi:role="line"
       id="tspan4400"
       x="-93.897385"
       y="246.3531"
       style="font-style:normal;font-variant:normal;font-weight:normal;font-stretch:normal;font-size:5.33333349px;font-family:sans-serif;-inkscape-font-specification:'sans-serif, Normal';font-variant-ligatures:normal;font-variant-caps:normal;font-variant-numeric:normal;font-feature-settings:normal;text-align:start;writing-mode:lr-tb;text-anchor:start;fill:#008000"></tspan></text>
</svg>
