<?xml version="1.0" encoding="UTF-8" standalone="no"?>
<svg
   xmlns:dc="http://purl.org/dc/elements/1.1/"
   xmlns:cc="http://creativecommons.org/ns#"
   xmlns:rdf="http://www.w3.org/1999/02/22-rdf-syntax-ns#"
   xmlns:svg="http://www.w3.org/2000/svg"
   xmlns="http://www.w3.org/2000/svg"
   xmlns:sodipodi="http://sodipodi.sourceforge.net/DTD/sodipodi-0.dtd"
   xmlns:inkscape="http://www.inkscape.org/namespaces/inkscape"
   viewBox="0 0 249.28 96.1"
   version="1.1"
   id="svg5833"
   sodipodi:docname="Kosh_logo_Black_Text.svg"
   inkscape:version="0.92.2 (5c3e80d, 2017-08-06)">
  <metadata
     id="metadata5837">
    <rdf:RDF>
      <cc:Work
         rdf:about="">
        <dc:format>image/svg+xml</dc:format>
        <dc:type
           rdf:resource="http://purl.org/dc/dcmitype/StillImage" />
        <dc:title></dc:title>
      </cc:Work>
    </rdf:RDF>
  </metadata>
  <sodipodi:namedview
     pagecolor="#ffffff"
     bordercolor="#666666"
     borderopacity="1"
     objecttolerance="10"
     gridtolerance="10"
     guidetolerance="10"
     inkscape:pageopacity="0"
     inkscape:pageshadow="2"
     inkscape:window-width="2483"
     inkscape:window-height="1329"
     id="namedview5835"
     showgrid="false"
     inkscape:zoom="7.2616871"
     inkscape:cx="124.64"
     inkscape:cy="48.049999"
     inkscape:window-x="0"
     inkscape:window-y="28"
     inkscape:window-maximized="0"
     inkscape:current-layer="svg5833" />
  <defs
     id="defs5750">
    <style
       id="style5748">.cls-1{isolation:isolate;}.cls-2,.cls-3,.cls-4,.cls-6{fill:#010101;}.cls-2,.cls-3,.cls-4,.cls-5{mix-blend-mode:multiply;}.cls-3{opacity:0.7;}.cls-4{opacity:0.5;}.cls-5{fill:#afdedc;}</style>
  </defs>
  <path
     class="cls-2"
     d="m 0.26,8.44 v 1 h 4.32 v -1 H 3.14 V 0.14 H 1.88 L 0.14,0.8 V 1.88 L 2.01,1.19 v 7.25 z"
     id="path5752"
     inkscape:connector-curvature="0"
     style="isolation:isolate;mix-blend-mode:multiply;fill:#010101" />
  <path
     class="cls-2"
     d="M 4.72,20.45 V 15.64 A 2,2 0 0 0 2.49,13.38 H 2.23 A 2.25,2.25 0 0 0 0.59,13.96 2.21,2.21 0 0 0 0,15.64 v 4.78 a 2,2 0 0 0 2.23,2.26 h 0.26 a 2.24,2.24 0 0 0 1.63,-0.58 2.21,2.21 0 0 0 0.6,-1.65 z m -1.13,-5 -2.47,3.6 v -3.6 a 1,1 0 0 1 0.32,-0.71 1.08,1.08 0 0 1 0.79,-0.3 h 0.26 a 1.09,1.09 0 0 1 0.79,0.3 1,1 0 0 1 0.31,0.68 z m -2.45,5.26 2.47,-3.59 v 3.59 A 1,1 0 0 1 3.3,21.42 1.13,1.13 0 0 1 2.51,21.71 H 2.25 A 1.11,1.11 0 0 1 1.46,21.42 1,1 0 0 1 1.14,20.71 Z"
     id="path5754"
     inkscape:connector-curvature="0"
     style="isolation:isolate;mix-blend-mode:multiply;fill:#010101" />
  <path
     class="cls-2"
     d="M 4.72,33.73 V 28.95 A 2,2 0 0 0 2.49,26.69 H 2.23 A 2.29,2.29 0 0 0 0.59,27.26 2.25,2.25 0 0 0 0,28.95 v 4.78 a 2,2 0 0 0 2.23,2.26 h 0.26 a 2.24,2.24 0 0 0 1.63,-0.58 2.21,2.21 0 0 0 0.6,-1.68 z m -1.13,-5 -2.47,3.6 v -3.6 a 0.94,0.94 0 0 1 0.32,-0.71 1.08,1.08 0 0 1 0.79,-0.3 h 0.26 a 1.09,1.09 0 0 1 0.79,0.3 0.93,0.93 0 0 1 0.31,0.68 z M 1.14,33.99 3.61,30.4 v 3.59 A 1,1 0 0 1 3.3,34.7 1.13,1.13 0 0 1 2.51,34.99 H 2.25 A 1.11,1.11 0 0 1 1.46,34.7 1,1 0 0 1 1.14,33.99 Z"
     id="path5756"
     inkscape:connector-curvature="0"
     style="isolation:isolate;mix-blend-mode:multiply;fill:#010101" />
  <path
     class="cls-2"
     d="m 0.26,48.28 v 1 h 4.32 v -1 H 3.14 v -8.3 H 1.88 l -1.74,0.66 v 1.08 l 1.87,-0.69 v 7.25 z"
     id="path5758"
     inkscape:connector-curvature="0"
     style="isolation:isolate;mix-blend-mode:multiply;fill:#010101" />
  <path
     class="cls-2"
     d="M 4.72,60.3 V 55.52 A 2,2 0 0 0 2.49,53.26 H 2.23 A 2.29,2.29 0 0 0 0.59,53.83 2.23,2.23 0 0 0 0,55.52 v 4.78 a 2,2 0 0 0 2.23,2.26 h 0.26 a 2.24,2.24 0 0 0 1.63,-0.58 2.21,2.21 0 0 0 0.6,-1.68 z m -1.13,-5 -2.47,3.6 v -3.6 a 0.94,0.94 0 0 1 0.32,-0.71 1.08,1.08 0 0 1 0.79,-0.3 h 0.26 a 1.09,1.09 0 0 1 0.79,0.3 0.93,0.93 0 0 1 0.31,0.68 z m -2.45,5.25 2.47,-3.58 v 3.58 A 0.93,0.93 0 0 1 3.3,61.26 1.09,1.09 0 0 1 2.51,61.56 H 2.25 A 1.08,1.08 0 0 1 1.46,61.26 0.94,0.94 0 0 1 1.14,60.55 Z"
     id="path5760"
     inkscape:connector-curvature="0"
     style="isolation:isolate;mix-blend-mode:multiply;fill:#010101" />
  <path
     class="cls-2"
     d="m 0.27,74.85 v 1 h 4.31 v -1 H 3.14 v -8.3 H 1.87 l -1.74,0.66 v 1.08 L 2.01,67.6 v 7.25 z"
     id="path5762"
     inkscape:connector-curvature="0"
     style="isolation:isolate;mix-blend-mode:multiply;fill:#010101" />
  <path
     class="cls-2"
     d="m 0.27,88.13 v 1 h 4.31 v -1 H 3.14 v -8.3 H 1.87 L 0.13,80.5 v 1.07 l 1.88,-0.69 v 7.25 z"
     id="path5764"
     inkscape:connector-curvature="0"
     style="isolation:isolate;mix-blend-mode:multiply;fill:#010101" />
  <path
     class="cls-2"
     d="m 24.77,15.37 v 1 h 4.31 v -1 h -1.44 v -8.3 h -1.26 l -1.74,0.66 v 1.08 l 1.87,-0.69 v 7.25 z"
     id="path5766"
     inkscape:connector-curvature="0"
     style="isolation:isolate;mix-blend-mode:multiply;fill:#010101" />
  <path
     class="cls-2"
     d="M 29.23,27.38 V 22.64 A 2.21,2.21 0 0 0 28.63,20.96 2.26,2.26 0 0 0 27,20.39 h -0.27 a 2.26,2.26 0 0 0 -1.63,0.57 2.21,2.21 0 0 0 -0.6,1.68 v 4.78 a 2.18,2.18 0 0 0 0.61,1.68 2.22,2.22 0 0 0 1.62,0.58 H 27 a 2.26,2.26 0 0 0 1.63,-0.58 2.21,2.21 0 0 0 0.6,-1.72 z m -1.13,-5 -2.47,3.6 v -3.6 a 1,1 0 0 1 0.31,-0.71 1.11,1.11 0 0 1 0.79,-0.3 H 27 a 1.09,1.09 0 0 1 0.79,0.3 1,1 0 0 1 0.35,0.68 z m -2.47,5.26 2.47,-3.59 v 3.59 a 1,1 0 0 1 -0.31,0.71 1.09,1.09 0 0 1 -0.79,0.3 h -0.27 a 1.11,1.11 0 0 1 -0.79,-0.3 1,1 0 0 1 -0.31,-0.71 z"
     id="path5768"
     inkscape:connector-curvature="0"
     style="isolation:isolate;mix-blend-mode:multiply;fill:#010101" />
  <path
     class="cls-2"
     d="M 29.23,40.64 V 35.86 A 2.21,2.21 0 0 0 28.63,34.18 2.26,2.26 0 0 0 27,33.61 h -0.27 a 2.26,2.26 0 0 0 -1.63,0.57 2.21,2.21 0 0 0 -0.6,1.68 v 4.78 a 2.18,2.18 0 0 0 0.61,1.68 2.22,2.22 0 0 0 1.62,0.58 H 27 a 2.26,2.26 0 0 0 1.63,-0.58 2.21,2.21 0 0 0 0.6,-1.68 z m -1.09,-5 -2.47,3.6 v -3.6 a 1,1 0 0 1 0.31,-0.71 1.11,1.11 0 0 1 0.79,-0.3 h 0.27 a 1.09,1.09 0 0 1 0.79,0.3 1,1 0 0 1 0.31,0.71 z m -2.47,5.29 2.47,-3.59 v 3.59 a 1,1 0 0 1 -0.31,0.71 1.09,1.09 0 0 1 -0.79,0.3 h -0.27 a 1.11,1.11 0 0 1 -0.79,-0.3 1,1 0 0 1 -0.35,-0.72 z"
     id="path5770"
     inkscape:connector-curvature="0"
     style="isolation:isolate;mix-blend-mode:multiply;fill:#010101" />
  <path
     class="cls-2"
     d="m 24.77,55.21 v 1 h 4.31 v -1 h -1.44 v -8.3 h -1.26 l -1.74,0.66 v 1.07 l 1.87,-0.69 v 7.25 z"
     id="path5772"
     inkscape:connector-curvature="0"
     style="isolation:isolate;mix-blend-mode:multiply;fill:#010101" />
  <path
     class="cls-2"
     d="M 29.23,67.23 V 62.45 A 2,2 0 0 0 27,60.19 h -0.27 a 2,2 0 0 0 -2.23,2.26 v 4.78 a 2.18,2.18 0 0 0 0.61,1.68 2.22,2.22 0 0 0 1.62,0.58 H 27 a 2.26,2.26 0 0 0 1.63,-0.58 2.21,2.21 0 0 0 0.6,-1.68 z m -1.13,-5 -2.47,3.6 v -3.6 a 1,1 0 0 1 0.31,-0.71 1.11,1.11 0 0 1 0.79,-0.3 H 27 a 1.09,1.09 0 0 1 0.79,0.3 0.93,0.93 0 0 1 0.35,0.68 z m -2.47,5.28 2.47,-3.58 v 3.58 A 1,1 0 0 1 27.79,68.23 1.13,1.13 0 0 1 27,68.52 h -0.27 a 1.15,1.15 0 0 1 -0.79,-0.29 1,1 0 0 1 -0.31,-0.75 z"
     id="path5774"
     inkscape:connector-curvature="0"
     style="isolation:isolate;mix-blend-mode:multiply;fill:#010101" />
  <path
     class="cls-2"
     d="M 29.23,80.52 V 75.74 A 2.22,2.22 0 0 0 28.63,74.05 2.26,2.26 0 0 0 27,73.48 h -0.27 a 2.26,2.26 0 0 0 -1.63,0.57 2.22,2.22 0 0 0 -0.6,1.69 v 4.78 a 2.21,2.21 0 0 0 0.61,1.68 2.26,2.26 0 0 0 1.62,0.58 H 27 a 2.3,2.3 0 0 0 1.63,-0.58 2.24,2.24 0 0 0 0.6,-1.68 z m -1.13,-5 -2.47,3.59 v -3.59 a 1,1 0 0 1 0.31,-0.72 1.15,1.15 0 0 1 0.79,-0.29 H 27 a 1.13,1.13 0 0 1 0.79,0.29 1,1 0 0 1 0.35,0.69 z m -2.47,5.28 2.47,-3.58 v 3.58 a 0.93,0.93 0 0 1 -0.31,0.71 1.09,1.09 0 0 1 -0.79,0.3 h -0.27 a 1.11,1.11 0 0 1 -0.79,-0.3 1,1 0 0 1 -0.31,-0.74 z"
     id="path5776"
     inkscape:connector-curvature="0"
     style="isolation:isolate;mix-blend-mode:multiply;fill:#010101" />
  <path
     class="cls-2"
     d="M 29.23,93.8 V 89.02 A 2,2 0 0 0 27,86.76 h -0.27 a 2,2 0 0 0 -2.23,2.26 v 4.78 a 2.18,2.18 0 0 0 0.61,1.68 2.22,2.22 0 0 0 1.62,0.58 H 27 a 2.26,2.26 0 0 0 1.63,-0.58 2.21,2.21 0 0 0 0.6,-1.68 z m -1.13,-5 -2.47,3.6 v -3.6 a 1,1 0 0 1 0.31,-0.71 1.11,1.11 0 0 1 0.79,-0.3 H 27 a 1.09,1.09 0 0 1 0.79,0.3 1,1 0 0 1 0.35,0.68 z m -2.47,5.29 2.47,-3.59 v 3.59 A 1,1 0 0 1 27.79,94.8 1.13,1.13 0 0 1 27,95.09 H 26.73 A 1.15,1.15 0 0 1 25.94,94.8 1,1 0 0 1 25.63,94.06 Z"
     id="path5778"
     inkscape:connector-curvature="0"
     style="isolation:isolate;mix-blend-mode:multiply;fill:#010101" />
  <path
     class="cls-3"
     d="m 16.69,7.93 v 0.95 h 4.13 V 7.93 H 19.43 V 0 h -1.2 l -1.66,0.64 v 1 l 1.79,-0.65 v 6.92 z"
     id="path5780"
     inkscape:connector-curvature="0"
     style="opacity:0.7;isolation:isolate;mix-blend-mode:multiply;fill:#010101" />
  <path
     class="cls-3"
     d="m 20.95,19.41 v -4.56 a 1.95,1.95 0 0 0 -2.13,-2.16 h -0.25 a 1.95,1.95 0 0 0 -2.13,2.16 v 4.56 a 2.12,2.12 0 0 0 0.58,1.61 2.17,2.17 0 0 0 1.55,0.55 h 0.25 a 2.2,2.2 0 0 0 1.56,-0.55 2.15,2.15 0 0 0 0.57,-1.61 z m -1.07,-4.8 -2.36,3.43 v -3.4 a 0.9,0.9 0 0 1 0.3,-0.68 1,1 0 0 1 0.75,-0.29 h 0.25 a 1.06,1.06 0 0 1 0.76,0.29 0.9,0.9 0 0 1 0.3,0.68 z m -2.36,5 2.36,-3.42 v 3.45 a 0.9,0.9 0 0 1 -0.3,0.68 1.06,1.06 0 0 1 -0.76,0.29 h -0.25 a 1,1 0 0 1 -0.75,-0.29 0.9,0.9 0 0 1 -0.3,-0.68 z"
     id="path5782"
     inkscape:connector-curvature="0"
     style="opacity:0.7;isolation:isolate;mix-blend-mode:multiply;fill:#010101" />
  <path
     class="cls-3"
     d="m 16.69,33.3 v 0.95 h 4.13 V 33.3 h -1.39 v -7.93 h -1.2 L 16.57,26 v 1 l 1.79,-0.66 v 6.93 z"
     id="path5784"
     inkscape:connector-curvature="0"
     style="opacity:0.7;isolation:isolate;mix-blend-mode:multiply;fill:#010101" />
  <path
     class="cls-3"
     d="m 20.95,44.77 v -4.56 a 1.95,1.95 0 0 0 -2.13,-2.16 h -0.25 a 1.95,1.95 0 0 0 -2.13,2.16 v 4.56 a 2.12,2.12 0 0 0 0.58,1.61 2.17,2.17 0 0 0 1.55,0.55 h 0.25 a 2.2,2.2 0 0 0 1.56,-0.55 2.15,2.15 0 0 0 0.57,-1.61 z m -1.07,-4.8 -2.36,3.43 v -3.43 a 0.9,0.9 0 0 1 0.3,-0.68 1,1 0 0 1 0.75,-0.29 h 0.25 a 1.06,1.06 0 0 1 0.76,0.29 0.9,0.9 0 0 1 0.3,0.68 z m -2.36,5 2.36,-3.42 v 3.42 a 0.9,0.9 0 0 1 -0.3,0.68 1.06,1.06 0 0 1 -0.76,0.29 h -0.25 a 1,1 0 0 1 -0.75,-0.29 0.9,0.9 0 0 1 -0.3,-0.64 z"
     id="path5786"
     inkscape:connector-curvature="0"
     style="opacity:0.7;isolation:isolate;mix-blend-mode:multiply;fill:#010101" />
  <path
     class="cls-3"
     d="m 16.69,71.36 v 0.95 h 4.13 v -0.95 h -1.39 v -7.93 h -1.2 l -1.66,0.64 v 1 l 1.79,-0.66 v 6.93 z"
     id="path5788"
     inkscape:connector-curvature="0"
     style="opacity:0.7;isolation:isolate;mix-blend-mode:multiply;fill:#010101" />
  <path
     class="cls-3"
     d="m 20.95,57.35 v -4.56 a 1.95,1.95 0 0 0 -2.13,-2.16 h -0.25 a 1.95,1.95 0 0 0 -2.13,2.16 v 4.56 a 2.1,2.1 0 0 0 0.58,1.61 2.13,2.13 0 0 0 1.55,0.55 h 0.25 a 1.95,1.95 0 0 0 2.13,-2.16 z m -1.07,-4.8 -2.36,3.44 v -3.44 a 0.91,0.91 0 0 1 0.3,-0.68 1,1 0 0 1 0.75,-0.29 h 0.25 a 1.06,1.06 0 0 1 0.76,0.29 0.91,0.91 0 0 1 0.3,0.68 z m -2.36,5 2.36,-3.43 v 3.52 a 0.89,0.89 0 0 1 -0.3,0.67 1.06,1.06 0 0 1 -0.76,0.29 h -0.25 a 1,1 0 0 1 -0.75,-0.29 0.89,0.89 0 0 1 -0.3,-0.67 z"
     id="path5790"
     inkscape:connector-curvature="0"
     style="opacity:0.7;isolation:isolate;mix-blend-mode:multiply;fill:#010101" />
  <path
     class="cls-3"
     d="m 16.69,84.03 v 0.95 h 4.13 v -0.95 h -1.39 v -7.92 h -1.2 l -1.66,0.63 v 1 l 1.79,-0.66 V 84 Z"
     id="path5792"
     inkscape:connector-curvature="0"
     style="opacity:0.7;isolation:isolate;mix-blend-mode:multiply;fill:#010101" />
  <path
     class="cls-4"
     d="m 8.61,19.36 v 0.91 h 3.94 v -0.91 h -1.32 v -7.59 h -1.15 l -1.59,0.61 v 1 l 1.71,-0.63 v 6.63 z"
     id="path5794"
     inkscape:connector-curvature="0"
     style="opacity:0.5;isolation:isolate;mix-blend-mode:multiply;fill:#010101" />
  <path
     class="cls-4"
     d="m 12.69,30.34 v -4.37 a 2,2 0 0 0 -0.55,-1.54 2,2 0 0 0 -1.49,-0.52 h -0.24 a 2.09,2.09 0 0 0 -1.5,0.52 2,2 0 0 0 -0.54,1.54 v 4.37 a 2,2 0 0 0 0.55,1.53 2.07,2.07 0 0 0 1.49,0.53 h 0.24 a 2.09,2.09 0 0 0 1.49,-0.53 2,2 0 0 0 0.55,-1.53 z m -1,-4.6 -2.26,3.29 v -3.29 a 0.87,0.87 0 0 1 0.29,-0.65 1,1 0 0 1 0.72,-0.27 h 0.24 a 1,1 0 0 1 0.72,0.27 0.87,0.87 0 0 1 0.26,0.65 z m -2.26,4.83 2.26,-3.28 v 3.28 a 0.87,0.87 0 0 1 -0.29,0.65 1,1 0 0 1 -0.72,0.27 H 10.44 A 1,1 0 0 1 9.72,31.22 0.87,0.87 0 0 1 9.4,30.57 Z"
     id="path5796"
     inkscape:connector-curvature="0"
     style="opacity:0.5;isolation:isolate;mix-blend-mode:multiply;fill:#010101" />
  <path
     class="cls-4"
     d="m 8.61,67.88 v 0.91 h 3.94 V 67.88 H 11.23 V 60.3 h -1.15 l -1.59,0.61 v 1 l 1.71,-0.63 v 6.62 z"
     id="path5798"
     inkscape:connector-curvature="0"
     style="opacity:0.5;isolation:isolate;mix-blend-mode:multiply;fill:#010101" />
  <path
     class="cls-4"
     d="m 8.61,92.17 v 0.91 h 3.94 v -0.91 h -1.32 v -7.53 h -1.15 l -1.59,0.6 v 1 L 10.2,85.6 v 6.63 z"
     id="path5800"
     inkscape:connector-curvature="0"
     style="opacity:0.5;isolation:isolate;mix-blend-mode:multiply;fill:#010101" />
  <path
     class="cls-4"
     d="m 8.61,56.36 v 0.91 h 3.94 v -0.91 h -1.32 v -7.59 h -1.15 l -1.59,0.61 v 1 l 1.71,-0.63 v 6.63 z"
     id="path5802"
     inkscape:connector-curvature="0"
     style="opacity:0.5;isolation:isolate;mix-blend-mode:multiply;fill:#010101" />
  <path
     class="cls-4"
     d="M 12.69,42.47 V 38.1 a 2,2 0 0 0 -0.55,-1.54 2,2 0 0 0 -1.49,-0.52 h -0.24 a 2.09,2.09 0 0 0 -1.5,0.52 2,2 0 0 0 -0.54,1.54 v 4.37 a 2,2 0 0 0 0.55,1.53 2.07,2.07 0 0 0 1.49,0.53 h 0.24 A 2.09,2.09 0 0 0 12.14,44 2,2 0 0 0 12.69,42.47 Z m -1,-4.6 -2.26,3.29 v -3.29 a 0.87,0.87 0 0 1 0.29,-0.65 1,1 0 0 1 0.72,-0.27 h 0.24 a 1,1 0 0 1 0.72,0.27 0.87,0.87 0 0 1 0.26,0.65 z m -2.26,4.83 2.26,-3.28 v 3.28 a 0.89,0.89 0 0 1 -0.29,0.65 1,1 0 0 1 -0.72,0.27 H 10.44 A 1,1 0 0 1 9.72,43.35 0.89,0.89 0 0 1 9.4,42.7 Z"
     id="path5804"
     inkscape:connector-curvature="0"
     style="opacity:0.5;isolation:isolate;mix-blend-mode:multiply;fill:#010101" />
  <path
     class="cls-4"
     d="m 8.61,79.58 v 0.91 h 3.94 V 79.58 H 11.23 V 72 h -1.15 l -1.59,0.6 v 1 l 1.71,-0.63 v 6.62 z"
     id="path5806"
     inkscape:connector-curvature="0"
     style="opacity:0.5;isolation:isolate;mix-blend-mode:multiply;fill:#010101" />
  <polygon
     class="cls-5"
     points="37.09,29.71 37.09,65.64 67.67,96.1 103.22,96.1 "
     id="polygon5808"
     style="isolation:isolate;mix-blend-mode:multiply;fill:#afdedc" />
  <polygon
     class="cls-5"
     points="55.99,39.33 95.04,0.17 59.74,0.17 38.49,21.5 "
     id="polygon5810"
     style="isolation:isolate;mix-blend-mode:multiply;fill:#afdedc" />
  <polygon
     class="cls-5"
     points="55.99,39.33 95.04,0.17 59.74,0.17 38.49,21.5 "
     id="polygon5812"
     style="isolation:isolate;mix-blend-mode:multiply;fill:#afdedc" />
  <polygon
     class="cls-6"
     points="55.99,39.33 95.04,0.17 59.74,0.17 38.49,21.5 "
     id="polygon5814"
     style="isolation:isolate;fill:#010101" />
  <polygon
     class="cls-6"
     points="37.09,29.71 37.09,65.64 67.67,96.1 103.22,96.1 "
     id="polygon5816"
     style="isolation:isolate;fill:#010101" />
  <path
     class="cls-6"
     d="m 130.37,42.22 a 26.82,26.82 0 1 1 -26.74,26.9 26.78,26.78 0 0 1 26.74,-26.9 z m 0,46.19 a 19.37,19.37 0 1 0 -19.29,-19.29 19.36,19.36 0 0 0 19.29,19.29 z"
     id="path5818"
     inkscape:connector-curvature="0"
     style="isolation:isolate;fill:#010101" />
  <path
     class="cls-6"
     d="m 164.49,87.64 c 0.67,-1 1.27,-2.09 1.94,-3.05 a 1.68,1.68 0 0 1 2.53,-0.6 c 0.45,0.37 6.19,5.14 11.92,5.14 5.14,0 8.42,-3.13 8.42,-6.93 0,-4.47 -3.88,-7.3 -11.25,-10.35 -7.6,-3.21 -13.56,-7.15 -13.56,-15.8 0,-5.81 4.47,-13.78 16.32,-13.78 a 25.25,25.25 0 0 1 13.78,4.4 1.77,1.77 0 0 1 0.44,2.53 c -0.59,0.9 -1.26,1.94 -1.86,2.83 a 1.75,1.75 0 0 1 -2.6,0.75 c -0.53,-0.3 -5.74,-3.73 -10.06,-3.73 -6.26,0 -8.42,3.95 -8.42,6.71 0,4.24 3.28,6.85 9.46,9.38 8.64,3.5 16,7.6 16,16.69 0,7.75 -6.93,14.08 -16.61,14.08 a 24.11,24.11 0 0 1 -16,-5.89 1.56,1.56 0 0 1 -0.45,-2.38 z"
     id="path5820"
     inkscape:connector-curvature="0"
     style="isolation:isolate;fill:#010101" />
  <path
     class="cls-6"
     d="m 206.51,44.38 a 1.46,1.46 0 0 1 1.42,-1.41 h 4.91 a 1.42,1.42 0 0 1 1.42,1.41 v 20.79 h 27.26 V 44.38 a 1.42,1.42 0 0 1 1.42,-1.41 h 4.92 a 1.46,1.46 0 0 1 1.41,1.41 V 93.7 a 1.46,1.46 0 0 1 -1.41,1.41 h -4.92 A 1.42,1.42 0 0 1 241.52,93.7 V 72.17 H 214.26 V 93.7 a 1.42,1.42 0 0 1 -1.42,1.41 h -4.91 a 1.46,1.46 0 0 1 -1.42,-1.41 z"
     id="path5822"
     inkscape:connector-curvature="0"
     style="isolation:isolate;fill:#010101" />
  <text
     xml:space="preserve"
     style="font-style:normal;font-weight:normal;font-size:40px;line-height:1.25;font-family:sans-serif;letter-spacing:0px;word-spacing:0px;fill:#010101;fill-opacity:1;stroke:none;"
     x="219.00368"
     y="93.422485"
     id="text4318"><tspan
       sodipodi:role="line"
       id="tspan4316"
       x="219.00368"
       y="93.422485"
       style="font-style:normal;font-variant:normal;font-weight:normal;font-stretch:normal;font-size:10.66666698px;font-family:sans-serif;-inkscape-font-specification:'sans-serif, Normal';font-variant-ligatures:normal;font-variant-caps:normal;font-variant-numeric:normal;font-feature-settings:normal;text-align:start;writing-mode:lr-tb;text-anchor:start;fill:#010101;fill-opacity:1;">1.1</tspan></text>
  <text
     xml:space="preserve"
     style="font-style:normal;font-weight:normal;font-size:40px;line-height:1.25;font-family:sans-serif;letter-spacing:0px;word-spacing:0px;fill:#000000;fill-opacity:1;stroke:none"
     x="-94.71032"
     y="247.27084"
     id="text4402"
     transform="rotate(-90)"><tspan
       sodipodi:role="line"
       id="tspan4400"
       x="-94.71032"
       y="247.27084"
       style="font-style:normal;font-variant:normal;font-weight:normal;font-stretch:normal;font-size:5.33333349px;font-family:sans-serif;-inkscape-font-specification:'sans-serif, Normal';font-variant-ligatures:normal;font-variant-caps:normal;font-variant-numeric:normal;font-feature-settings:normal;text-align:start;writing-mode:lr-tb;text-anchor:start;fill:#008000"></tspan></text>
</svg>
