<?xml version="1.0" encoding="UTF-8" standalone="no"?>
<svg
   xmlns:dc="http://purl.org/dc/elements/1.1/"
   xmlns:cc="http://creativecommons.org/ns#"
   xmlns:rdf="http://www.w3.org/1999/02/22-rdf-syntax-ns#"
   xmlns:svg="http://www.w3.org/2000/svg"
   xmlns="http://www.w3.org/2000/svg"
   xmlns:xlink="http://www.w3.org/1999/xlink"
   xmlns:sodipodi="http://sodipodi.sourceforge.net/DTD/sodipodi-0.dtd"
   xmlns:inkscape="http://www.inkscape.org/namespaces/inkscape"
   viewBox="0 0 248.88 96.48"
   version="1.1"
   id="svg4966"
   sodipodi:docname="Kosh_Logo_Orange_Text.svg"
   inkscape:version="0.92.2 (5c3e80d, 2017-08-06)">
  <metadata
     id="metadata4970">
    <rdf:RDF>
      <cc:Work
         rdf:about="">
        <dc:format>image/svg+xml</dc:format>
        <dc:type
           rdf:resource="http://purl.org/dc/dcmitype/StillImage" />
        <dc:title />
      </cc:Work>
    </rdf:RDF>
  </metadata>
  <sodipodi:namedview
     pagecolor="#ffffff"
     bordercolor="#666666"
     borderopacity="1"
     objecttolerance="10"
     gridtolerance="10"
     guidetolerance="10"
     inkscape:pageopacity="0"
     inkscape:pageshadow="2"
     inkscape:window-width="2756"
     inkscape:window-height="1481"
     id="namedview4968"
     showgrid="false"
     inkscape:zoom="5.1430407"
     inkscape:cx="182.96569"
     inkscape:cy="48.240002"
     inkscape:window-x="0"
     inkscape:window-y="28"
     inkscape:window-maximized="0"
     inkscape:current-layer="layer2" />
  <defs
     id="defs4779">
    <style
       id="style4771">.cls-1{isolation:isolate;}.cls-2{fill:#010101;}.cls-10,.cls-12,.cls-3{fill:#afdedc;}.cls-10,.cls-11,.cls-12,.cls-13,.cls-3,.cls-9{mix-blend-mode:multiply;}.cls-4{fill:url(#New_Gradient_Swatch_copy_3);}.cls-5{fill:url(#New_Gradient_Swatch_copy_3-2);}.cls-6{opacity:0.25;}.cls-7,.cls-8{fill:none;stroke:#fff;stroke-linecap:round;stroke-linejoin:round;}.cls-7{fill-rule:evenodd;}.cls-10{opacity:0.7;}.cls-11,.cls-12{opacity:0.5;}.cls-13{opacity:0.65;}</style>
    <linearGradient
       id="New_Gradient_Swatch_copy_3"
       x1="37.5"
       y1="19.58"
       x2="94.04"
       y2="19.58"
       gradientUnits="userSpaceOnUse">
      <stop
         offset="0"
         stop-color="#f89b4c"
         id="stop4773" />
      <stop
         offset="1"
         stop-color="#ee2433"
         id="stop4775" />
    </linearGradient>
    <linearGradient
       id="New_Gradient_Swatch_copy_3-2"
       x1="36.1"
       y1="62.73"
       x2="102.23"
       y2="62.73"
       xlink:href="#New_Gradient_Swatch_copy_3" />
    <linearGradient
       inkscape:collect="always"
       xlink:href="#New_Gradient_Swatch_copy_3"
       id="linearGradient4972"
       gradientUnits="userSpaceOnUse"
       x1="37.5"
       y1="19.58"
       x2="94.04"
       y2="19.58" />
  </defs>
  <path
     class="cls-2"
     d="m 129.98,42.12 a 26.82,26.82 0 1 1 -26.74,26.89 26.77,26.77 0 0 1 26.74,-26.89 z m 0,46.19 a 19.37,19.37 0 1 0 -19.29,-19.3 19.37,19.37 0 0 0 19.29,19.3 z"
     id="path4781"
     inkscape:connector-curvature="0"
     style="isolation:isolate;fill:#010101" />
  <path
     class="cls-2"
     d="m 164.1,87.49 c 0.67,-1 1.26,-2.09 1.93,-3.06 a 1.7,1.7 0 0 1 2.54,-0.59 c 0.44,0.37 6.18,5.14 11.92,5.14 5.14,0 8.41,-3.13 8.41,-6.93 0,-4.47 -3.87,-7.3 -11.24,-10.35 -7.6,-3.21 -13.56,-7.16 -13.56,-15.8 0,-5.81 4.47,-13.78 16.31,-13.78 a 25.21,25.21 0 0 1 13.78,4.4 1.76,1.76 0 0 1 0.45,2.53 c -0.6,0.89 -1.27,1.94 -1.86,2.83 a 1.77,1.77 0 0 1 -2.61,0.75 c -0.52,-0.3 -5.74,-3.73 -10.06,-3.73 -6.25,0 -8.41,3.95 -8.41,6.71 0,4.24 3.27,6.85 9.46,9.38 8.64,3.5 16,7.6 16,16.69 0,7.75 -6.92,14.08 -16.61,14.08 a 24.07,24.07 0 0 1 -16,-5.89 1.55,1.55 0 0 1 -0.45,-2.38 z"
     id="path4783"
     inkscape:connector-curvature="0"
     style="isolation:isolate;fill:#010101" />
  <polygon
     class="cls-3"
     points="36.1,29.54 36.1,65.47 66.67,95.93 102.23,95.93 "
     id="polygon4793"
     style="isolation:isolate;mix-blend-mode:multiply;fill:#afdedc" />
  <polygon
     class="cls-3"
     points="55,39.16 94.04,0 58.74,0 37.5,21.33 "
     id="polygon4795"
     style="isolation:isolate;mix-blend-mode:multiply;fill:#afdedc" />
  <polygon
     class="cls-3"
     points="55,39.16 94.04,0 58.74,0 37.5,21.33 "
     id="polygon4797"
     style="isolation:isolate;mix-blend-mode:multiply;fill:#afdedc" />
  <polygon
     class="cls-4"
     points="55,39.16 94.04,0 58.74,0 37.5,21.33 "
     id="polygon4799"
     style="isolation:isolate;fill:url(#linearGradient4972)" />
  <polygon
     class="cls-5"
     points="36.1,29.54 36.1,65.47 66.67,95.93 102.23,95.93 "
     id="polygon4801"
     style="isolation:isolate;fill:url(#New_Gradient_Swatch_copy_3-2)" />
  <g
     class="cls-6"
     id="g4805"
     style="opacity:0.25;isolation:isolate">
    <path
       class="cls-7"
       d="m 140,443.25 v 2.82 h 7.78 v -5.46 h -3.2 m 7.74,5.47 h -2 m 0,-2.73 h 2 m 0,-2.74 h -2 M 140,448.8 h 12.3 M 142,439.55 v 1.06 h -6 v 19.52 h 18.84 v -7.67 M 136,440.61 l 3.51,-3.51 m 18,11.71 h 3 m 0,-2.73 h -3 m -13.33,16.68 v 3.35 H 163 v -5.56 m -23,-6.31 h 7.5 m 4.82,-2.72 H 140 m 20.46,5.48 h -3 m 0,-2.72 h 3 m 0,-2.72 h -3"
       transform="translate(-94.19,-398.22)"
       id="path4803"
       inkscape:connector-curvature="0"
       style="fill:none;fill-rule:evenodd;stroke:#ffffff;stroke-linecap:round;stroke-linejoin:round" />
  </g>
  <g
     class="cls-6"
     id="g4815"
     style="opacity:0.25;isolation:isolate">
    <polygon
       class="cls-8"
       points="50.67,8.11 50.67,14.32 57.94,14.32 57.93,4.91 53.85,4.91 "
       id="polygon4807"
       style="fill:none;stroke:#ffffff;stroke-linecap:round;stroke-linejoin:round" />
    <path
       class="cls-8"
       d="m 154.27,416.46 -1.48,-1.46 -9.13,7.88 v 0 l 4.23,4.23 v 0 l 7.88,-9.16 z"
       transform="translate(-94.19,-398.22)"
       id="path4809"
       inkscape:connector-curvature="0"
       style="fill:none;stroke:#ffffff;stroke-linecap:round;stroke-linejoin:round" />
    <path
       class="cls-8"
       d="m 156.62,414.14 a 8.92,8.92 0 1 0 -2.62,-6.31 8.6,8.6 0 0 0 2.62,6.31 z m 1.54,-7.82 -0.6,-0.32 a 5.42,5.42 0 0 1 1.12,-1.9 l 0.56,0.35 a 1.17,1.17 0 0 0 1.17,0 l 0.89,-0.51 a 1.15,1.15 0 0 0 0.54,-1 v -0.68 a 6.21,6.21 0 0 1 2.22,0 v 0.67 a 1.19,1.19 0 0 0 0.55,1 l 0.88,0.5 a 1.15,1.15 0 0 0 1.17,0 l 0.56,-0.35 a 5.4,5.4 0 0 1 1.08,1.92 l -0.59,0.33 a 1.16,1.16 0 0 0 -0.63,1 v 1 a 1.16,1.16 0 0 0 0.63,1 l 0.59,0.33 a 5.4,5.4 0 0 1 -1.12,1.91 l -0.56,-0.35 a 1.15,1.15 0 0 0 -1.17,0 l -0.88,0.5 a 1.18,1.18 0 0 0 -0.55,1 v 0.67 a 6.21,6.21 0 0 1 -2.22,0 v -0.67 a 1.15,1.15 0 0 0 -0.54,-1 l -0.89,-0.51 a 1.17,1.17 0 0 0 -1.17,0 l -0.55,0.35 a 5.38,5.38 0 0 1 -1.13,-1.92 l 0.6,-0.32 a 1.17,1.17 0 0 0 0.62,-1 v -1 a 1.17,1.17 0 0 0 -0.58,-1 z"
       transform="translate(-94.19,-398.22)"
       id="path4811"
       inkscape:connector-curvature="0"
       style="fill:none;stroke:#ffffff;stroke-linecap:round;stroke-linejoin:round" />
    <path
       class="cls-8"
       d="m 162.93,410.08 a 2.25,2.25 0 0 0 2.25,-2.25 2.25,2.25 0 1 0 -4.5,0 2.25,2.25 0 0 0 2.25,2.25 z"
       transform="translate(-94.19,-398.22)"
       id="path4813"
       inkscape:connector-curvature="0"
       style="fill:none;stroke:#ffffff;stroke-linecap:round;stroke-linejoin:round" />
  </g>
  <g
     class="cls-6"
     id="g4819"
     style="opacity:0.25;isolation:isolate">
    <path
       class="cls-7"
       d="m 166.75,474.59 v -5.22 h -0.16 c -1.6,0.06 -3,1.09 -4.2,3.07 -0.18,0.3 -0.36,0.63 -0.54,1 l -0.18,0.38 a 18.09,18.09 0 0 0 -1.08,3 12.61,12.61 0 0 0 3,1.07 m 3.14,-8.53 h 0.16 a 13.34,13.34 0 0 1 6.09,1.45 m 6.17,6.14 h -12.37 a 0.79,0.79 0 0 0 -0.57,0.25 0.76,0.76 0 0 0 -0.24,0.57 v 10 h 15.2 v -9 m -7.17,4.76 -1.69,1.69 -0.55,-5.58 4.55,3.28 z m -7.05,-14.16 c 1.6,0.06 3,1.09 4.2,3.07 0.18,0.3 0.36,0.63 0.54,1 l 0.18,0.38 c 0.12,0.26 0.24,0.52 0.34,0.79 m -18.9,11.85 a 14.8,14.8 0 0 1 -0.35,-3.23 v 0 a 13.32,13.32 0 0 1 3.68,-9.4 l 0.37,-0.38 a 14.06,14.06 0 0 1 1.08,-1 13.22,13.22 0 0 1 8.54,-3.07 M 161.88,489 a 12.26,12.26 0 0 0 -1.29,0.56 17.67,17.67 0 0 0 1.08,3 l 0.18,0.38 c 0.18,0.35 0.36,0.68 0.55,1 m -4.35,-2.73 a 13.68,13.68 0 0 1 2.54,-1.66 24.73,24.73 0 0 1 -0.76,-6.37 h -6.91 m 7.67,-6.38 a 24.78,24.78 0 0 0 -0.76,6.37 h 3.78 m -7,-9.41 0.37,0.39 a 14.06,14.06 0 0 0 1.08,1 13.68,13.68 0 0 0 2.54,1.66 m 10.4,17.39 0.08,-0.12 a 0.41,0.41 0 0 1 0.07,-0.11 q 0.27,-0.47 0.54,-1 l 0.18,-0.38 c 0.12,-0.24 0.22,-0.49 0.33,-0.74 m 5.39,0 c -0.21,0.25 -0.43,0.5 -0.65,0.74 -0.22,0.24 -0.24,0.26 -0.37,0.38 q -0.53,0.52 -1.08,1 l -0.16,0.13 M 166,487.82 h -2 v 0.24 a 1.31,1.31 0 0 0 0.41,1 v 0.06 a 1.34,1.34 0 0 0 0.92,0.35 h 16.48 a 1.32,1.32 0 0 0 1,-0.41 1.3,1.3 0 0 0 0.4,-1 v -0.24 h -2 m -14.42,4 V 494"
       transform="translate(-94.19,-398.22)"
       id="path4817"
       inkscape:connector-curvature="0"
       style="fill:none;fill-rule:evenodd;stroke:#ffffff;stroke-linecap:round;stroke-linejoin:round" />
  </g>
  <g
     class="cls-9"
     id="g4835"
     style="isolation:isolate;mix-blend-mode:multiply">
    <path
       class="cls-3"
       d="m 94.45,406.81 v 1 h 4.3 v -1 h -1.44 v -8.26 h -1.26 l -1.73,0.66 v 1.07 l 1.86,-0.69 v 7.22 z"
       transform="translate(-94.19,-398.22)"
       id="path4821"
       inkscape:connector-curvature="0"
       style="mix-blend-mode:multiply;fill:#afdedc" />
    <path
       class="cls-3"
       d="M 98.89,418.78 V 414 a 2.21,2.21 0 0 0 -0.59,-1.68 2.26,2.26 0 0 0 -1.63,-0.57 h -0.26 a 2.26,2.26 0 0 0 -1.63,0.57 2.21,2.21 0 0 0 -0.59,1.68 v 4.76 a 2,2 0 0 0 2.22,2.24 h 0.26 a 2,2 0 0 0 2.22,-2.25 z m -1.12,-5 -2.46,3.58 v -3.58 a 1,1 0 0 1 0.31,-0.71 1.09,1.09 0 0 1 0.79,-0.3 h 0.26 a 1.09,1.09 0 0 1 0.79,0.3 1,1 0 0 1 0.31,0.7 z m -2.46,5.22 2.46,-3.57 V 419 a 0.93,0.93 0 0 1 -0.31,0.71 1.09,1.09 0 0 1 -0.79,0.3 h -0.26 a 1.09,1.09 0 0 1 -0.79,-0.3 0.93,0.93 0 0 1 -0.31,-0.71 z"
       transform="translate(-94.19,-398.22)"
       id="path4823"
       inkscape:connector-curvature="0"
       style="mix-blend-mode:multiply;fill:#afdedc" />
    <path
       class="cls-3"
       d="m 98.89,432 v -4.76 a 2.21,2.21 0 0 0 -0.59,-1.68 2.26,2.26 0 0 0 -1.63,-0.57 h -0.26 a 2.26,2.26 0 0 0 -1.63,0.57 2.21,2.21 0 0 0 -0.59,1.68 V 432 a 2,2 0 0 0 2.22,2.25 h 0.26 A 2,2 0 0 0 98.89,432 Z m -1.12,-5 -2.46,3.58 V 427 a 0.93,0.93 0 0 1 0.31,-0.71 1.09,1.09 0 0 1 0.79,-0.3 h 0.26 a 1.09,1.09 0 0 1 0.79,0.3 0.93,0.93 0 0 1 0.31,0.71 z m -2.46,5.26 2.46,-3.57 v 3.57 a 1,1 0 0 1 -0.31,0.71 1.09,1.09 0 0 1 -0.79,0.3 h -0.26 a 1.09,1.09 0 0 1 -0.79,-0.3 1,1 0 0 1 -0.31,-0.71 z"
       transform="translate(-94.19,-398.22)"
       id="path4825"
       inkscape:connector-curvature="0"
       style="mix-blend-mode:multiply;fill:#afdedc" />
    <path
       class="cls-3"
       d="m 94.45,446.5 v 1 h 4.3 v -1 h -1.44 v -8.27 h -1.26 l -1.73,0.66 V 440 l 1.86,-0.69 v 7.23 z"
       transform="translate(-94.19,-398.22)"
       id="path4827"
       inkscape:connector-curvature="0"
       style="mix-blend-mode:multiply;fill:#afdedc" />
    <path
       class="cls-3"
       d="m 98.89,458.47 v -4.76 A 2.21,2.21 0 0 0 98.3,452 2.26,2.26 0 0 0 96.67,451.43 h -0.26 a 2.26,2.26 0 0 0 -1.63,0.57 2.21,2.21 0 0 0 -0.59,1.68 v 4.76 a 2,2 0 0 0 2.22,2.25 h 0.26 a 2,2 0 0 0 2.22,-2.25 z m -1.12,-5 -2.46,3.53 v -3.58 a 0.93,0.93 0 0 1 0.31,-0.71 1.09,1.09 0 0 1 0.79,-0.3 h 0.26 a 1.09,1.09 0 0 1 0.79,0.3 0.93,0.93 0 0 1 0.31,0.75 z m -2.46,5.26 2.46,-3.57 v 3.57 a 0.93,0.93 0 0 1 -0.31,0.71 1.09,1.09 0 0 1 -0.79,0.3 h -0.26 a 1.09,1.09 0 0 1 -0.79,-0.3 0.93,0.93 0 0 1 -0.31,-0.72 z"
       transform="translate(-94.19,-398.22)"
       id="path4829"
       inkscape:connector-curvature="0"
       style="mix-blend-mode:multiply;fill:#afdedc" />
    <path
       class="cls-3"
       d="m 94.46,473 v 1 h 4.3 v -1 h -1.45 v -8.27 h -1.25 l -1.74,0.66 v 1.08 l 1.87,-0.69 V 473 Z"
       transform="translate(-94.19,-398.22)"
       id="path4831"
       inkscape:connector-curvature="0"
       style="mix-blend-mode:multiply;fill:#afdedc" />
    <path
       class="cls-3"
       d="m 94.46,486.19 v 1 h 4.3 v -1 h -1.45 v -8.27 h -1.25 l -1.74,0.67 v 1.07 l 1.87,-0.69 v 7.22 z"
       transform="translate(-94.19,-398.22)"
       id="path4833"
       inkscape:connector-curvature="0"
       style="mix-blend-mode:multiply;fill:#afdedc" />
  </g>
  <g
     class="cls-9"
     id="g4851"
     style="isolation:isolate;mix-blend-mode:multiply">
    <path
       class="cls-3"
       d="m 118.86,413.72 v 1 h 4.3 v -1 h -1.44 v -8.27 h -1.26 l -1.73,0.66 v 1.07 l 1.86,-0.68 v 7.22 z"
       transform="translate(-94.19,-398.22)"
       id="path4837"
       inkscape:connector-curvature="0"
       style="mix-blend-mode:multiply;fill:#afdedc" />
    <path
       class="cls-3"
       d="m 123.3,425.69 v -4.77 a 2.21,2.21 0 0 0 -0.59,-1.68 2.3,2.3 0 0 0 -1.63,-0.56 h -0.26 a 2.3,2.3 0 0 0 -1.63,0.56 2.21,2.21 0 0 0 -0.59,1.68 v 4.77 a 2.2,2.2 0 0 0 0.6,1.67 2.26,2.26 0 0 0 1.62,0.58 h 0.26 a 2.26,2.26 0 0 0 1.62,-0.58 2.2,2.2 0 0 0 0.6,-1.67 z m -1.12,-5 -2.46,3.59 v -3.59 a 0.91,0.91 0 0 1 0.31,-0.7 1.09,1.09 0 0 1 0.79,-0.3 h 0.26 a 1.09,1.09 0 0 1 0.79,0.3 0.91,0.91 0 0 1 0.31,0.68 z m -2.46,5.27 2.46,-3.57 v 3.57 a 1,1 0 0 1 -0.31,0.71 1.13,1.13 0 0 1 -0.79,0.29 h -0.26 a 1.13,1.13 0 0 1 -0.79,-0.29 1,1 0 0 1 -0.31,-0.73 z"
       transform="translate(-94.19,-398.22)"
       id="path4839"
       inkscape:connector-curvature="0"
       style="mix-blend-mode:multiply;fill:#afdedc" />
    <path
       class="cls-3"
       d="m 123.3,438.91 v -4.76 a 2.21,2.21 0 0 0 -0.59,-1.68 2.26,2.26 0 0 0 -1.63,-0.57 h -0.26 a 2.26,2.26 0 0 0 -1.63,0.57 2.21,2.21 0 0 0 -0.59,1.68 v 4.76 a 2.23,2.23 0 0 0 0.6,1.68 2.26,2.26 0 0 0 1.62,0.57 h 0.26 a 2.26,2.26 0 0 0 1.62,-0.57 2.23,2.23 0 0 0 0.6,-1.68 z m -1.12,-5 -2.46,3.58 v -3.59 a 1,1 0 0 1 0.31,-0.71 1.09,1.09 0 0 1 0.79,-0.3 h 0.26 a 1.09,1.09 0 0 1 0.79,0.3 1,1 0 0 1 0.31,0.71 z m -2.46,5.26 2.46,-3.57 v 3.57 a 0.93,0.93 0 0 1 -0.31,0.71 1.09,1.09 0 0 1 -0.79,0.3 h -0.26 a 1.09,1.09 0 0 1 -0.79,-0.3 0.93,0.93 0 0 1 -0.31,-0.72 z"
       transform="translate(-94.19,-398.22)"
       id="path4841"
       inkscape:connector-curvature="0"
       style="mix-blend-mode:multiply;fill:#afdedc" />
    <path
       class="cls-3"
       d="m 118.86,453.4 v 1 h 4.3 v -1 h -1.44 v -8.27 h -1.26 l -1.73,0.66 v 1.08 l 1.86,-0.69 v 7.22 z"
       transform="translate(-94.19,-398.22)"
       id="path4843"
       inkscape:connector-curvature="0"
       style="mix-blend-mode:multiply;fill:#afdedc" />
    <path
       class="cls-3"
       d="m 123.3,465.37 v -4.76 a 2.21,2.21 0 0 0 -0.59,-1.68 2.26,2.26 0 0 0 -1.63,-0.57 h -0.26 a 2.26,2.26 0 0 0 -1.63,0.57 2.21,2.21 0 0 0 -0.59,1.68 v 4.76 a 2.23,2.23 0 0 0 0.6,1.68 2.26,2.26 0 0 0 1.62,0.57 h 0.26 a 2.26,2.26 0 0 0 1.62,-0.57 2.23,2.23 0 0 0 0.6,-1.68 z m -1.12,-5 -2.46,3.63 v -3.59 a 1,1 0 0 1 0.31,-0.71 1.13,1.13 0 0 1 0.79,-0.29 h 0.26 a 1.13,1.13 0 0 1 0.79,0.29 1,1 0 0 1 0.31,0.66 z m -2.46,5.27 2.46,-3.58 v 3.58 a 0.91,0.91 0 0 1 -0.31,0.7 1.09,1.09 0 0 1 -0.79,0.3 h -0.26 a 1.09,1.09 0 0 1 -0.79,-0.3 0.91,0.91 0 0 1 -0.31,-0.71 z"
       transform="translate(-94.19,-398.22)"
       id="path4845"
       inkscape:connector-curvature="0"
       style="mix-blend-mode:multiply;fill:#afdedc" />
    <path
       class="cls-3"
       d="m 123.3,478.61 v -4.76 a 2.21,2.21 0 0 0 -0.59,-1.68 2.26,2.26 0 0 0 -1.63,-0.57 h -0.26 a 2.26,2.26 0 0 0 -1.63,0.57 2.21,2.21 0 0 0 -0.59,1.68 v 4.76 a 2.2,2.2 0 0 0 0.6,1.67 2.26,2.26 0 0 0 1.62,0.58 h 0.26 a 2.26,2.26 0 0 0 1.62,-0.58 2.2,2.2 0 0 0 0.6,-1.67 z m -1.12,-5 -2.46,3.59 v -3.59 a 0.93,0.93 0 0 1 0.31,-0.7 1.09,1.09 0 0 1 0.79,-0.3 h 0.26 a 1.09,1.09 0 0 1 0.79,0.3 0.93,0.93 0 0 1 0.31,0.68 z m -2.46,5.27 2.46,-3.57 v 3.57 a 1,1 0 0 1 -0.31,0.71 1.09,1.09 0 0 1 -0.79,0.29 h -0.26 a 1.09,1.09 0 0 1 -0.79,-0.29 1,1 0 0 1 -0.31,-0.73 z"
       transform="translate(-94.19,-398.22)"
       id="path4847"
       inkscape:connector-curvature="0"
       style="mix-blend-mode:multiply;fill:#afdedc" />
    <path
       class="cls-3"
       d="m 123.3,491.84 v -4.76 a 2.21,2.21 0 0 0 -0.59,-1.68 2.26,2.26 0 0 0 -1.63,-0.57 h -0.26 a 2.26,2.26 0 0 0 -1.63,0.57 2.21,2.21 0 0 0 -0.59,1.68 v 4.76 a 2,2 0 0 0 2.22,2.25 h 0.26 a 2,2 0 0 0 2.22,-2.25 z m -1.12,-5 -2.46,3.58 v -3.58 a 0.93,0.93 0 0 1 0.31,-0.71 1.09,1.09 0 0 1 0.79,-0.3 h 0.26 a 1.09,1.09 0 0 1 0.79,0.3 0.93,0.93 0 0 1 0.31,0.7 z m -2.46,5.26 2.46,-3.57 v 3.57 a 1,1 0 0 1 -0.31,0.71 1.09,1.09 0 0 1 -0.79,0.3 h -0.26 a 1.09,1.09 0 0 1 -0.79,-0.3 1,1 0 0 1 -0.31,-0.72 z"
       transform="translate(-94.19,-398.22)"
       id="path4849"
       inkscape:connector-curvature="0"
       style="mix-blend-mode:multiply;fill:#afdedc" />
  </g>
  <path
     class="cls-10"
     d="m 16.63,8.09 v 0.95 h 4.1 V 8.09 h -1.37 v -7.9 h -1.2 L 16.5,0.83 v 1 l 1.78,-0.66 v 6.9 z"
     id="path4853"
     inkscape:connector-curvature="0"
     style="opacity:0.7;isolation:isolate;mix-blend-mode:multiply;fill:#afdedc" />
  <path
     class="cls-10"
     d="M 20.87,19.53 V 14.98 A 1.93,1.93 0 0 0 18.75,12.83 H 18.5 a 2.18,2.18 0 0 0 -1.56,0.54 2.14,2.14 0 0 0 -0.57,1.61 v 4.55 a 2.11,2.11 0 0 0 0.58,1.59 2.13,2.13 0 0 0 1.55,0.55 h 0.25 a 2.15,2.15 0 0 0 1.55,-0.55 2.1,2.1 0 0 0 0.57,-1.59 z m -1.06,-4.75 -2.35,3.42 v -3.42 a 0.91,0.91 0 0 1 0.3,-0.68 1,1 0 0 1 0.75,-0.28 h 0.25 a 1,1 0 0 1 0.75,0.28 0.91,0.91 0 0 1 0.3,0.68 z m -2.35,5 2.35,-3.41 v 3.41 a 0.89,0.89 0 0 1 -0.3,0.67 1.05,1.05 0 0 1 -0.75,0.29 h -0.25 a 1,1 0 0 1 -0.75,-0.29 0.89,0.89 0 0 1 -0.31,-0.67 z"
     id="path4855"
     inkscape:connector-curvature="0"
     style="opacity:0.7;isolation:isolate;mix-blend-mode:multiply;fill:#afdedc" />
  <path
     class="cls-10"
     d="m 16.63,33.35 v 0.95 h 4.1 v -0.95 h -1.37 v -7.89 h -1.2 l -1.66,0.63 v 1 l 1.78,-0.65 v 6.89 z"
     id="path4857"
     inkscape:connector-curvature="0"
     style="opacity:0.7;isolation:isolate;mix-blend-mode:multiply;fill:#afdedc" />
  <path
     class="cls-10"
     d="M 20.87,44.78 V 40.24 A 1.93,1.93 0 0 0 18.75,38.09 H 18.5 a 2.18,2.18 0 0 0 -1.56,0.54 2.14,2.14 0 0 0 -0.57,1.61 v 4.54 a 2,2 0 0 0 2.13,2.15 h 0.25 a 2.15,2.15 0 0 0 1.55,-0.55 2.11,2.11 0 0 0 0.57,-1.6 z M 19.81,40 17.46,43.42 V 40 a 0.91,0.91 0 0 1 0.3,-0.68 1,1 0 0 1 0.75,-0.28 h 0.25 a 1,1 0 0 1 0.75,0.28 0.91,0.91 0 0 1 0.3,0.68 z m -2.35,5 2.35,-3.41 V 45 a 0.9,0.9 0 0 1 -0.3,0.68 1,1 0 0 1 -0.75,0.28 h -0.25 a 1,1 0 0 1 -0.75,-0.28 0.9,0.9 0 0 1 -0.31,-0.66 z"
     id="path4859"
     inkscape:connector-curvature="0"
     style="opacity:0.7;isolation:isolate;mix-blend-mode:multiply;fill:#afdedc" />
  <path
     class="cls-10"
     d="m 16.63,71.26 v 0.95 h 4.1 v -0.95 h -1.37 v -7.89 h -1.2 L 16.5,64 v 1 l 1.78,-0.65 v 6.89 z"
     id="path4861"
     inkscape:connector-curvature="0"
     style="opacity:0.7;isolation:isolate;mix-blend-mode:multiply;fill:#afdedc" />
  <path
     class="cls-10"
     d="M 20.87,57.32 V 52.78 A 1.93,1.93 0 0 0 18.75,50.63 H 18.5 a 2.18,2.18 0 0 0 -1.56,0.54 2.14,2.14 0 0 0 -0.57,1.61 v 4.55 a 2.09,2.09 0 0 0 0.58,1.59 2.13,2.13 0 0 0 1.55,0.55 h 0.25 a 2.15,2.15 0 0 0 1.55,-0.55 2.09,2.09 0 0 0 0.57,-1.6 z m -1.06,-4.79 -2.35,3.42 v -3.42 a 0.91,0.91 0 0 1 0.3,-0.68 1,1 0 0 1 0.75,-0.28 h 0.25 a 1,1 0 0 1 0.75,0.28 0.91,0.91 0 0 1 0.3,0.68 z m -2.35,5 2.35,-3.41 v 3.41 a 0.89,0.89 0 0 1 -0.3,0.67 1.05,1.05 0 0 1 -0.75,0.29 H 18.51 A 1,1 0 0 1 17.76,58.2 0.89,0.89 0 0 1 17.45,57.56 Z"
     id="path4863"
     inkscape:connector-curvature="0"
     style="opacity:0.7;isolation:isolate;mix-blend-mode:multiply;fill:#afdedc" />
  <path
     class="cls-10"
     d="m 16.63,83.89 v 0.95 h 4.1 v -0.95 h -1.37 v -7.9 h -1.2 l -1.66,0.64 v 1 l 1.78,-0.66 v 6.9 z"
     id="path4865"
     inkscape:connector-curvature="0"
     style="opacity:0.7;isolation:isolate;mix-blend-mode:multiply;fill:#afdedc" />
  <g
     class="cls-11"
     id="g4881"
     style="opacity:0.5;isolation:isolate;mix-blend-mode:multiply">
    <path
       class="cls-12"
       d="m 102.77,417.69 v 0.91 h 3.92 v -0.91 h -1.31 v -7.55 h -1.15 l -1.58,0.6 v 1 l 1.7,-0.63 v 6.6 z"
       transform="translate(-94.19,-398.22)"
       id="path4867"
       inkscape:connector-curvature="0"
       style="opacity:0.5;mix-blend-mode:multiply;fill:#afdedc" />
    <path
       class="cls-12"
       d="m 106.83,428.63 v -4.35 a 2,2 0 0 0 -0.55,-1.54 2.07,2.07 0 0 0 -1.48,-0.52 h -0.24 a 2.09,2.09 0 0 0 -1.49,0.52 2,2 0 0 0 -0.54,1.54 v 4.35 a 2,2 0 0 0 0.55,1.53 2,2 0 0 0 1.48,0.52 h 0.24 a 1.86,1.86 0 0 0 2,-2.05 z m -1,-4.58 -2.25,3.27 v -3.27 a 0.87,0.87 0 0 1 0.29,-0.65 1,1 0 0 1 0.72,-0.27 h 0.24 a 1,1 0 0 1 0.72,0.27 0.86,0.86 0 0 1 0.25,0.65 z m -2.25,4.81 2.25,-3.26 v 3.26 a 0.84,0.84 0 0 1 -0.28,0.64 1,1 0 0 1 -0.72,0.28 h -0.24 a 1,1 0 0 1 -0.72,-0.28 0.85,0.85 0 0 1 -0.32,-0.64 z"
       transform="translate(-94.19,-398.22)"
       id="path4869"
       inkscape:connector-curvature="0"
       style="opacity:0.5;mix-blend-mode:multiply;fill:#afdedc" />
    <path
       class="cls-12"
       d="m 102.77,466 v 0.91 h 3.92 V 466 h -1.31 v -7.55 h -1.15 l -1.58,0.6 v 1 l 1.7,-0.63 V 466 Z"
       transform="translate(-94.19,-398.22)"
       id="path4871"
       inkscape:connector-curvature="0"
       style="opacity:0.5;mix-blend-mode:multiply;fill:#afdedc" />
    <path
       class="cls-12"
       d="m 102.77,490.21 v 0.91 h 3.92 v -0.91 h -1.31 v -7.55 h -1.15 l -1.58,0.6 v 1 l 1.7,-0.63 v 6.6 z"
       transform="translate(-94.19,-398.22)"
       id="path4873"
       inkscape:connector-curvature="0"
       style="opacity:0.5;mix-blend-mode:multiply;fill:#afdedc" />
    <path
       class="cls-12"
       d="m 102.77,454.54 v 0.91 h 3.92 v -0.91 h -1.31 V 447 h -1.15 l -1.58,0.6 v 1 l 1.7,-0.63 v 6.6 z"
       transform="translate(-94.19,-398.22)"
       id="path4875"
       inkscape:connector-curvature="0"
       style="opacity:0.5;mix-blend-mode:multiply;fill:#afdedc" />
    <path
       class="cls-12"
       d="m 106.83,440.71 v -4.35 a 2,2 0 0 0 -0.55,-1.54 2.07,2.07 0 0 0 -1.48,-0.52 h -0.24 a 2.09,2.09 0 0 0 -1.49,0.52 2,2 0 0 0 -0.54,1.54 v 4.35 a 2,2 0 0 0 0.55,1.53 2,2 0 0 0 1.48,0.52 h 0.24 a 1.86,1.86 0 0 0 2,-2.05 z m -1,-4.58 -2.25,3.27 v -3.27 a 0.87,0.87 0 0 1 0.29,-0.65 1,1 0 0 1 0.72,-0.27 h 0.24 a 1,1 0 0 1 0.72,0.27 0.86,0.86 0 0 1 0.25,0.65 z m -2.25,4.81 2.25,-3.26 v 3.26 a 0.84,0.84 0 0 1 -0.28,0.64 1,1 0 0 1 -0.72,0.28 h -0.24 a 1,1 0 0 1 -0.72,-0.28 0.85,0.85 0 0 1 -0.32,-0.64 z"
       transform="translate(-94.19,-398.22)"
       id="path4877"
       inkscape:connector-curvature="0"
       style="opacity:0.5;mix-blend-mode:multiply;fill:#afdedc" />
    <path
       class="cls-12"
       d="m 102.77,477.67 v 0.91 h 3.92 v -0.91 h -1.31 v -7.55 h -1.15 l -1.58,0.61 v 1 l 1.7,-0.62 v 6.59 z"
       transform="translate(-94.19,-398.22)"
       id="path4879"
       inkscape:connector-curvature="0"
       style="opacity:0.5;mix-blend-mode:multiply;fill:#afdedc" />
  </g>
  <g
     class="cls-11"
     id="g4897"
     style="opacity:0.5;isolation:isolate;mix-blend-mode:multiply">
    <path
       class="cls-12"
       d="m 102.77,417.69 v 0.91 h 3.92 v -0.91 h -1.31 v -7.55 h -1.15 l -1.58,0.6 v 1 l 1.7,-0.63 v 6.6 z"
       transform="translate(-94.19,-398.22)"
       id="path4883"
       inkscape:connector-curvature="0"
       style="opacity:0.5;mix-blend-mode:multiply;fill:#afdedc" />
    <path
       class="cls-12"
       d="m 106.83,428.63 v -4.35 a 2,2 0 0 0 -0.55,-1.54 2.07,2.07 0 0 0 -1.48,-0.52 h -0.24 a 2.09,2.09 0 0 0 -1.49,0.52 2,2 0 0 0 -0.54,1.54 v 4.35 a 2,2 0 0 0 0.55,1.53 2,2 0 0 0 1.48,0.52 h 0.24 a 1.86,1.86 0 0 0 2,-2.05 z m -1,-4.58 -2.25,3.27 v -3.27 a 0.87,0.87 0 0 1 0.29,-0.65 1,1 0 0 1 0.72,-0.27 h 0.24 a 1,1 0 0 1 0.72,0.27 0.86,0.86 0 0 1 0.25,0.65 z m -2.25,4.81 2.25,-3.26 v 3.26 a 0.84,0.84 0 0 1 -0.28,0.64 1,1 0 0 1 -0.72,0.28 h -0.24 a 1,1 0 0 1 -0.72,-0.28 0.85,0.85 0 0 1 -0.32,-0.64 z"
       transform="translate(-94.19,-398.22)"
       id="path4885"
       inkscape:connector-curvature="0"
       style="opacity:0.5;mix-blend-mode:multiply;fill:#afdedc" />
    <path
       class="cls-12"
       d="m 102.77,466 v 0.91 h 3.92 V 466 h -1.31 v -7.55 h -1.15 l -1.58,0.6 v 1 l 1.7,-0.63 V 466 Z"
       transform="translate(-94.19,-398.22)"
       id="path4887"
       inkscape:connector-curvature="0"
       style="opacity:0.5;mix-blend-mode:multiply;fill:#afdedc" />
    <path
       class="cls-12"
       d="m 102.77,490.21 v 0.91 h 3.92 v -0.91 h -1.31 v -7.55 h -1.15 l -1.58,0.6 v 1 l 1.7,-0.63 v 6.6 z"
       transform="translate(-94.19,-398.22)"
       id="path4889"
       inkscape:connector-curvature="0"
       style="opacity:0.5;mix-blend-mode:multiply;fill:#afdedc" />
    <path
       class="cls-12"
       d="m 102.77,454.54 v 0.91 h 3.92 v -0.91 h -1.31 V 447 h -1.15 l -1.58,0.6 v 1 l 1.7,-0.63 v 6.6 z"
       transform="translate(-94.19,-398.22)"
       id="path4891"
       inkscape:connector-curvature="0"
       style="opacity:0.5;mix-blend-mode:multiply;fill:#afdedc" />
    <path
       class="cls-12"
       d="m 106.83,440.71 v -4.35 a 2,2 0 0 0 -0.55,-1.54 2.07,2.07 0 0 0 -1.48,-0.52 h -0.24 a 2.09,2.09 0 0 0 -1.49,0.52 2,2 0 0 0 -0.54,1.54 v 4.35 a 2,2 0 0 0 0.55,1.53 2,2 0 0 0 1.48,0.52 h 0.24 a 1.86,1.86 0 0 0 2,-2.05 z m -1,-4.58 -2.25,3.27 v -3.27 a 0.87,0.87 0 0 1 0.29,-0.65 1,1 0 0 1 0.72,-0.27 h 0.24 a 1,1 0 0 1 0.72,0.27 0.86,0.86 0 0 1 0.25,0.65 z m -2.25,4.81 2.25,-3.26 v 3.26 a 0.84,0.84 0 0 1 -0.28,0.64 1,1 0 0 1 -0.72,0.28 h -0.24 a 1,1 0 0 1 -0.72,-0.28 0.85,0.85 0 0 1 -0.32,-0.64 z"
       transform="translate(-94.19,-398.22)"
       id="path4893"
       inkscape:connector-curvature="0"
       style="opacity:0.5;mix-blend-mode:multiply;fill:#afdedc" />
    <path
       class="cls-12"
       d="m 102.77,477.67 v 0.91 h 3.92 v -0.91 h -1.31 v -7.55 h -1.15 l -1.58,0.61 v 1 l 1.7,-0.62 v 6.59 z"
       transform="translate(-94.19,-398.22)"
       id="path4895"
       inkscape:connector-curvature="0"
       style="opacity:0.5;mix-blend-mode:multiply;fill:#afdedc" />
  </g>
  <g
     class="cls-11"
     id="g4913"
     style="opacity:0.5;isolation:isolate;mix-blend-mode:multiply">
    <path
       class="cls-12"
       d="m 102.77,417.69 v 0.91 h 3.92 v -0.91 h -1.31 v -7.55 h -1.15 l -1.58,0.6 v 1 l 1.7,-0.63 v 6.6 z"
       transform="translate(-94.19,-398.22)"
       id="path4899"
       inkscape:connector-curvature="0"
       style="opacity:0.5;mix-blend-mode:multiply;fill:#afdedc" />
    <path
       class="cls-12"
       d="m 106.83,428.63 v -4.35 a 2,2 0 0 0 -0.55,-1.54 2.07,2.07 0 0 0 -1.48,-0.52 h -0.24 a 2.09,2.09 0 0 0 -1.49,0.52 2,2 0 0 0 -0.54,1.54 v 4.35 a 2,2 0 0 0 0.55,1.53 2,2 0 0 0 1.48,0.52 h 0.24 a 1.86,1.86 0 0 0 2,-2.05 z m -1,-4.58 -2.25,3.27 v -3.27 a 0.87,0.87 0 0 1 0.29,-0.65 1,1 0 0 1 0.72,-0.27 h 0.24 a 1,1 0 0 1 0.72,0.27 0.86,0.86 0 0 1 0.25,0.65 z m -2.25,4.81 2.25,-3.26 v 3.26 a 0.84,0.84 0 0 1 -0.28,0.64 1,1 0 0 1 -0.72,0.28 h -0.24 a 1,1 0 0 1 -0.72,-0.28 0.85,0.85 0 0 1 -0.32,-0.64 z"
       transform="translate(-94.19,-398.22)"
       id="path4901"
       inkscape:connector-curvature="0"
       style="opacity:0.5;mix-blend-mode:multiply;fill:#afdedc" />
    <path
       class="cls-12"
       d="m 102.77,466 v 0.91 h 3.92 V 466 h -1.31 v -7.55 h -1.15 l -1.58,0.6 v 1 l 1.7,-0.63 V 466 Z"
       transform="translate(-94.19,-398.22)"
       id="path4903"
       inkscape:connector-curvature="0"
       style="opacity:0.5;mix-blend-mode:multiply;fill:#afdedc" />
    <path
       class="cls-12"
       d="m 102.77,490.21 v 0.91 h 3.92 v -0.91 h -1.31 v -7.55 h -1.15 l -1.58,0.6 v 1 l 1.7,-0.63 v 6.6 z"
       transform="translate(-94.19,-398.22)"
       id="path4905"
       inkscape:connector-curvature="0"
       style="opacity:0.5;mix-blend-mode:multiply;fill:#afdedc" />
    <path
       class="cls-12"
       d="m 102.77,454.54 v 0.91 h 3.92 v -0.91 h -1.31 V 447 h -1.15 l -1.58,0.6 v 1 l 1.7,-0.63 v 6.6 z"
       transform="translate(-94.19,-398.22)"
       id="path4907"
       inkscape:connector-curvature="0"
       style="opacity:0.5;mix-blend-mode:multiply;fill:#afdedc" />
    <path
       class="cls-12"
       d="m 106.83,440.71 v -4.35 a 2,2 0 0 0 -0.55,-1.54 2.07,2.07 0 0 0 -1.48,-0.52 h -0.24 a 2.09,2.09 0 0 0 -1.49,0.52 2,2 0 0 0 -0.54,1.54 v 4.35 a 2,2 0 0 0 0.55,1.53 2,2 0 0 0 1.48,0.52 h 0.24 a 1.86,1.86 0 0 0 2,-2.05 z m -1,-4.58 -2.25,3.27 v -3.27 a 0.87,0.87 0 0 1 0.29,-0.65 1,1 0 0 1 0.72,-0.27 h 0.24 a 1,1 0 0 1 0.72,0.27 0.86,0.86 0 0 1 0.25,0.65 z m -2.25,4.81 2.25,-3.26 v 3.26 a 0.84,0.84 0 0 1 -0.28,0.64 1,1 0 0 1 -0.72,0.28 h -0.24 a 1,1 0 0 1 -0.72,-0.28 0.85,0.85 0 0 1 -0.32,-0.64 z"
       transform="translate(-94.19,-398.22)"
       id="path4909"
       inkscape:connector-curvature="0"
       style="opacity:0.5;mix-blend-mode:multiply;fill:#afdedc" />
    <path
       class="cls-12"
       d="m 102.77,477.67 v 0.91 h 3.92 v -0.91 h -1.31 v -7.55 h -1.15 l -1.58,0.61 v 1 l 1.7,-0.62 v 6.59 z"
       transform="translate(-94.19,-398.22)"
       id="path4911"
       inkscape:connector-curvature="0"
       style="opacity:0.5;mix-blend-mode:multiply;fill:#afdedc" />
  </g>
  <g
     class="cls-11"
     id="g4929"
     style="opacity:0.5;isolation:isolate;mix-blend-mode:multiply">
    <path
       class="cls-12"
       d="m 102.77,417.69 v 0.91 h 3.92 v -0.91 h -1.31 v -7.55 h -1.15 l -1.58,0.6 v 1 l 1.7,-0.63 v 6.6 z"
       transform="translate(-94.19,-398.22)"
       id="path4915"
       inkscape:connector-curvature="0"
       style="opacity:0.5;mix-blend-mode:multiply;fill:#afdedc" />
    <path
       class="cls-12"
       d="m 106.83,428.63 v -4.35 a 2,2 0 0 0 -0.55,-1.54 2.07,2.07 0 0 0 -1.48,-0.52 h -0.24 a 2.09,2.09 0 0 0 -1.49,0.52 2,2 0 0 0 -0.54,1.54 v 4.35 a 2,2 0 0 0 0.55,1.53 2,2 0 0 0 1.48,0.52 h 0.24 a 1.86,1.86 0 0 0 2,-2.05 z m -1,-4.58 -2.25,3.27 v -3.27 a 0.87,0.87 0 0 1 0.29,-0.65 1,1 0 0 1 0.72,-0.27 h 0.24 a 1,1 0 0 1 0.72,0.27 0.86,0.86 0 0 1 0.25,0.65 z m -2.25,4.81 2.25,-3.26 v 3.26 a 0.84,0.84 0 0 1 -0.28,0.64 1,1 0 0 1 -0.72,0.28 h -0.24 a 1,1 0 0 1 -0.72,-0.28 0.85,0.85 0 0 1 -0.32,-0.64 z"
       transform="translate(-94.19,-398.22)"
       id="path4917"
       inkscape:connector-curvature="0"
       style="opacity:0.5;mix-blend-mode:multiply;fill:#afdedc" />
    <path
       class="cls-12"
       d="m 102.77,466 v 0.91 h 3.92 V 466 h -1.31 v -7.55 h -1.15 l -1.58,0.6 v 1 l 1.7,-0.63 V 466 Z"
       transform="translate(-94.19,-398.22)"
       id="path4919"
       inkscape:connector-curvature="0"
       style="opacity:0.5;mix-blend-mode:multiply;fill:#afdedc" />
    <path
       class="cls-12"
       d="m 102.77,490.21 v 0.91 h 3.92 v -0.91 h -1.31 v -7.55 h -1.15 l -1.58,0.6 v 1 l 1.7,-0.63 v 6.6 z"
       transform="translate(-94.19,-398.22)"
       id="path4921"
       inkscape:connector-curvature="0"
       style="opacity:0.5;mix-blend-mode:multiply;fill:#afdedc" />
    <path
       class="cls-12"
       d="m 102.77,454.54 v 0.91 h 3.92 v -0.91 h -1.31 V 447 h -1.15 l -1.58,0.6 v 1 l 1.7,-0.63 v 6.6 z"
       transform="translate(-94.19,-398.22)"
       id="path4923"
       inkscape:connector-curvature="0"
       style="opacity:0.5;mix-blend-mode:multiply;fill:#afdedc" />
    <path
       class="cls-12"
       d="m 106.83,440.71 v -4.35 a 2,2 0 0 0 -0.55,-1.54 2.07,2.07 0 0 0 -1.48,-0.52 h -0.24 a 2.09,2.09 0 0 0 -1.49,0.52 2,2 0 0 0 -0.54,1.54 v 4.35 a 2,2 0 0 0 0.55,1.53 2,2 0 0 0 1.48,0.52 h 0.24 a 1.86,1.86 0 0 0 2,-2.05 z m -1,-4.58 -2.25,3.27 v -3.27 a 0.87,0.87 0 0 1 0.29,-0.65 1,1 0 0 1 0.72,-0.27 h 0.24 a 1,1 0 0 1 0.72,0.27 0.86,0.86 0 0 1 0.25,0.65 z m -2.25,4.81 2.25,-3.26 v 3.26 a 0.84,0.84 0 0 1 -0.28,0.64 1,1 0 0 1 -0.72,0.28 h -0.24 a 1,1 0 0 1 -0.72,-0.28 0.85,0.85 0 0 1 -0.32,-0.64 z"
       transform="translate(-94.19,-398.22)"
       id="path4925"
       inkscape:connector-curvature="0"
       style="opacity:0.5;mix-blend-mode:multiply;fill:#afdedc" />
    <path
       class="cls-12"
       d="m 102.77,477.67 v 0.91 h 3.92 v -0.91 h -1.31 v -7.55 h -1.15 l -1.58,0.61 v 1 l 1.7,-0.62 v 6.59 z"
       transform="translate(-94.19,-398.22)"
       id="path4927"
       inkscape:connector-curvature="0"
       style="opacity:0.5;mix-blend-mode:multiply;fill:#afdedc" />
  </g>
  <g
     class="cls-9"
     id="g4945"
     style="isolation:isolate;mix-blend-mode:multiply">
    <path
       class="cls-3"
       d="m 118.86,413.72 v 1 h 4.3 v -1 h -1.44 v -8.27 h -1.26 l -1.73,0.66 v 1.07 l 1.86,-0.68 v 7.22 z"
       transform="translate(-94.19,-398.22)"
       id="path4931"
       inkscape:connector-curvature="0"
       style="mix-blend-mode:multiply;fill:#afdedc" />
    <path
       class="cls-3"
       d="m 123.3,425.69 v -4.77 a 2.21,2.21 0 0 0 -0.59,-1.68 2.3,2.3 0 0 0 -1.63,-0.56 h -0.26 a 2.3,2.3 0 0 0 -1.63,0.56 2.21,2.21 0 0 0 -0.59,1.68 v 4.77 a 2.2,2.2 0 0 0 0.6,1.67 2.26,2.26 0 0 0 1.62,0.58 h 0.26 a 2.26,2.26 0 0 0 1.62,-0.58 2.2,2.2 0 0 0 0.6,-1.67 z m -1.12,-5 -2.46,3.59 v -3.59 a 0.91,0.91 0 0 1 0.31,-0.7 1.09,1.09 0 0 1 0.79,-0.3 h 0.26 a 1.09,1.09 0 0 1 0.79,0.3 0.91,0.91 0 0 1 0.31,0.68 z m -2.46,5.27 2.46,-3.57 v 3.57 a 1,1 0 0 1 -0.31,0.71 1.13,1.13 0 0 1 -0.79,0.29 h -0.26 a 1.13,1.13 0 0 1 -0.79,-0.29 1,1 0 0 1 -0.31,-0.73 z"
       transform="translate(-94.19,-398.22)"
       id="path4933"
       inkscape:connector-curvature="0"
       style="mix-blend-mode:multiply;fill:#afdedc" />
    <path
       class="cls-3"
       d="m 123.3,438.91 v -4.76 a 2.21,2.21 0 0 0 -0.59,-1.68 2.26,2.26 0 0 0 -1.63,-0.57 h -0.26 a 2.26,2.26 0 0 0 -1.63,0.57 2.21,2.21 0 0 0 -0.59,1.68 v 4.76 a 2.23,2.23 0 0 0 0.6,1.68 2.26,2.26 0 0 0 1.62,0.57 h 0.26 a 2.26,2.26 0 0 0 1.62,-0.57 2.23,2.23 0 0 0 0.6,-1.68 z m -1.12,-5 -2.46,3.58 v -3.59 a 1,1 0 0 1 0.31,-0.71 1.09,1.09 0 0 1 0.79,-0.3 h 0.26 a 1.09,1.09 0 0 1 0.79,0.3 1,1 0 0 1 0.31,0.71 z m -2.46,5.26 2.46,-3.57 v 3.57 a 0.93,0.93 0 0 1 -0.31,0.71 1.09,1.09 0 0 1 -0.79,0.3 h -0.26 a 1.09,1.09 0 0 1 -0.79,-0.3 0.93,0.93 0 0 1 -0.31,-0.72 z"
       transform="translate(-94.19,-398.22)"
       id="path4935"
       inkscape:connector-curvature="0"
       style="mix-blend-mode:multiply;fill:#afdedc" />
    <path
       class="cls-3"
       d="m 118.86,453.4 v 1 h 4.3 v -1 h -1.44 v -8.27 h -1.26 l -1.73,0.66 v 1.08 l 1.86,-0.69 v 7.22 z"
       transform="translate(-94.19,-398.22)"
       id="path4937"
       inkscape:connector-curvature="0"
       style="mix-blend-mode:multiply;fill:#afdedc" />
    <path
       class="cls-3"
       d="m 123.3,465.37 v -4.76 a 2.21,2.21 0 0 0 -0.59,-1.68 2.26,2.26 0 0 0 -1.63,-0.57 h -0.26 a 2.26,2.26 0 0 0 -1.63,0.57 2.21,2.21 0 0 0 -0.59,1.68 v 4.76 a 2.23,2.23 0 0 0 0.6,1.68 2.26,2.26 0 0 0 1.62,0.57 h 0.26 a 2.26,2.26 0 0 0 1.62,-0.57 2.23,2.23 0 0 0 0.6,-1.68 z m -1.12,-5 -2.46,3.63 v -3.59 a 1,1 0 0 1 0.31,-0.71 1.13,1.13 0 0 1 0.79,-0.29 h 0.26 a 1.13,1.13 0 0 1 0.79,0.29 1,1 0 0 1 0.31,0.66 z m -2.46,5.27 2.46,-3.58 v 3.58 a 0.91,0.91 0 0 1 -0.31,0.7 1.09,1.09 0 0 1 -0.79,0.3 h -0.26 a 1.09,1.09 0 0 1 -0.79,-0.3 0.91,0.91 0 0 1 -0.31,-0.71 z"
       transform="translate(-94.19,-398.22)"
       id="path4939"
       inkscape:connector-curvature="0"
       style="mix-blend-mode:multiply;fill:#afdedc" />
    <path
       class="cls-3"
       d="m 123.3,478.61 v -4.76 a 2.21,2.21 0 0 0 -0.59,-1.68 2.26,2.26 0 0 0 -1.63,-0.57 h -0.26 a 2.26,2.26 0 0 0 -1.63,0.57 2.21,2.21 0 0 0 -0.59,1.68 v 4.76 a 2.2,2.2 0 0 0 0.6,1.67 2.26,2.26 0 0 0 1.62,0.58 h 0.26 a 2.26,2.26 0 0 0 1.62,-0.58 2.2,2.2 0 0 0 0.6,-1.67 z m -1.12,-5 -2.46,3.59 v -3.59 a 0.93,0.93 0 0 1 0.31,-0.7 1.09,1.09 0 0 1 0.79,-0.3 h 0.26 a 1.09,1.09 0 0 1 0.79,0.3 0.93,0.93 0 0 1 0.31,0.68 z m -2.46,5.27 2.46,-3.57 v 3.57 a 1,1 0 0 1 -0.31,0.71 1.09,1.09 0 0 1 -0.79,0.29 h -0.26 a 1.09,1.09 0 0 1 -0.79,-0.29 1,1 0 0 1 -0.31,-0.73 z"
       transform="translate(-94.19,-398.22)"
       id="path4941"
       inkscape:connector-curvature="0"
       style="mix-blend-mode:multiply;fill:#afdedc" />
    <path
       class="cls-3"
       d="m 123.3,491.84 v -4.76 a 2.21,2.21 0 0 0 -0.59,-1.68 2.26,2.26 0 0 0 -1.63,-0.57 h -0.26 a 2.26,2.26 0 0 0 -1.63,0.57 2.21,2.21 0 0 0 -0.59,1.68 v 4.76 a 2,2 0 0 0 2.22,2.25 h 0.26 a 2,2 0 0 0 2.22,-2.25 z m -1.12,-5 -2.46,3.58 v -3.58 a 0.93,0.93 0 0 1 0.31,-0.71 1.09,1.09 0 0 1 0.79,-0.3 h 0.26 a 1.09,1.09 0 0 1 0.79,0.3 0.93,0.93 0 0 1 0.31,0.7 z m -2.46,5.26 2.46,-3.57 v 3.57 a 1,1 0 0 1 -0.31,0.71 1.09,1.09 0 0 1 -0.79,0.3 h -0.26 a 1.09,1.09 0 0 1 -0.79,-0.3 1,1 0 0 1 -0.31,-0.72 z"
       transform="translate(-94.19,-398.22)"
       id="path4943"
       inkscape:connector-curvature="0"
       style="mix-blend-mode:multiply;fill:#afdedc" />
  </g>
  <g
     class="cls-13"
     id="g4961"
     style="opacity:0.65;isolation:isolate;mix-blend-mode:multiply">
    <path
       class="cls-3"
       d="m 94.45,406.81 v 1 h 4.3 v -1 h -1.44 v -8.26 h -1.26 l -1.73,0.66 v 1.07 l 1.86,-0.69 v 7.22 z"
       transform="translate(-94.19,-398.22)"
       id="path4947"
       inkscape:connector-curvature="0"
       style="mix-blend-mode:multiply;fill:#afdedc" />
    <path
       class="cls-3"
       d="M 98.89,418.78 V 414 a 2.21,2.21 0 0 0 -0.59,-1.68 2.26,2.26 0 0 0 -1.63,-0.57 h -0.26 a 2.26,2.26 0 0 0 -1.63,0.57 2.21,2.21 0 0 0 -0.59,1.68 v 4.76 a 2,2 0 0 0 2.22,2.24 h 0.26 a 2,2 0 0 0 2.22,-2.25 z m -1.12,-5 -2.46,3.58 v -3.58 a 1,1 0 0 1 0.31,-0.71 1.09,1.09 0 0 1 0.79,-0.3 h 0.26 a 1.09,1.09 0 0 1 0.79,0.3 1,1 0 0 1 0.31,0.7 z m -2.46,5.22 2.46,-3.57 V 419 a 0.93,0.93 0 0 1 -0.31,0.71 1.09,1.09 0 0 1 -0.79,0.3 h -0.26 a 1.09,1.09 0 0 1 -0.79,-0.3 0.93,0.93 0 0 1 -0.31,-0.71 z"
       transform="translate(-94.19,-398.22)"
       id="path4949"
       inkscape:connector-curvature="0"
       style="mix-blend-mode:multiply;fill:#afdedc" />
    <path
       class="cls-3"
       d="m 98.89,432 v -4.76 a 2.21,2.21 0 0 0 -0.59,-1.68 2.26,2.26 0 0 0 -1.63,-0.57 h -0.26 a 2.26,2.26 0 0 0 -1.63,0.57 2.21,2.21 0 0 0 -0.59,1.68 V 432 a 2,2 0 0 0 2.22,2.25 h 0.26 A 2,2 0 0 0 98.89,432 Z m -1.12,-5 -2.46,3.58 V 427 a 0.93,0.93 0 0 1 0.31,-0.71 1.09,1.09 0 0 1 0.79,-0.3 h 0.26 a 1.09,1.09 0 0 1 0.79,0.3 0.93,0.93 0 0 1 0.31,0.71 z m -2.46,5.26 2.46,-3.57 v 3.57 a 1,1 0 0 1 -0.31,0.71 1.09,1.09 0 0 1 -0.79,0.3 h -0.26 a 1.09,1.09 0 0 1 -0.79,-0.3 1,1 0 0 1 -0.31,-0.71 z"
       transform="translate(-94.19,-398.22)"
       id="path4951"
       inkscape:connector-curvature="0"
       style="mix-blend-mode:multiply;fill:#afdedc" />
    <path
       class="cls-3"
       d="m 94.45,446.5 v 1 h 4.3 v -1 h -1.44 v -8.27 h -1.26 l -1.73,0.66 V 440 l 1.86,-0.69 v 7.23 z"
       transform="translate(-94.19,-398.22)"
       id="path4953"
       inkscape:connector-curvature="0"
       style="mix-blend-mode:multiply;fill:#afdedc" />
    <path
       class="cls-3"
       d="m 98.89,458.47 v -4.76 A 2.21,2.21 0 0 0 98.3,452 2.26,2.26 0 0 0 96.67,451.43 h -0.26 a 2.26,2.26 0 0 0 -1.63,0.57 2.21,2.21 0 0 0 -0.59,1.68 v 4.76 a 2,2 0 0 0 2.22,2.25 h 0.26 a 2,2 0 0 0 2.22,-2.25 z m -1.12,-5 -2.46,3.53 v -3.58 a 0.93,0.93 0 0 1 0.31,-0.71 1.09,1.09 0 0 1 0.79,-0.3 h 0.26 a 1.09,1.09 0 0 1 0.79,0.3 0.93,0.93 0 0 1 0.31,0.75 z m -2.46,5.26 2.46,-3.57 v 3.57 a 0.93,0.93 0 0 1 -0.31,0.71 1.09,1.09 0 0 1 -0.79,0.3 h -0.26 a 1.09,1.09 0 0 1 -0.79,-0.3 0.93,0.93 0 0 1 -0.31,-0.72 z"
       transform="translate(-94.19,-398.22)"
       id="path4955"
       inkscape:connector-curvature="0"
       style="mix-blend-mode:multiply;fill:#afdedc" />
    <path
       class="cls-3"
       d="m 94.46,473 v 1 h 4.3 v -1 h -1.45 v -8.27 h -1.25 l -1.74,0.66 v 1.08 l 1.87,-0.69 V 473 Z"
       transform="translate(-94.19,-398.22)"
       id="path4957"
       inkscape:connector-curvature="0"
       style="mix-blend-mode:multiply;fill:#afdedc" />
    <path
       class="cls-3"
       d="m 94.46,486.19 v 1 h 4.3 v -1 h -1.45 v -8.27 h -1.25 l -1.74,0.67 v 1.07 l 1.87,-0.69 v 7.22 z"
       transform="translate(-94.19,-398.22)"
       id="path4959"
       inkscape:connector-curvature="0"
       style="mix-blend-mode:multiply;fill:#afdedc" />
  </g>
  <text
     xml:space="preserve"
     style="font-style:normal;font-weight:normal;font-size:40px;line-height:1.25;font-family:sans-serif;letter-spacing:0px;word-spacing:0px;fill:#010101;fill-opacity:1;stroke:none;"
     x="218.21408"
     y="93.015701"
     id="text4318"><tspan
       sodipodi:role="line"
       id="tspan4316"
       x="218.21408"
       y="93.015701"
       style="font-style:normal;font-variant:normal;font-weight:normal;font-stretch:normal;font-size:10.66666698px;font-family:sans-serif;-inkscape-font-specification:'sans-serif, Normal';font-variant-ligatures:normal;font-variant-caps:normal;font-variant-numeric:normal;font-feature-settings:normal;text-align:start;writing-mode:lr-tb;text-anchor:start;fill:#010101;fill-opacity:1;">1.2</tspan></text>
  <g
     inkscape:groupmode="layer"
     id="layer1"
     inkscape:label="Layer 1"
     style="display:inline">
    <path
       class="cls-2"
       d="m 206.12,44.28 a 1.46,1.46 0 0 1 1.41,-1.41 h 4.92 a 1.42,1.42 0 0 1 1.42,1.41 v 20.79 h 27.26 V 44.28 a 1.42,1.42 0 0 1 1.42,-1.41 h 4.91 a 1.46,1.46 0 0 1 1.42,1.41 V 93.6 a 1.46,1.46 0 0 1 -1.42,1.41 h -4.91 A 1.42,1.42 0 0 1 241.13,93.6 V 72.07 H 213.87 V 93.6 a 1.42,1.42 0 0 1 -1.42,1.41 h -4.92 a 1.46,1.46 0 0 1 -1.41,-1.41 z"
       id="path4785"
       inkscape:connector-curvature="0"
       style="isolation:isolate;fill:#010101" />
  </g>
  <g
     inkscape:groupmode="layer"
     id="layer2"
     inkscape:label="Layer 2"
     style="display:inline">
    <text
       xml:space="preserve"
       style="font-style:normal;font-weight:normal;font-size:40px;line-height:1.25;font-family:sans-serif;letter-spacing:0px;word-spacing:0px;fill:#f47143;fill-opacity:1;stroke:none"
       x="-93.071106"
       y="247.11928"
       id="text4402"
       transform="rotate(-90)"><tspan
         sodipodi:role="line"
         id="tspan4400"
         x="-93.071106"
         y="247.11928"
         style="font-style:normal;font-variant:normal;font-weight:normal;font-stretch:normal;font-size:5.33333349px;font-family:sans-serif;-inkscape-font-specification:'sans-serif, Normal';font-variant-ligatures:normal;font-variant-caps:normal;font-variant-numeric:normal;font-feature-settings:normal;text-align:start;writing-mode:lr-tb;text-anchor:start;fill:#f47143;fill-opacity:1"></tspan></text>
  </g>
</svg>
