<svg xmlns="http://www.w3.org/2000/svg" xmlns:xlink="http://www.w3.org/1999/xlink" viewBox="0 0 248.15 96.65"><defs><style>.cls-1{isolation:isolate;}.cls-2,.cls-3,.cls-4,.cls-5{fill:#224f71;}.cls-3,.cls-4,.cls-5,.cls-6{mix-blend-mode:multiply;}.cls-4{opacity:0.7;}.cls-5{opacity:0.5;}.cls-6{fill:#afdedc;}.cls-7{fill:url(#linear-gradient);}.cls-8{fill:url(#linear-gradient-2);}.cls-9{opacity:0.25;}.cls-10,.cls-11{fill:none;stroke:#fff;stroke-linecap:round;stroke-linejoin:round;}.cls-10{fill-rule:evenodd;}</style><linearGradient id="linear-gradient" x1="38.49" y1="19.75" x2="95.04" y2="19.75" gradientUnits="userSpaceOnUse"><stop offset="0" stop-color="#002139"/><stop offset="0.08" stop-color="#072b45"/><stop offset="0.31" stop-color="#194261"/><stop offset="0.54" stop-color="#255376"/><stop offset="0.77" stop-color="#2d5d82"/><stop offset="0.99" stop-color="#2f6086"/></linearGradient><linearGradient id="linear-gradient-2" x1="37.09" y1="62.9" x2="103.22" y2="62.9" xlink:href="#linear-gradient"/></defs><g class="cls-1"><g id="Layer_1" data-name="Layer 1"><path class="cls-2" d="M567.09,440.51a26.82,26.82,0,1,1-26.74,26.89A26.77,26.77,0,0,1,567.09,440.51Zm0,46.19a19.37,19.37,0,1,0-19.29-19.3A19.37,19.37,0,0,0,567.09,486.7Z" transform="translate(-437.84 -398.22)"/><path class="cls-2" d="M601.21,485.88c.67-1,1.26-2.09,1.93-3.06a1.7,1.7,0,0,1,2.54-.59c.44.37,6.18,5.14,11.92,5.14,5.14,0,8.41-3.13,8.41-6.93,0-4.47-3.87-7.3-11.24-10.35-7.6-3.21-13.56-7.16-13.56-15.8,0-5.81,4.47-13.78,16.31-13.78a25.21,25.21,0,0,1,13.78,4.4,1.76,1.76,0,0,1,.45,2.53c-.6.89-1.27,1.94-1.86,2.83a1.77,1.77,0,0,1-2.61.75c-.52-.3-5.74-3.73-10.06-3.73-6.25,0-8.41,3.95-8.41,6.7,0,4.25,3.27,6.86,9.46,9.39,8.64,3.5,16,7.6,16,16.69,0,7.75-6.93,14.08-16.61,14.08a24.14,24.14,0,0,1-16-5.89A1.56,1.56,0,0,1,601.21,485.88Z" transform="translate(-437.84 -398.22)"/><path class="cls-2" d="M643.23,442.67a1.46,1.46,0,0,1,1.41-1.41h4.92a1.42,1.42,0,0,1,1.42,1.41v20.79h27.26V442.67a1.42,1.42,0,0,1,1.42-1.41h4.91a1.46,1.46,0,0,1,1.42,1.41V492a1.46,1.46,0,0,1-1.42,1.41h-4.91a1.42,1.42,0,0,1-1.42-1.41V470.46H651V492a1.42,1.42,0,0,1-1.42,1.41h-4.92a1.46,1.46,0,0,1-1.41-1.41Z" transform="translate(-437.84 -398.22)"/><path class="cls-2" d="M662.76,487.28l-.89.42a.17.17,0,0,1-.25-.08l-.13-.39a.23.23,0,0,1,0-.22l1.59-1.44h.55a.21.21,0,0,1,.2.21V493a.21.21,0,0,1-.2.21H663a.21.21,0,0,1-.22-.21Z" transform="translate(-437.84 -398.22)"/><path class="cls-2" d="M666.24,491.73a.78.78,0,0,1,.79.78.78.78,0,1,1-.79-.78Z" transform="translate(-437.84 -398.22)"/><path class="cls-2" d="M668.11,489.37c0-2.45,1-3.92,2.78-3.92s2.76,1.47,2.76,3.92-1,3.91-2.76,3.91S668.11,491.82,668.11,489.37Zm4.41,0c0-1.83-.59-2.89-1.63-2.89s-1.65,1.06-1.65,2.89.6,2.9,1.65,2.9S672.52,491.23,672.52,489.37Z" transform="translate(-437.84 -398.22)"/><path class="cls-3" d="M438.11,406.66v1h4.31v-1H441v-8.3h-1.26L438,399v1.08l1.88-.69v7.25Z" transform="translate(-437.84 -398.22)"/><path class="cls-3" d="M442.57,418.67v-4.78a2.21,2.21,0,0,0-.6-1.68,2.26,2.26,0,0,0-1.63-.57h-.27a2.26,2.26,0,0,0-1.63.57,2.21,2.21,0,0,0-.6,1.68v4.78a2.21,2.21,0,0,0,.6,1.68,2.26,2.26,0,0,0,1.63.58h.27a2.22,2.22,0,0,0,1.62-.58A2.18,2.18,0,0,0,442.57,418.67Zm-1.13-5-2.47,3.6v-3.6a1,1,0,0,1,.31-.71,1.09,1.09,0,0,1,.79-.3h.27a1.09,1.09,0,0,1,.79.3A1,1,0,0,1,441.44,413.64ZM439,418.93l2.47-3.59v3.59a1,1,0,0,1-.31.71,1.09,1.09,0,0,1-.79.3h-.27a1.09,1.09,0,0,1-.79-.3A1,1,0,0,1,439,418.93Z" transform="translate(-437.84 -398.22)"/><path class="cls-3" d="M442.57,432v-4.78a2.21,2.21,0,0,0-.6-1.68,2.26,2.26,0,0,0-1.63-.57h-.27a2.26,2.26,0,0,0-1.63.57,2.21,2.21,0,0,0-.6,1.68V432a2.21,2.21,0,0,0,.6,1.68,2.26,2.26,0,0,0,1.63.58h.27a2.22,2.22,0,0,0,1.62-.58A2.18,2.18,0,0,0,442.57,432Zm-1.13-5-2.47,3.6v-3.6a1,1,0,0,1,.31-.71,1.09,1.09,0,0,1,.79-.3h.27a1.09,1.09,0,0,1,.79.3A1,1,0,0,1,441.44,426.92ZM439,432.21l2.47-3.59v3.59a1,1,0,0,1-.31.71,1.09,1.09,0,0,1-.79.3h-.27a1.09,1.09,0,0,1-.79-.3A1,1,0,0,1,439,432.21Z" transform="translate(-437.84 -398.22)"/><path class="cls-3" d="M438.11,446.5v1h4.31v-1H441v-8.3h-1.26l-1.74.66v1.08l1.88-.69v7.25Z" transform="translate(-437.84 -398.22)"/><path class="cls-3" d="M442.57,458.52v-4.78a2.23,2.23,0,0,0-.6-1.69,2.26,2.26,0,0,0-1.63-.57h-.27a2.26,2.26,0,0,0-1.63.57,2.23,2.23,0,0,0-.6,1.69v4.78a2.21,2.21,0,0,0,.6,1.68,2.26,2.26,0,0,0,1.63.58h.27a2.22,2.22,0,0,0,1.62-.58A2.18,2.18,0,0,0,442.57,458.52Zm-1.13-5-2.47,3.6v-3.6a.93.93,0,0,1,.31-.71,1.09,1.09,0,0,1,.79-.3h.27a1.09,1.09,0,0,1,.79.3A.93.93,0,0,1,441.44,453.49ZM439,458.77l2.47-3.58v3.58a.92.92,0,0,1-.31.71,1.09,1.09,0,0,1-.79.3h-.27a1.09,1.09,0,0,1-.79-.3A.92.92,0,0,1,439,458.77Z" transform="translate(-437.84 -398.22)"/><path class="cls-3" d="M438.11,473.07v1h4.32v-1H441v-8.3h-1.26l-1.74.66v1.08l1.87-.69v7.25Z" transform="translate(-437.84 -398.22)"/><path class="cls-3" d="M438.11,486.35v1h4.32v-1H441v-8.3h-1.26l-1.74.67v1.07l1.87-.69v7.25Z" transform="translate(-437.84 -398.22)"/><path class="cls-3" d="M462.61,413.59v1h4.32v-1h-1.45v-8.3h-1.26l-1.74.66V407l1.87-.69v7.25Z" transform="translate(-437.84 -398.22)"/><path class="cls-3" d="M467.08,425.61v-4.78a2.22,2.22,0,0,0-.6-1.69,2.27,2.27,0,0,0-1.64-.57h-.26a2.25,2.25,0,0,0-1.63.57,2.22,2.22,0,0,0-.6,1.69v4.78a2.24,2.24,0,0,0,.6,1.68,2.28,2.28,0,0,0,1.63.57h.26a2,2,0,0,0,2.24-2.25Zm-1.13-5-2.47,3.6v-3.6a1,1,0,0,1,.31-.71,1.09,1.09,0,0,1,.79-.3h.26a1.08,1.08,0,0,1,.79.3A1,1,0,0,1,466,420.57Zm-2.47,5.29,2.47-3.59v3.59a1,1,0,0,1-.32.71,1.08,1.08,0,0,1-.79.3h-.26a1.09,1.09,0,0,1-.79-.3A1,1,0,0,1,463.48,425.86Z" transform="translate(-437.84 -398.22)"/><path class="cls-3" d="M467.08,438.89V434.1a2.21,2.21,0,0,0-.6-1.68,2.27,2.27,0,0,0-1.64-.57h-.26a2.25,2.25,0,0,0-1.63.57,2.21,2.21,0,0,0-.6,1.68v4.79a2.24,2.24,0,0,0,.6,1.68,2.28,2.28,0,0,0,1.63.57h.26a2,2,0,0,0,2.24-2.25Zm-1.13-5-2.47,3.6v-3.6a1,1,0,0,1,.31-.71,1.09,1.09,0,0,1,.79-.3h.26a1.08,1.08,0,0,1,.79.3A1,1,0,0,1,466,433.85Zm-2.47,5.29,2.47-3.59v3.59a1,1,0,0,1-.32.71,1.08,1.08,0,0,1-.79.3h-.26a1.09,1.09,0,0,1-.79-.3A1,1,0,0,1,463.48,439.14Z" transform="translate(-437.84 -398.22)"/><path class="cls-3" d="M462.61,453.43v1h4.32v-1h-1.45v-8.3h-1.26l-1.74.66v1.08l1.87-.69v7.25Z" transform="translate(-437.84 -398.22)"/><path class="cls-3" d="M467.08,465.45v-4.78a2.21,2.21,0,0,0-.6-1.68,2.28,2.28,0,0,0-1.64-.58h-.26A2.25,2.25,0,0,0,463,459a2.21,2.21,0,0,0-.6,1.68v4.78a2.21,2.21,0,0,0,.6,1.68,2.24,2.24,0,0,0,1.63.58h.26a2.06,2.06,0,0,0,2.24-2.26Zm-1.13-5-2.47,3.6v-3.6a1,1,0,0,1,.31-.71,1.09,1.09,0,0,1,.79-.3h.26a1.08,1.08,0,0,1,.79.3A1,1,0,0,1,466,460.42Zm-2.47,5.29,2.47-3.59v3.59a1,1,0,0,1-.32.71,1.08,1.08,0,0,1-.79.3h-.26a1.09,1.09,0,0,1-.79-.3A1,1,0,0,1,463.48,465.71Z" transform="translate(-437.84 -398.22)"/><path class="cls-3" d="M467.08,478.74V474a2.23,2.23,0,0,0-.6-1.69,2.27,2.27,0,0,0-1.64-.57h-.26a2,2,0,0,0-2.23,2.26v4.78a2.21,2.21,0,0,0,.6,1.68,2.24,2.24,0,0,0,1.63.58h.26a2.06,2.06,0,0,0,2.24-2.26Zm-1.13-5-2.47,3.6v-3.6a.93.93,0,0,1,.31-.71,1.09,1.09,0,0,1,.79-.3h.26a1.08,1.08,0,0,1,.79.3A.94.94,0,0,1,466,473.71ZM463.48,479l2.47-3.58V479a.94.94,0,0,1-.32.71,1.08,1.08,0,0,1-.79.3h-.26a1.09,1.09,0,0,1-.79-.3A.93.93,0,0,1,463.48,479Z" transform="translate(-437.84 -398.22)"/><path class="cls-3" d="M467.08,492v-4.78a2.21,2.21,0,0,0-.6-1.68,2.27,2.27,0,0,0-1.64-.57h-.26a2.25,2.25,0,0,0-1.63.57,2.21,2.21,0,0,0-.6,1.68V492a2.21,2.21,0,0,0,.6,1.68,2.24,2.24,0,0,0,1.63.58h.26a2.06,2.06,0,0,0,2.24-2.26ZM466,487l-2.47,3.6V487a1,1,0,0,1,.31-.71,1.09,1.09,0,0,1,.79-.3h.26a1.08,1.08,0,0,1,.79.3A1,1,0,0,1,466,487Zm-2.47,5.29,2.47-3.59v3.59a1,1,0,0,1-.32.71,1.08,1.08,0,0,1-.79.3h-.26a1.09,1.09,0,0,1-.79-.3A1,1,0,0,1,463.48,492.28Z" transform="translate(-437.84 -398.22)"/><path class="cls-4" d="M454.54,406.15v1h4.12v-1h-1.38v-7.93h-1.21l-1.66.64v1l1.79-.66v6.92Z" transform="translate(-437.84 -398.22)"/><path class="cls-4" d="M458.8,417.63v-4.56a1.95,1.95,0,0,0-2.13-2.16h-.25a1.95,1.95,0,0,0-2.13,2.16v4.56a1.95,1.95,0,0,0,2.13,2.16h.25a2.13,2.13,0,0,0,1.55-.55A2.1,2.1,0,0,0,458.8,417.63Zm-1.08-4.8-2.36,3.43v-3.43a.9.9,0,0,1,.3-.68,1.06,1.06,0,0,1,.76-.29h.25a1,1,0,0,1,.75.29A.9.9,0,0,1,457.72,412.83Zm-2.36,5,2.36-3.42v3.42a.9.9,0,0,1-.3.68,1,1,0,0,1-.75.29h-.25a1.06,1.06,0,0,1-.76-.29A.9.9,0,0,1,455.36,417.87Z" transform="translate(-437.84 -398.22)"/><path class="cls-4" d="M454.54,431.52v1h4.12v-1h-1.38v-7.93h-1.21l-1.66.64v1l1.79-.66v6.93Z" transform="translate(-437.84 -398.22)"/><path class="cls-4" d="M458.8,443v-4.56a1.95,1.95,0,0,0-2.13-2.16h-.25a1.95,1.95,0,0,0-2.13,2.16V443a1.95,1.95,0,0,0,2.13,2.16h.25a2.13,2.13,0,0,0,1.55-.55A2.1,2.1,0,0,0,458.8,443Zm-1.08-4.8-2.36,3.43v-3.43a.91.91,0,0,1,.3-.68,1.06,1.06,0,0,1,.76-.29h.25a1,1,0,0,1,.75.29A.91.91,0,0,1,457.72,438.19Zm-2.36,5.05,2.36-3.43v3.43a.89.89,0,0,1-.3.67,1,1,0,0,1-.75.29h-.25a1.06,1.06,0,0,1-.76-.29A.89.89,0,0,1,455.36,443.24Z" transform="translate(-437.84 -398.22)"/><path class="cls-4" d="M454.54,469.58v.95h4.12v-.95h-1.38v-7.93h-1.21l-1.66.64v1l1.79-.65v6.92Z" transform="translate(-437.84 -398.22)"/><path class="cls-4" d="M458.8,455.58V451a2.12,2.12,0,0,0-.57-1.61,2.18,2.18,0,0,0-1.56-.55h-.25a2.18,2.18,0,0,0-1.56.55,2.12,2.12,0,0,0-.57,1.61v4.57a2.13,2.13,0,0,0,.57,1.6,2.15,2.15,0,0,0,1.56.55h.25a2.13,2.13,0,0,0,1.55-.55A2.09,2.09,0,0,0,458.8,455.58Zm-1.08-4.81-2.36,3.44v-3.44a.91.91,0,0,1,.3-.68,1.05,1.05,0,0,1,.76-.28h.25a1,1,0,0,1,.75.28A.91.91,0,0,1,457.72,450.77Zm-2.36,5.05,2.36-3.43v3.43a.91.91,0,0,1-.3.68,1,1,0,0,1-.75.28h-.25a1.05,1.05,0,0,1-.76-.28A.91.91,0,0,1,455.36,455.82Z" transform="translate(-437.84 -398.22)"/><path class="cls-4" d="M454.54,482.25v1h4.12v-1h-1.38v-7.92h-1.21l-1.66.63v1l1.79-.66v6.92Z" transform="translate(-437.84 -398.22)"/><path class="cls-5" d="M446.46,417.58v.91h3.94v-.91h-1.32V410h-1.16l-1.58.61v1l1.71-.63v6.63Z" transform="translate(-437.84 -398.22)"/><path class="cls-5" d="M450.53,428.56v-4.37a2,2,0,0,0-.54-1.54,2.07,2.07,0,0,0-1.5-.52h-.24a1.86,1.86,0,0,0-2,2.06v4.37a1.89,1.89,0,0,0,2,2.06h.24a2,2,0,0,0,1.49-.53A2,2,0,0,0,450.53,428.56Zm-1-4.6-2.25,3.29V424a.88.88,0,0,1,.28-.65,1,1,0,0,1,.72-.27h.24a1,1,0,0,1,.73.27A.88.88,0,0,1,449.5,424Zm-2.25,4.83,2.25-3.27v3.27a.86.86,0,0,1-.28.65,1,1,0,0,1-.73.27h-.24a1,1,0,0,1-.72-.27A.86.86,0,0,1,447.25,428.79Z" transform="translate(-437.84 -398.22)"/><path class="cls-5" d="M446.46,466.1V467h3.94v-.91h-1.32v-7.58h-1.16l-1.58.61v1l1.71-.63v6.62Z" transform="translate(-437.84 -398.22)"/><path class="cls-5" d="M446.46,490.39v.91h3.94v-.91h-1.32v-7.58h-1.16l-1.58.6v1l1.71-.63v6.62Z" transform="translate(-437.84 -398.22)"/><path class="cls-5" d="M446.46,454.58v.91h3.94v-.91h-1.32V447h-1.16l-1.58.6v1l1.71-.63v6.63Z" transform="translate(-437.84 -398.22)"/><path class="cls-5" d="M450.53,440.69v-4.37a2,2,0,0,0-.54-1.54,2.07,2.07,0,0,0-1.5-.52h-.24a1.86,1.86,0,0,0-2,2.06v4.37a2,2,0,0,0,.56,1.53,2,2,0,0,0,1.48.53h.24a2.07,2.07,0,0,0,1.49-.53A2,2,0,0,0,450.53,440.69Zm-1-4.6-2.25,3.29v-3.29a.86.86,0,0,1,.28-.65,1,1,0,0,1,.72-.27h.24a1,1,0,0,1,.73.27A.86.86,0,0,1,449.5,436.09Zm-2.25,4.83,2.25-3.28v3.28a.86.86,0,0,1-.28.65,1,1,0,0,1-.73.27h-.24a1,1,0,0,1-.72-.27A.86.86,0,0,1,447.25,440.92Z" transform="translate(-437.84 -398.22)"/><path class="cls-5" d="M446.46,477.8v.91h3.94v-.91h-1.32v-7.58h-1.16l-1.58.61v1l1.71-.63v6.62Z" transform="translate(-437.84 -398.22)"/><polygon class="cls-6" points="37.09 29.71 37.09 65.64 67.67 96.1 103.22 96.1 37.09 29.71"/><polygon class="cls-6" points="55.99 39.33 95.04 0.17 59.74 0.17 38.49 21.5 55.99 39.33"/><polygon class="cls-6" points="55.99 39.33 95.04 0.17 59.74 0.17 38.49 21.5 55.99 39.33"/><polygon class="cls-7" points="55.99 39.33 95.04 0.17 59.74 0.17 38.49 21.5 55.99 39.33"/><polygon class="cls-8" points="37.09 29.71 37.09 65.64 67.67 96.1 103.22 96.1 37.09 29.71"/><g class="cls-9"><path class="cls-10" d="M484.63,443.42v2.82h7.78v-5.46h-3.2m7.74,5.47h-2m0-2.73h2m0-2.74h-2M484.63,449H497m-10.3-9.25v1.06h-6V460.3h18.84v-7.67m-18.84-11.85,3.51-3.51m18,11.71h2.95m0-2.73h-2.95m-13.33,16.68v3.35h18.84v-5.56m-23-6.31h7.49m4.83-2.72H484.63m20.48,5.47h-2.95m0-2.72h2.95m0-2.72h-2.95" transform="translate(-437.84 -398.22)"/></g><g class="cls-9"><polygon class="cls-11" points="51.66 14.49 58.93 14.49 58.92 5.08 54.85 5.08 51.66 8.28 51.66 14.49"/><path class="cls-11" d="M498.92,416.63l-1.48-1.48L488.31,423h0l4.24,4.23h0l7.88-9.16Z" transform="translate(-437.84 -398.22)"/><path class="cls-11" d="M501.26,414.31a8.94,8.94,0,1,0-2.61-6.32,8.63,8.63,0,0,0,2.61,6.32Zm1.54-7.82-.59-.32a5.4,5.4,0,0,1,1.12-1.91l.56.36a1.17,1.17,0,0,0,1.17,0l.88-.51a1.16,1.16,0,0,0,.55-1l0-.68a6.16,6.16,0,0,1,2.21,0v.67a1.18,1.18,0,0,0,.54,1l.89.5a1.13,1.13,0,0,0,1.16,0l.57-.35a5.4,5.4,0,0,1,1.12,1.91l-.59.33a1.16,1.16,0,0,0-.63,1v1a1.16,1.16,0,0,0,.63,1l.59.33a5.4,5.4,0,0,1-1.12,1.91l-.57-.35a1.13,1.13,0,0,0-1.16,0l-.89.5a1.17,1.17,0,0,0-.54,1v.67a6.16,6.16,0,0,1-2.21,0l0-.67a1.16,1.16,0,0,0-.55-1l-.88-.51a1.17,1.17,0,0,0-1.17,0l-.56.35a5.35,5.35,0,0,1-1.12-1.92l.59-.32a1.16,1.16,0,0,0,.63-1v-1A1.16,1.16,0,0,0,502.8,406.49Z" transform="translate(-437.84 -398.22)"/><path class="cls-11" d="M507.58,410.25a2.25,2.25,0,0,0,2.25-2.26,2.25,2.25,0,1,0-4.5,0,2.25,2.25,0,0,0,2.25,2.26Z" transform="translate(-437.84 -398.22)"/></g><g class="cls-9"><path class="cls-10" d="M511.4,474.76v-5.22h-.16c-1.6.06-3,1.09-4.2,3.07-.18.3-.36.63-.54,1l-.18.38a18.11,18.11,0,0,0-1.09,3,12.84,12.84,0,0,0,3,1.07m3.14-8.53h.16a13.39,13.39,0,0,1,6.08,1.44m6.18,6.15H511.43a.79.79,0,0,0-.57.25.66.66,0,0,0-.2.31.75.75,0,0,0-.05.26v10h15.19v-9m-7.2,4.69-1.69,1.69-.55-5.58,4.55,3.28Zm-7.05-14.16c1.6.06,3,1.09,4.2,3.07.18.3.36.63.54,1l.18.38c.12.26.23.52.34.79m-18.9,11.85a14.8,14.8,0,0,1-.35-3.23h0a13.27,13.27,0,0,1,3.68-9.4l.37-.38a14.06,14.06,0,0,1,1.08-1,13.2,13.2,0,0,1,8.54-3.07m-4.72,19.65a12.26,12.26,0,0,0-1.29.56,18.58,18.58,0,0,0,1.09,3l.18.38q.27.53.54,1m-4.34-2.73a13.61,13.61,0,0,1,2.53-1.66,25.19,25.19,0,0,1-.75-6.37h-6.91m7.66-6.38a25.24,25.24,0,0,0-.75,6.37h3.78m-7-9.41.37.39a14.06,14.06,0,0,0,1.08,1,13.61,13.61,0,0,0,2.53,1.66m10.38,17.37a.83.83,0,0,1,.08-.12l.06-.11c.19-.31.37-.64.55-1l.18-.38.33-.74m5.39,0c-.21.25-.43.5-.66.74a4.27,4.27,0,0,1-.36.38q-.52.53-1.08,1l-.17.13M510.62,488h-2v.24a1.31,1.31,0,0,0,.4,1l.06.06a1.32,1.32,0,0,0,.92.35h16.48a1.38,1.38,0,0,0,1.37-1.38V488h-2m-14.41,4v2.15" transform="translate(-437.84 -398.22)"/></g></g></g></svg>